Blinker-Headline.ufo
<glyph name="exclam" format="1">
  <advance width="227.0"/>
  <unicode hex="0021"/>
  <outline>
    <contour>
      <point x="220.0" y="625.0" type="line"/>
      <point x="8.0" y="625.0" type="line"/>
      <point x="31.0" y="200.0" type="line"/>
      <point x="197.0" y="200.0" type="line"/>
    </contour>
    <contour>
      <point x="207.0" y="0.0" type="line"/>
      <point x="207.0" y="166.0" type="line"/>
      <point x="17.0" y="166.0" type="line"/>
      <point x="17.0" y="0.0" type="line"/>
    </contour>
  </outline>
</glyph>
<glyph name="quotedbl" format="2">
  <advance width="276"/>
  <unicode hex="0022"/>
  <outline>
    <contour>
      <point x="121.0" y="625.0" type="line"/>
      <point x="10.0" y="625.0" type="line"/>
      <point x="10.0" y="397.0" type="line"/>
      <point x="121.0" y="397.0" type="line"/>
    </contour>
    <contour>
      <point x="266.0" y="625.0" type="line"/>
      <point x="155.0" y="625.0" type="line"/>
      <point x="155.0" y="397.0" type="line"/>
      <point x="266.0" y="397.0" type="line"/>
    </contour>
  </outline>
</glyph>
<glyph name="numbersign" format="2">
  <advance width="453"/>
  <unicode hex="0023"/>
  <guideline x="406" y="430" angle="82.1998121158183" identifier="s2NV2PDCic"/>
  <outline>
    <contour>
      <point x="446.0" y="371.0" type="line"/>
      <point x="446.0" y="491.0" type="line"/>
      <point x="403.0" y="491.0" type="line"/>
      <point x="421.0" y="625.0" type="line"/>
      <point x="294.0" y="625.0" type="line"/>
      <point x="276.0" y="491.0" type="line"/>
      <point x="229.0" y="491.0" type="line"/>
      <point x="247.0" y="625.0" type="line"/>
      <point x="120.0" y="625.0" type="line"/>
      <point x="102.0" y="491.0" type="line"/>
      <point x="36.0" y="491.0" type="line"/>
      <point x="36.0" y="371.0" type="line"/>
      <point x="86.0" y="371.0" type="line"/>
      <point x="71.0" y="265.0" type="line"/>
      <point x="7.0" y="265.0" type="line"/>
      <point x="7.0" y="145.0" type="line"/>
      <point x="54.0" y="145.0" type="line"/>
      <point x="34.0" y="0.0" type="line"/>
      <point x="161.0" y="0.0" type="line"/>
      <point x="181.0" y="145.0" type="line"/>
      <point x="228.0" y="145.0" type="line"/>
      <point x="208.0" y="0.0" type="line"/>
      <point x="335.0" y="0.0" type="line"/>
      <point x="355.0" y="145.0" type="line"/>
      <point x="417.0" y="145.0" type="line"/>
      <point x="417.0" y="265.0" type="line"/>
      <point x="372.0" y="265.0" type="line"/>
      <point x="387.0" y="371.0" type="line"/>
    </contour>
    <contour>
      <point x="260.0" y="371.0" type="line"/>
      <point x="245.0" y="265.0" type="line"/>
      <point x="198.0" y="265.0" type="line"/>
      <point x="213.0" y="371.0" type="line"/>
    </contour>
  </outline>
</glyph>
<glyph name="dollar" format="1">
  <advance width="401.0"/>
  <unicode hex="0024"/>
  <outline>
    <contour>
      <point x="261.0" y="565.0" type="line"/>
      <point x="261.0" y="714.0" type="line"/>
      <point x="151.0" y="714.0" type="line"/>
      <point x="151.0" y="565.0" type="line"/>
    </contour>
    <contour>
      <point x="261.0" y="-87.0" type="line"/>
      <point x="261.0" y="75.0" type="line"/>
      <point x="151.0" y="75.0" type="line"/>
      <point x="151.0" y="-87.0" type="line"/>
    </contour>
    <contour>
      <point x="134.0" y="248.0" type="curve" smooth="yes"/>
      <point x="195.0" y="229.0" type="line" smooth="yes"/>
      <point x="215.0" y="223.0"/>
      <point x="219.0" y="218.0"/>
      <point x="219.0" y="199.0" type="curve" smooth="yes"/>
      <point x="219.0" y="178.0"/>
      <point x="204.85294117647058" y="170.0"/>
      <point x="182.0" y="170.0" type="curve"/>
      <point x="116.18235294117648" y="170.0"/>
      <point x="49.45782242235514" y="184.20138024312524"/>
      <point x="15.0" y="197.0" type="curve"/>
      <point x="15.0" y="13.0" type="line"/>
      <point x="42.0" y="1.0"/>
      <point x="117.0" y="-11.0"/>
      <point x="184.0" y="-11.0" type="curve" smooth="yes"/>
      <point x="370.0" y="-11.0"/>
      <point x="394.0" y="103.0"/>
      <point x="394.0" y="205.0" type="curve" smooth="yes"/>
      <point x="394.0" y="341.97777777777776"/>
      <point x="352.87790737752334" y="361.221775767356"/>
      <point x="268.0" y="389.0" type="curve" smooth="yes"/>
      <point x="213.0" y="407.0" type="line" smooth="yes"/>
      <point x="195.0" y="413.0"/>
      <point x="192.0" y="418.30434782608694"/>
      <point x="192.0" y="433.0" type="curve"/>
      <point x="192.0" y="452.0"/>
      <point x="200.0" y="462.0"/>
      <point x="223.0" y="462.0" type="curve" smooth="yes"/>
      <point x="277.0" y="462.0"/>
      <point x="328.75620860837824" y="451.8319536425826"/>
      <point x="355.0" y="446.0" type="curve"/>
      <point x="355.0" y="619.0" type="line"/>
      <point x="327.0" y="629.0"/>
      <point x="276.0" y="637.0"/>
      <point x="208.0" y="637.0" type="curve" smooth="yes"/>
      <point x="76.0" y="637.0"/>
      <point x="11.0" y="574.0"/>
      <point x="11.0" y="423.0" type="curve" smooth="yes"/>
      <point x="11.0" y="297.5664739884393"/>
      <point x="68.40419208703017" y="268.4314811532201"/>
    </contour>
  </outline>
</glyph>
<glyph name="percent" format="2">
  <advance width="575"/>
  <unicode hex="0025"/>
  <outline>
    <contour>
      <point x="128.0" y="537.0" type="curve"/>
      <point x="142.0" y="537.0"/>
      <point x="146.0" y="525.0"/>
      <point x="146.0" y="478.0" type="curve"/>
      <point x="146.0" y="432.0"/>
      <point x="142.0" y="419.0"/>
      <point x="128.0" y="419.0" type="curve"/>
      <point x="113.0" y="419.0"/>
      <point x="110.0" y="432.0"/>
      <point x="110.0" y="478.0" type="curve"/>
      <point x="110.0" y="525.0"/>
      <point x="113.0" y="537.0"/>
    </contour>
    <contour>
      <point x="128.0" y="318.0" type="curve"/>
      <point x="215.0" y="318.0"/>
      <point x="250.0" y="365.0"/>
      <point x="250.0" y="478.0" type="curve"/>
      <point x="250.0" y="587.0"/>
      <point x="215.0" y="633.0"/>
      <point x="128.0" y="633.0" type="curve"/>
      <point x="42.0" y="633.0"/>
      <point x="6.0" y="587.0"/>
      <point x="6.0" y="478.0" type="curve"/>
      <point x="6.0" y="365.0"/>
      <point x="42.0" y="318.0"/>
    </contour>
    <contour>
      <point x="447.0" y="211.0" type="curve"/>
      <point x="461.0" y="211.0"/>
      <point x="465.0" y="199.0"/>
      <point x="465.0" y="152.0" type="curve"/>
      <point x="465.0" y="106.0"/>
      <point x="461.0" y="93.0"/>
      <point x="447.0" y="93.0" type="curve"/>
      <point x="432.0" y="93.0"/>
      <point x="429.0" y="106.0"/>
      <point x="429.0" y="152.0" type="curve"/>
      <point x="429.0" y="199.0"/>
      <point x="432.0" y="211.0"/>
    </contour>
    <contour>
      <point x="447.0" y="-8.0" type="curve"/>
      <point x="534.0" y="-8.0"/>
      <point x="569.0" y="39.0"/>
      <point x="569.0" y="152.0" type="curve"/>
      <point x="569.0" y="261.0"/>
      <point x="534.0" y="307.0"/>
      <point x="447.0" y="307.0" type="curve"/>
      <point x="361.0" y="307.0"/>
      <point x="325.0" y="261.0"/>
      <point x="325.0" y="152.0" type="curve"/>
      <point x="325.0" y="39.0"/>
      <point x="361.0" y="-8.0"/>
    </contour>
    <component base="fraction" xOffset="207"/>
  </outline>
</glyph>
<glyph name="ampersand" format="2">
  <advance width="537"/>
  <unicode hex="0026"/>
  <outline>
    <contour>
      <point x="311.0" y="168.0" type="line"/>
      <point x="307.0061364684493" y="164.80490917475942"/>
      <point x="295.0" y="161.0"/>
      <point x="277.0" y="161.0" type="curve"/>
      <point x="217.0" y="161.0"/>
      <point x="200.0" y="197.0"/>
      <point x="200.0" y="342.0" type="curve"/>
      <point x="200.0" y="435.0"/>
      <point x="203.0" y="475.0"/>
      <point x="236.0" y="475.0" type="curve"/>
      <point x="258.61538461538464" y="475.0"/>
      <point x="264.0" y="457.9"/>
      <point x="264.0" y="437.0" type="curve"/>
      <point x="264.0" y="395.8235294117647"/>
      <point x="242.0" y="366.0"/>
      <point x="133.0" y="367.0" type="curve"/>
      <point x="133.0" y="245.0" type="line"/>
      <point x="275.0" y="234.0"/>
      <point x="432.0" y="298.0"/>
      <point x="432.0" y="449.0" type="curve"/>
      <point x="432.0" y="561.7872340425532"/>
      <point x="372.0" y="635.0"/>
      <point x="245.0" y="635.0" type="curve" smooth="yes"/>
      <point x="90.0" y="635.0"/>
      <point x="8.0" y="523.7156549520766"/>
      <point x="8.0" y="324.0" type="curve"/>
      <point x="8.0" y="78.26865671641792"/>
      <point x="100.0" y="-12.0"/>
      <point x="266.0" y="-12.0" type="curve" smooth="yes"/>
      <point x="357.0" y="-12.0"/>
      <point x="452.7672940854998" y="23.67033328779138"/>
      <point x="477.0" y="58.0" type="curve"/>
      <point x="477.0" y="230.0" type="line"/>
      <point x="536.0" y="230.0" type="line"/>
      <point x="536.0" y="385.0" type="line"/>
      <point x="311.0" y="385.0" type="line"/>
    </contour>
  </outline>
</glyph>
<glyph name="quotesingle" format="2">
  <advance width="144"/>
  <unicode hex="0027"/>
  <outline>
    <contour>
      <point x="134.0" y="625.0" type="line"/>
      <point x="10.0" y="625.0" type="line"/>
      <point x="10.0" y="397.0" type="line"/>
      <point x="134.0" y="397.0" type="line"/>
    </contour>
  </outline>
</glyph>
<glyph name="parenleft" format="2">
  <advance width="172"/>
  <unicode hex="0028"/>
  <outline>
    <contour>
      <point x="120.0" y="312.0" type="curve"/>
      <point x="120.0" y="415.7142857142857"/>
      <point x="129.09097380218594" y="576.2370106951687"/>
      <point x="167.0" y="675.0" type="curve"/>
      <point x="84.0" y="705.0" type="line"/>
      <point x="29.112830219497575" y="592.2318148146041"/>
      <point x="8.0" y="448.65228426395936"/>
      <point x="8.0" y="312.0" type="curve"/>
      <point x="8.0" y="172.3562340966921"/>
      <point x="31.11051688978702" y="32.76436965007673"/>
      <point x="84.0" y="-80.0" type="curve"/>
      <point x="170.0" y="-50.0" type="line"/>
      <point x="131.09298751858628" y="48.76395476051172"/>
      <point x="120.0" y="206.29201101928373"/>
    </contour>
  </outline>
</glyph>
<glyph name="asterisk" format="2">
  <advance width="247"/>
  <unicode hex="002A"/>
  <outline>
    <contour>
      <point x="107.0" y="468.0" type="line"/>
      <point x="132.0" y="534.0" type="line"/>
      <point x="33.0" y="581.0" type="line"/>
      <point x="6.0" y="496.0" type="line"/>
    </contour>
    <contour>
      <point x="146.0" y="483.0" type="line"/>
      <point x="95.0" y="532.0" type="line"/>
      <point x="19.0" y="428.0" type="line"/>
      <point x="89.0" y="387.0" type="line"/>
    </contour>
    <contour>
      <point x="155.0" y="533.0" type="line"/>
      <point x="102.0" y="485.0" type="line"/>
      <point x="157.0" y="388.0" type="line"/>
      <point x="228.0" y="426.0" type="line"/>
    </contour>
    <contour>
      <point x="112.0" y="537.0" type="line"/>
      <point x="134.0" y="469.0" type="line"/>
      <point x="241.0" y="496.0" type="line"/>
      <point x="213.0" y="579.0" type="line"/>
    </contour>
    <contour>
      <point x="88.0" y="506.0" type="line"/>
      <point x="158.0" y="506.0" type="line"/>
      <point x="168.0" y="625.0" type="line"/>
      <point x="78.0" y="625.0" type="line"/>
    </contour>
  </outline>
</glyph>
<glyph name="plus" format="1">
  <advance width="500.0"/>
  <unicode hex="002B"/>
  <outline>
    <contour>
      <point x="427.0" y="244.0" type="line"/>
      <point x="427.0" y="400.0" type="line"/>
      <point x="73.0" y="400.0" type="line"/>
      <point x="73.0" y="244.0" type="line"/>
    </contour>
    <contour>
      <point x="330.0" y="532.0" type="line"/>
      <point x="170.0" y="532.0" type="line"/>
      <point x="170.0" y="110.0" type="line"/>
      <point x="330.0" y="110.0" type="line"/>
    </contour>
  </outline>
</glyph>
<glyph name="comma" format="2">
  <advance width="181"/>
  <unicode hex="002C"/>
  <outline>
    <contour>
      <point x="152.0" y="-23.0" type="curve" smooth="yes"/>
      <point x="181.0" y="171.0" type="line"/>
      <point x="9.0" y="171.0" type="line"/>
      <point x="9.0" y="-84.0" type="line"/>
      <point x="78.0" y="-84.0" type="line" smooth="yes"/>
      <point x="116.0" y="-84.0"/>
      <point x="146.0" y="-60.0"/>
    </contour>
  </outline>
</glyph>
<glyph name="slash" format="2">
  <advance width="265"/>
  <unicode hex="002F"/>
  <outline>
    <contour>
      <point x="112.0" y="-80.0" type="line"/>
      <point x="260.0" y="705.0" type="line"/>
      <point x="153.0" y="705.0" type="line"/>
      <point x="5.0" y="-80.0" type="line"/>
    </contour>
  </outline>
</glyph>
<glyph name="zero" format="1">
  <advance width="475.0"/>
  <unicode hex="0030"/>
  <outline>
    <contour>
      <point x="238.0" y="460.0" type="curve"/>
      <point x="262.0" y="460.0"/>
      <point x="266.0" y="438.85714285714283"/>
      <point x="266.0" y="312.0" type="curve"/>
      <point x="266.0" y="191.0"/>
      <point x="262.0" y="171.0"/>
      <point x="238.0" y="171.0" type="curve"/>
      <point x="212.0" y="171.0"/>
      <point x="209.0" y="191.0"/>
      <point x="209.0" y="312.0" type="curve"/>
      <point x="209.0" y="438.85714285714283"/>
      <point x="212.0" y="460.0"/>
    </contour>
    <contour>
      <point x="238.0" y="-12.0" type="curve"/>
      <point x="389.0" y="-12.0"/>
      <point x="461.0" y="52.0"/>
      <point x="461.0" y="312.0" type="curve"/>
      <point x="461.0" y="568.7901234567901"/>
      <point x="412.0" y="637.0"/>
      <point x="238.0" y="637.0" type="curve"/>
      <point x="88.0" y="637.0"/>
      <point x="14.0" y="572.8024691358025"/>
      <point x="14.0" y="312.0" type="curve"/>
      <point x="14.0" y="56.0"/>
      <point x="64.0" y="-12.0"/>
    </contour>
  </outline>
</glyph>
<glyph name="one" format="1">
  <advance width="312.0"/>
  <unicode hex="0031"/>
  <outline>
    <contour>
      <point x="97.0" y="0.0" type="line"/>
      <point x="290.0" y="0.0" type="line"/>
      <point x="290.0" y="637.0" type="line"/>
      <point x="97.0" y="574.0" type="line"/>
    </contour>
    <contour>
      <point x="6.0" y="428.0" type="line"/>
      <point x="100.0" y="442.0" type="line"/>
      <point x="290.0" y="637.0" type="line"/>
      <point x="6.0" y="601.0" type="line"/>
    </contour>
  </outline>
</glyph>
<glyph name="three" format="2">
  <advance width="380"/>
  <unicode hex="0033"/>
  <outline>
    <contour>
      <point x="278.0" y="330.0" type="line"/>
      <point x="334.0477583721493" y="351.017909389556"/>
      <point x="353.0" y="402.4895104895105"/>
      <point x="353.0" y="476.0" type="curve" smooth="yes"/>
      <point x="353.0" y="582.6748466257668"/>
      <point x="303.0" y="637.0"/>
      <point x="195.0" y="637.0" type="curve"/>
      <point x="130.91304347826087" y="637.0"/>
      <point x="53.64443589568727" y="624.4728361816561"/>
      <point x="19.0" y="611.0" type="curve"/>
      <point x="19.0" y="448.0" type="line"/>
      <point x="49.0" y="454.0"/>
      <point x="105.0" y="463.0"/>
      <point x="134.0" y="463.0" type="curve" smooth="yes"/>
      <point x="169.0" y="463.0"/>
      <point x="173.0" y="453.0"/>
      <point x="173.0" y="431.0" type="curve" smooth="yes"/>
      <point x="173.0" y="409.0"/>
      <point x="167.0" y="398.0"/>
      <point x="141.0" y="398.0" type="curve"/>
      <point x="58.0" y="398.0" type="line"/>
      <point x="58.0" y="239.0" type="line"/>
      <point x="162.0" y="239.0" type="line"/>
      <point x="181.0" y="239.0"/>
      <point x="189.0" y="231.0"/>
      <point x="189.0" y="207.0" type="curve" smooth="yes"/>
      <point x="189.0" y="183.0"/>
      <point x="183.0" y="168.0"/>
      <point x="148.0" y="168.0" type="curve"/>
      <point x="105.0" y="168.0"/>
      <point x="58.0" y="171.0"/>
      <point x="14.0" y="180.0" type="curve"/>
      <point x="14.0" y="9.0" type="line"/>
      <point x="40.0" y="-3.0"/>
      <point x="108.0" y="-12.0"/>
      <point x="175.0" y="-12.0" type="curve"/>
      <point x="281.0" y="-12.0"/>
      <point x="369.0" y="47.0"/>
      <point x="369.0" y="181.0" type="curve"/>
      <point x="369.0" y="268.0"/>
      <point x="343.0" y="319.0"/>
      <point x="278.0" y="328.0" type="curve"/>
    </contour>
  </outline>
</glyph>
<glyph name="four" format="2">
  <advance width="440"/>
  <unicode hex="0034"/>
  <outline>
    <contour>
      <point x="433.0" y="128.0" type="line"/>
      <point x="433.0" y="299.0" type="line"/>
      <point x="393.0" y="299.0" type="line"/>
      <point x="393.0" y="517.0" type="line"/>
      <point x="248.0" y="517.0" type="line"/>
      <point x="218.0" y="299.0" type="line"/>
      <point x="197.0" y="299.0" type="line"/>
      <point x="243.0" y="625.0" type="line"/>
      <point x="65.0" y="625.0" type="line"/>
      <point x="11.0" y="299.0" type="line"/>
      <point x="11.0" y="128.0" type="line"/>
      <point x="200.0" y="128.0" type="line"/>
      <point x="200.0" y="0.0" type="line"/>
      <point x="393.0" y="0.0" type="line"/>
      <point x="393.0" y="128.0" type="line"/>
    </contour>
  </outline>
</glyph>
<glyph name="five" format="1">
  <advance width="380.0"/>
  <unicode hex="0035"/>
  <outline>
    <contour>
      <point x="177.0" y="-12.0" type="curve"/>
      <point x="284.0" y="-12.0"/>
      <point x="369.0" y="49.0"/>
      <point x="369.0" y="201.0" type="curve"/>
      <point x="369.0" y="354.0"/>
      <point x="321.0" y="388.0"/>
      <point x="258.0" y="388.0" type="curve" smooth="yes"/>
      <point x="250.0" y="388.0"/>
      <point x="232.0" y="387.0"/>
      <point x="222.0" y="385.0" type="curve"/>
      <point x="222.0" y="448.0" type="line"/>
      <point x="336.0" y="448.0" type="line"/>
      <point x="336.0" y="625.0" type="line"/>
      <point x="29.0" y="625.0" type="line"/>
      <point x="29.0" y="234.0" type="line"/>
      <point x="64.0" y="240.0"/>
      <point x="95.0" y="242.0"/>
      <point x="132.0" y="242.0" type="curve"/>
      <point x="169.0" y="242.0"/>
      <point x="177.0" y="231.0"/>
      <point x="177.0" y="208.0" type="curve" smooth="yes"/>
      <point x="177.0" y="178.0"/>
      <point x="170.0" y="167.0"/>
      <point x="138.0" y="167.0" type="curve"/>
      <point x="102.0" y="167.0"/>
      <point x="63.0" y="169.0"/>
      <point x="15.0" y="178.0" type="curve"/>
      <point x="15.0" y="9.0" type="line"/>
      <point x="41.0" y="-4.0"/>
      <point x="110.0" y="-12.0"/>
    </contour>
  </outline>
</glyph>
<glyph name="seven" format="2">
  <advance width="379"/>
  <unicode hex="0037"/>
  <outline>
    <contour>
      <point x="370.0" y="448.0" type="line"/>
      <point x="370.0" y="625.0" type="line"/>
      <point x="18.0" y="625.0" type="line"/>
      <point x="18.0" y="443.0" type="line"/>
      <point x="164.0" y="443.0" type="line"/>
      <point x="-3.0" y="0.0" type="line"/>
      <point x="216.0" y="0.0" type="line"/>
    </contour>
  </outline>
</glyph>
<glyph name="eight" format="1">
  <advance width="427.0"/>
  <unicode hex="0038"/>
  <outline>
    <contour>
      <point x="214.0" y="-12.0" type="curve"/>
      <point x="355.0" y="-12.0"/>
      <point x="415.0" y="53.0"/>
      <point x="415.0" y="169.0" type="curve"/>
      <point x="415.0" y="242.0"/>
      <point x="393.0" y="300.0"/>
      <point x="340.0" y="324.0" type="curve"/>
      <point x="394.08080188107937" y="352.0418972716708"/>
      <point x="406.0" y="403.556338028169"/>
      <point x="406.0" y="467.0" type="curve"/>
      <point x="406.0" y="583.0"/>
      <point x="356.0" y="637.0"/>
      <point x="214.0" y="637.0" type="curve"/>
      <point x="79.0" y="637.0"/>
      <point x="21.0" y="577.0"/>
      <point x="21.0" y="468.0" type="curve"/>
      <point x="19.993008693942215" y="403.5525564123018"/>
      <point x="32.91610316986024" y="353.0442365104373"/>
      <point x="88.0" y="324.0" type="curve"/>
      <point x="36.0" y="301.0"/>
      <point x="12.0" y="246.0"/>
      <point x="12.0" y="172.0" type="curve"/>
      <point x="12.0" y="47.0"/>
      <point x="65.0" y="-12.0"/>
    </contour>
    <contour>
      <point x="214.0" y="483.0" type="curve"/>
      <point x="231.0" y="483.0"/>
      <point x="240.0" y="470.0"/>
      <point x="240.0" y="438.0" type="curve"/>
      <point x="240.0" y="405.0"/>
      <point x="231.0" y="392.0"/>
      <point x="214.0" y="392.0" type="curve"/>
      <point x="197.0" y="392.0"/>
      <point x="188.0" y="405.0"/>
      <point x="188.0" y="438.0" type="curve"/>
      <point x="188.0" y="471.0"/>
      <point x="197.0" y="483.0"/>
    </contour>
    <contour>
      <point x="214.0" y="243.0" type="curve"/>
      <point x="232.0" y="243.0"/>
      <point x="240.0" y="229.0"/>
      <point x="240.0" y="197.0" type="curve"/>
      <point x="240.0" y="162.0"/>
      <point x="232.0" y="149.0"/>
      <point x="214.0" y="149.0" type="curve"/>
      <point x="197.0" y="149.0"/>
      <point x="188.0" y="162.0"/>
      <point x="188.0" y="197.0" type="curve"/>
      <point x="188.0" y="229.0"/>
      <point x="197.0" y="243.0"/>
    </contour>
  </outline>
</glyph>
<glyph name="nine" format="1">
  <advance width="426.0"/>
  <unicode hex="0039"/>
  <outline>
    <contour>
      <point x="413.0" y="328.0" type="curve"/>
      <point x="413.0" y="560.0"/>
      <point x="355.0" y="637.0"/>
      <point x="200.0" y="637.0" type="curve"/>
      <point x="73.0" y="637.0"/>
      <point x="9.0" y="552.0"/>
      <point x="9.0" y="409.0" type="curve"/>
      <point x="9.0" y="272.0"/>
      <point x="53.0" y="211.0"/>
      <point x="141.0" y="211.0" type="curve"/>
      <point x="201.0" y="211.0"/>
      <point x="245.0" y="242.0"/>
      <point x="249.0" y="251.0" type="curve"/>
      <point x="249.0" y="378.0" type="line"/>
      <point x="231.0" y="369.0"/>
      <point x="216.0" y="358.0"/>
      <point x="206.0" y="358.0" type="curve"/>
      <point x="192.0" y="358.0"/>
      <point x="183.0" y="368.0"/>
      <point x="183.0" y="413.0" type="curve"/>
      <point x="183.0" y="454.0"/>
      <point x="191.0" y="472.0"/>
      <point x="203.0" y="472.0" type="curve"/>
      <point x="227.0" y="472.0"/>
      <point x="226.0" y="451.0"/>
      <point x="226.0" y="346.0" type="curve"/>
      <point x="226.0" y="184.0"/>
      <point x="214.0" y="156.0"/>
      <point x="135.0" y="156.0" type="curve"/>
      <point x="92.0" y="156.0"/>
      <point x="67.0" y="159.0"/>
      <point x="50.0" y="162.0" type="curve"/>
      <point x="50.0" y="-1.0" type="line"/>
      <point x="66.0" y="-8.0"/>
      <point x="111.0" y="-12.0"/>
      <point x="148.0" y="-12.0" type="curve"/>
      <point x="320.0" y="-12.0"/>
      <point x="413.0" y="94.0"/>
    </contour>
  </outline>
</glyph>
<glyph name="less" format="1">
  <advance width="500.0"/>
  <unicode hex="003C"/>
  <outline>
    <contour>
      <point x="427.0" y="388.0" type="line"/>
      <point x="427.0" y="548.0" type="line"/>
      <point x="73.0" y="401.0" type="line"/>
      <point x="73.0" y="268.0" type="line"/>
    </contour>
    <contour>
      <point x="427.0" y="76.0" type="line"/>
      <point x="427.0" y="239.0" type="line"/>
      <point x="73.0" y="360.0" type="line"/>
      <point x="73.0" y="223.0" type="line"/>
    </contour>
  </outline>
</glyph>
<glyph name="question" format="2">
  <advance width="310"/>
  <unicode hex="003F"/>
  <outline>
    <contour>
      <point x="304.0" y="495.0" type="curve" smooth="yes"/>
      <point x="304.0" y="592.0"/>
      <point x="245.0" y="635.0"/>
      <point x="157.0" y="635.0" type="curve"/>
      <point x="107.0" y="635.0"/>
      <point x="58.0" y="627.0"/>
      <point x="13.0" y="607.0" type="curve"/>
      <point x="13.0" y="445.0" type="line"/>
      <point x="36.0" y="455.0"/>
      <point x="71.0" y="469.0"/>
      <point x="106.0" y="469.0" type="curve"/>
      <point x="127.0" y="469.0"/>
      <point x="136.0" y="461.0"/>
      <point x="136.0" y="444.0" type="curve" smooth="yes"/>
      <point x="136.0" y="416.0"/>
      <point x="108.0" y="394.0"/>
      <point x="51.0" y="363.0" type="curve"/>
      <point x="51.0" y="201.0" type="line"/>
      <point x="219.0" y="201.0" type="line"/>
      <point x="219.0" y="322.0" type="line"/>
      <point x="274.0" y="369.0"/>
      <point x="304.0" y="414.0"/>
    </contour>
    <contour>
      <point x="231.0" y="0.0" type="line"/>
      <point x="231.0" y="166.0" type="line"/>
      <point x="39.0" y="166.0" type="line"/>
      <point x="39.0" y="0.0" type="line"/>
    </contour>
  </outline>
</glyph>
<glyph name="at" format="2">
  <advance width="506"/>
  <unicode hex="0040"/>
  <outline>
    <contour>
      <point x="155.0" y="181.0" type="curve"/>
      <point x="155.0" y="115.0"/>
      <point x="179.24324324324326" y="84.0"/>
      <point x="233.0" y="84.0" type="curve"/>
      <point x="261.7368421052631" y="84.0"/>
      <point x="309.0619562072348" y="103.18586862170443"/>
      <point x="324.0" y="148.0" type="curve"/>
      <point x="292.0" y="184.0" type="line"/>
      <point x="294.0" y="181.0"/>
      <point x="278.0" y="168.0"/>
      <point x="263.0" y="168.0" type="curve"/>
      <point x="254.0" y="168.0"/>
      <point x="251.0" y="173.0"/>
      <point x="251.0" y="188.0" type="curve" smooth="yes"/>
      <point x="251.0" y="205.2941176470588"/>
      <point x="254.0" y="209.0"/>
      <point x="263.0" y="209.0" type="curve"/>
      <point x="275.0" y="209.0"/>
      <point x="287.0" y="206.0"/>
      <point x="291.0" y="204.0" type="curve"/>
      <point x="291.0" y="267.0" type="line"/>
      <point x="288.0" y="270.0"/>
      <point x="267.0" y="275.0"/>
      <point x="248.0" y="275.0" type="curve"/>
      <point x="178.0" y="275.0"/>
      <point x="155.0" y="251.0"/>
    </contour>
    <contour>
      <point x="507.0" y="301.0" type="curve" smooth="yes"/>
      <point x="507.0" y="465.0"/>
      <point x="419.9956140350877" y="557.0"/>
      <point x="268.0" y="557.0" type="curve"/>
      <point x="104.74501992031873" y="557.0"/>
      <point x="7.0" y="448.0"/>
      <point x="7.0" y="241.0" type="curve" smooth="yes"/>
      <point x="7.0" y="10.0"/>
      <point x="123.44444444444443" y="-76.0"/>
      <point x="269.0" y="-76.0" type="curve"/>
      <point x="336.0" y="-76.0"/>
      <point x="386.0" y="-62.0"/>
      <point x="422.0" y="-36.0" type="curve"/>
      <point x="422.0" y="69.0" type="line"/>
      <point x="384.0" y="43.0"/>
      <point x="330.0" y="33.0"/>
      <point x="297.0" y="33.0" type="curve"/>
      <point x="190.0" y="33.0"/>
      <point x="122.0" y="78.0"/>
      <point x="122.0" y="240.0" type="curve" smooth="yes"/>
      <point x="122.0" y="400.0"/>
      <point x="163.0" y="452.0"/>
      <point x="270.0" y="452.0" type="curve"/>
      <point x="370.0" y="452.0"/>
      <point x="398.0" y="369.0"/>
      <point x="398.0" y="288.0" type="curve" smooth="yes"/>
      <point x="398.0" y="216.0"/>
      <point x="384.0" y="176.0"/>
      <point x="376.0" y="176.0" type="curve"/>
      <point x="374.0" y="176.0"/>
      <point x="372.0" y="179.0"/>
      <point x="372.0" y="189.0" type="curve" smooth="yes"/>
      <point x="372.0" y="301.0" type="line" smooth="yes"/>
      <point x="372.0" y="368.0"/>
      <point x="334.0" y="399.0"/>
      <point x="282.0" y="399.0" type="curve"/>
      <point x="238.0" y="399.0"/>
      <point x="203.0" y="395.0"/>
      <point x="174.0" y="388.0" type="curve"/>
      <point x="174.0" y="300.0" type="line"/>
      <point x="188.0" y="303.0"/>
      <point x="217.0" y="307.0"/>
      <point x="250.0" y="307.0" type="curve"/>
      <point x="267.25" y="307.0"/>
      <point x="274.0" y="302.0"/>
      <point x="274.0" y="285.0" type="curve" smooth="yes"/>
      <point x="274.0" y="161.0" type="line"/>
      <point x="303.0" y="161.0" type="line"/>
      <point x="304.0" y="121.0"/>
      <point x="319.0" y="84.0"/>
      <point x="362.0" y="84.0" type="curve"/>
      <point x="444.23880597014926" y="84.0"/>
      <point x="507.0" y="176.0"/>
    </contour>
  </outline>
</glyph>
<glyph name="A" format="2">
  <advance width="493"/>
  <unicode hex="0041"/>
  <anchor x="248.0" y="637" name="top"/>
  <anchor x="496.0" y="0" name="ogonek"/>
  <outline>
    <contour>
      <point x="-4.0" y="0.0" type="line"/>
      <point x="190.0" y="0.0" type="line"/>
      <point x="225.0" y="307.0" type="line" smooth="yes"/>
      <point x="231.0" y="359.0"/>
      <point x="256.0" y="526.0"/>
      <point x="255.0" y="625.0" type="curve"/>
      <point x="109.0" y="625.0" type="line"/>
    </contour>
    <contour>
      <point x="496.0" y="0.0" type="line"/>
      <point x="390.0" y="625.0" type="line"/>
      <point x="236.0" y="625.0" type="line"/>
      <point x="237" y="526"/>
      <point x="261" y="358"/>
      <point x="267.0" y="306.0" type="curve" smooth="yes"/>
      <point x="303.0" y="0.0" type="line"/>
    </contour>
    <contour>
      <point x="122.0" y="92.0" type="line"/>
      <point x="354.0" y="92.0" type="line"/>
      <point x="354.0" y="253.0" type="line"/>
      <point x="122.0" y="253.0" type="line"/>
    </contour>
  </outline>
</glyph>
<glyph name="B" format="1">
  <advance width="442.0"/>
  <unicode hex="0042"/>
  <outline>
    <contour>
      <point x="236.0" y="0.0" type="line"/>
      <point x="364.0" y="0.0"/>
      <point x="438.0" y="55.0"/>
      <point x="438.0" y="186.0" type="curve" smooth="yes"/>
      <point x="438.0" y="280.0"/>
      <point x="408.0" y="318.0"/>
      <point x="359.0" y="332.0" type="curve"/>
      <point x="392.0" y="348.0"/>
      <point x="410.0" y="383.0"/>
      <point x="410.0" y="461.0" type="curve" smooth="yes"/>
      <point x="410.0" y="574.0"/>
      <point x="358.0" y="625.0"/>
      <point x="237.0" y="625.0" type="curve" smooth="yes"/>
      <point x="78.0" y="625.0" type="line"/>
      <point x="78.0" y="467.0" type="line"/>
      <point x="221.0" y="467.0" type="line"/>
      <point x="240.0" y="467.0"/>
      <point x="248.0" y="456.0"/>
      <point x="248.0" y="426.0" type="curve" smooth="yes"/>
      <point x="248.0" y="392.0"/>
      <point x="241.0" y="381.0"/>
      <point x="221.0" y="381.0" type="curve"/>
      <point x="78.0" y="381.0" type="line"/>
      <point x="78.0" y="251.0" type="line"/>
      <point x="224.0" y="251.0" type="line"/>
      <point x="244.0" y="251.0"/>
      <point x="249.0" y="238.0"/>
      <point x="249.0" y="208.0" type="curve" smooth="yes"/>
      <point x="249.0" y="177.0"/>
      <point x="244.0" y="165.0"/>
      <point x="224.0" y="165.0" type="curve"/>
      <point x="78.0" y="165.0" type="line"/>
      <point x="78.0" y="0.0" type="line"/>
    </contour>
    <contour>
      <point x="201.0" y="0.0" type="line"/>
      <point x="201.0" y="625.0" type="line"/>
      <point x="17.0" y="625.0" type="line"/>
      <point x="17.0" y="0.0" type="line"/>
    </contour>
  </outline>
</glyph>
<glyph name="C" format="1">
  <advance width="394.0"/>
  <unicode hex="0043"/>
  <outline>
    <contour>
      <point x="388.0" y="206.0" type="line"/>
      <point x="354.0" y="192.0"/>
      <point x="313.0" y="182.0"/>
      <point x="274.0" y="182.0" type="curve" smooth="yes"/>
      <point x="224.0" y="182.0"/>
      <point x="208.0" y="200.73873873873873"/>
      <point x="208.0" y="312.0" type="curve" smooth="yes"/>
      <point x="208.0" y="427.0769230769231"/>
      <point x="226.0" y="448.0"/>
      <point x="279.0" y="448.0" type="curve"/>
      <point x="322.0" y="448.0"/>
      <point x="340.0" y="447.0"/>
      <point x="376.0" y="444.0" type="curve"/>
      <point x="376.0" y="626.0" type="line"/>
      <point x="343.0" y="632.0"/>
      <point x="317.0" y="635.0"/>
      <point x="264.0" y="635.0" type="curve"/>
      <point x="95.0" y="635.0"/>
      <point x="8.0" y="547.875"/>
      <point x="8.0" y="312.0" type="curve" smooth="yes"/>
      <point x="8.0" y="38.7236842105263"/>
      <point x="94.0" y="-10.0"/>
      <point x="235.0" y="-10.0" type="curve" smooth="yes"/>
      <point x="312.0" y="-10.0"/>
      <point x="358.1876925721012" y="8.10010270512062"/>
      <point x="388.0" y="24.0" type="curve"/>
    </contour>
    <contour>
      <point x="242.0" y="647" type="move" name="top"/>
    </contour>
    <contour>
      <point x="228.0" y="0" type="move" name="bottom"/>
    </contour>
  </outline>
</glyph>
<glyph name="D" format="2">
  <advance width="476"/>
  <unicode hex="0044"/>
  <anchor x="213.0" y="637" name="top"/>
  <outline>
    <contour>
      <point x="41.0" y="454.0" type="line"/>
      <point x="219.0" y="454.0" type="line" smooth="yes"/>
      <point x="258.0" y="454.0"/>
      <point x="268.0" y="436.87857142857143"/>
      <point x="268.0" y="313.0" type="curve" smooth="yes"/>
      <point x="268.0" y="194.0"/>
      <point x="258.0" y="177.0"/>
      <point x="219.0" y="177.0" type="curve" smooth="yes"/>
      <point x="43.0" y="177.0" type="line"/>
      <point x="43.0" y="0.0" type="line"/>
      <point x="219.0" y="0.0" type="line" smooth="yes"/>
      <point x="382.0" y="0.0"/>
      <point x="468.0" y="83.0"/>
      <point x="468.0" y="313.0" type="curve" smooth="yes"/>
      <point x="468.0" y="571.0"/>
      <point x="381.0" y="625.0"/>
      <point x="219.0" y="625.0" type="curve" smooth="yes"/>
      <point x="41.0" y="625.0" type="line"/>
    </contour>
    <contour>
      <point x="210.0" y="0.0" type="line"/>
      <point x="210.0" y="625.0" type="line"/>
      <point x="17.0" y="625.0" type="line"/>
      <point x="17.0" y="0.0" type="line"/>
    </contour>
  </outline>
</glyph>
<glyph name="E" format="2">
  <advance width="390"/>
  <unicode hex="0045"/>
  <anchor x="203.0" y="637" name="top"/>
  <anchor x="376.0" y="0" name="ogonek"/>
  <outline>
    <contour>
      <point x="380.0" y="0.0" type="line"/>
      <point x="380.0" y="185.0" type="line"/>
      <point x="210.0" y="185.0" type="line"/>
      <point x="210.0" y="230.0" type="line"/>
      <point x="342.0" y="230.0" type="line"/>
      <point x="342.0" y="401.0" type="line"/>
      <point x="210.0" y="401.0" type="line"/>
      <point x="210.0" y="445.0" type="line"/>
      <point x="373.0" y="445.0" type="line"/>
      <point x="373.0" y="625.0" type="line"/>
      <point x="17.0" y="625.0" type="line"/>
      <point x="17.0" y="0.0" type="line"/>
    </contour>
  </outline>
</glyph>
<glyph name="F" format="2">
  <advance width="388"/>
  <unicode hex="0046"/>
  <outline>
    <contour>
      <point x="210.0" y="0.0" type="line"/>
      <point x="210.0" y="184.0" type="line"/>
      <point x="346.0" y="184.0" type="line"/>
      <point x="346.0" y="357.0" type="line"/>
      <point x="210.0" y="357.0" type="line"/>
      <point x="210.0" y="438.0" type="line"/>
      <point x="377.0" y="438.0" type="line"/>
      <point x="377.0" y="625.0" type="line"/>
      <point x="17.0" y="625.0" type="line"/>
      <point x="17.0" y="0.0" type="line"/>
    </contour>
  </outline>
</glyph>
<glyph name="G" format="1">
  <advance width="467.0"/>
  <unicode hex="0047"/>
  <outline>
    <contour>
      <point x="284.0" y="27.0" type="line"/>
      <point x="454.0" y="27.0" type="line"/>
      <point x="454.0" y="328.0" type="line"/>
      <point x="284.0" y="328.0" type="line"/>
    </contour>
    <contour>
      <point x="406.0" y="190.0" type="line"/>
      <point x="365.0" y="174.0"/>
      <point x="309.0" y="159.0"/>
      <point x="266.0" y="159.0" type="curve" smooth="yes"/>
      <point x="221.0" y="159.0"/>
      <point x="207.0" y="185.0"/>
      <point x="207.0" y="317.0" type="curve" smooth="yes"/>
      <point x="207.0" y="433.34965034965035"/>
      <point x="234.0" y="458.0"/>
      <point x="293.0" y="458.0" type="curve"/>
      <point x="344.0" y="458.0"/>
      <point x="379.0" y="456.0"/>
      <point x="427.0" y="452.0" type="curve"/>
      <point x="427.0" y="624.0" type="line"/>
      <point x="382.0" y="631.0"/>
      <point x="333.0" y="635.0"/>
      <point x="283.0" y="635.0" type="curve"/>
      <point x="102.0" y="635.0"/>
      <point x="8.0" y="549.4252491694352"/>
      <point x="8.0" y="317.0" type="curve" smooth="yes"/>
      <point x="8.0" y="53.49514563106794"/>
      <point x="98.0" y="-10.0"/>
      <point x="261.0" y="-10.0" type="curve"/>
      <point x="354.0" y="-10.0"/>
      <point x="409.16147991121886" y="9.064591964487544"/>
      <point x="454.0" y="27.0" type="curve"/>
    </contour>
    <contour>
      <point x="235.0" y="234.0" type="line"/>
      <point x="454.0" y="234.0" type="line"/>
      <point x="454.0" y="377.0" type="line"/>
      <point x="235.0" y="377.0" type="line"/>
    </contour>
    <contour>
      <point x="272.0" y="647" type="move" name="top"/>
    </contour>
    <contour>
      <point x="260.0" y="-10" type="move" name="bottom"/>
    </contour>
  </outline>
</glyph>
<glyph name="H" format="2">
  <advance width="491"/>
  <unicode hex="0048"/>
  <anchor x="245.0" y="637" name="top"/>
  <outline>
    <contour>
      <point x="17.0" y="0.0" type="line"/>
      <point x="210.0" y="0.0" type="line"/>
      <point x="210.0" y="625.0" type="line"/>
      <point x="17.0" y="625.0" type="line"/>
    </contour>
    <contour>
      <point x="281.0" y="0.0" type="line"/>
      <point x="474.0" y="0.0" type="line"/>
      <point x="474.0" y="625.0" type="line"/>
      <point x="281.0" y="625.0" type="line"/>
    </contour>
    <contour>
      <point x="140.0" y="224.0" type="line"/>
      <point x="376.0" y="224.0" type="line"/>
      <point x="376.0" y="410.0" type="line"/>
      <point x="140.0" y="410.0" type="line"/>
    </contour>
  </outline>
</glyph>
<glyph name="I" format="2">
  <advance width="227"/>
  <unicode hex="0049"/>
  <anchor x="113.0" y="637" name="top"/>
  <anchor x="209.0" y="0" name="ogonek"/>
  <outline>
    <contour>
      <point x="210.0" y="0.0" type="line"/>
      <point x="210.0" y="625.0" type="line"/>
      <point x="17.0" y="625.0" type="line"/>
      <point x="17.0" y="0.0" type="line"/>
    </contour>
  </outline>
</glyph>
<glyph name="J" format="2">
  <advance width="316"/>
  <unicode hex="004A"/>
  <anchor x="202.0" y="637" name="top"/>
  <outline>
    <contour>
      <point x="108.0" y="625.0" type="line"/>
      <point x="108.0" y="243.0" type="line" smooth="yes"/>
      <point x="108.0" y="195.0"/>
      <point x="96.0" y="182.0"/>
      <point x="56.0" y="182.0" type="curve"/>
      <point x="34.0" y="182.0"/>
      <point x="19.0" y="184.0"/>
      <point x="9.0" y="186.0" type="curve"/>
      <point x="9.0" y="0.0" type="line"/>
      <point x="26.0" y="-5.0"/>
      <point x="54.0" y="-10.0"/>
      <point x="103.0" y="-10.0" type="curve"/>
      <point x="245.0" y="-10.0"/>
      <point x="301.0" y="55.73387096774192"/>
      <point x="301.0" y="237.0" type="curve" smooth="yes"/>
      <point x="301.0" y="625.0" type="line"/>
    </contour>
  </outline>
</glyph>
<glyph name="K" format="2">
  <advance width="509"/>
  <unicode hex="004B"/>
  <anchor x="247.0" y="0" name="bottom"/>
  <outline>
    <contour>
      <point x="521.0" y="0.0" type="line"/>
      <point x="395.0" y="323.0" type="line"/>
      <point x="517.0" y="625.0" type="line"/>
      <point x="298.0" y="625.0" type="line"/>
      <point x="225.0" y="398.0" type="line"/>
      <point x="210.0" y="398.0" type="line"/>
      <point x="210.0" y="625.0" type="line"/>
      <point x="17.0" y="625.0" type="line"/>
      <point x="17.0" y="0.0" type="line"/>
      <point x="210.0" y="0.0" type="line"/>
      <point x="210.0" y="235.0" type="line"/>
      <point x="225.0" y="235.0" type="line"/>
      <point x="292.0" y="0.0" type="line"/>
    </contour>
  </outline>
</glyph>
<glyph name="L" format="2">
  <advance width="363"/>
  <unicode hex="004C"/>
  <anchor x="114.0" y="637" name="top"/>
  <anchor x="236.0" y="625" name="caronalt"/>
  <anchor x="192.0" y="0" name="bottom"/>
  <outline>
    <contour>
      <point x="354.0" y="0.0" type="line"/>
      <point x="354.0" y="193.0" type="line"/>
      <point x="210.0" y="193.0" type="line"/>
      <point x="210.0" y="625.0" type="line"/>
      <point x="17.0" y="625.0" type="line"/>
      <point x="17.0" y="0.0" type="line"/>
    </contour>
  </outline>
</glyph>
<glyph name="M" format="2">
  <advance width="608"/>
  <unicode hex="004D"/>
  <outline>
    <contour>
      <point x="591.0" y="0.0" type="line"/>
      <point x="591.0" y="625.0" type="line"/>
      <point x="367.0" y="625.0" type="line"/>
      <point x="306.0" y="378.0" type="line"/>
      <point x="250.0" y="625.0" type="line"/>
      <point x="17.0" y="625.0" type="line"/>
      <point x="17.0" y="0.0" type="line"/>
      <point x="197.0" y="0.0" type="line"/>
      <point x="197.0" y="326.0" type="line"/>
      <point x="239.0" y="117.0" type="line"/>
      <point x="365.0" y="117.0" type="line"/>
      <point x="411.0" y="326.0" type="line"/>
      <point x="411.0" y="0.0" type="line"/>
    </contour>
  </outline>
</glyph>
<glyph name="N" format="2">
  <advance width="503"/>
  <unicode hex="004E"/>
  <anchor x="257.0" y="637" name="top"/>
  <anchor x="246.0" y="0" name="bottom"/>
  <outline>
    <contour>
      <point x="486.0" y="0.0" type="line"/>
      <point x="486.0" y="625.0" type="line"/>
      <point x="312.0" y="625.0" type="line"/>
      <point x="312.0" y="344.0" type="line"/>
      <point x="199.0" y="625.0" type="line"/>
      <point x="17.0" y="625.0" type="line"/>
      <point x="17.0" y="0.0" type="line"/>
      <point x="192.0" y="0.0" type="line"/>
      <point x="192.0" y="291.0" type="line"/>
      <point x="302.0" y="0.0" type="line"/>
    </contour>
  </outline>
</glyph>
<glyph name="Q" format="2">
  <advance width="484"/>
  <unicode hex="0051"/>
  <outline>
    <contour>
      <point x="182.0" y="93.0" type="line"/>
      <point x="276.0" y="-128.0" type="line"/>
      <point x="484.0" y="-128.0" type="line"/>
      <point x="383.0" y="93.0" type="line"/>
    </contour>
    <component base="O"/>
  </outline>
</glyph>
<glyph name="R" format="2">
  <advance width="482"/>
  <unicode hex="0052"/>
  <anchor x="215.0" y="637" name="top"/>
  <anchor x="238.0" y="0" name="bottom"/>
  <outline>
    <contour>
      <point x="224.0" y="193.0" type="line"/>
      <point x="384.0" y="193.0"/>
      <point x="461.0" y="251.39024390243904"/>
      <point x="461.0" y="403.0" type="curve"/>
      <point x="461.0" y="567.7096774193549"/>
      <point x="392.0" y="625.0"/>
      <point x="222.0" y="625.0" type="curve" smooth="yes"/>
      <point x="154.0" y="625.0" type="line"/>
      <point x="154.0" y="451.0" type="line"/>
      <point x="236.0" y="451.0" type="line" smooth="yes"/>
      <point x="252.0" y="451.0"/>
      <point x="265.0" y="441.02173913043475"/>
      <point x="265.0" y="400.0" type="curve"/>
      <point x="265.0" y="350.8333333333333"/>
      <point x="253.0" y="341.0"/>
      <point x="236.0" y="341.0" type="curve" smooth="yes"/>
      <point x="154.0" y="341.0" type="line"/>
      <point x="154.0" y="193.0" type="line"/>
    </contour>
    <contour>
      <point x="210.0" y="0.0" type="line"/>
      <point x="210.0" y="625.0" type="line"/>
      <point x="17.0" y="625.0" type="line"/>
      <point x="17.0" y="0.0" type="line"/>
    </contour>
    <contour>
      <point x="201.0" y="244.0" type="line"/>
      <point x="278.0" y="0.0" type="line"/>
      <point x="487.0" y="0.0" type="line"/>
      <point x="386.0" y="244.0" type="line"/>
    </contour>
  </outline>
</glyph>
<glyph name="S" format="2">
  <advance width="406"/>
  <unicode hex="0053"/>
  <anchor x="205.0" y="645" name="top"/>
  <anchor x="188.0" y="-10" name="bottom"/>
  <outline>
    <contour>
      <point x="128.0" y="240.0" type="curve" smooth="yes"/>
      <point x="197.0" y="215.0" type="line" smooth="yes"/>
      <point x="210.0" y="210.0"/>
      <point x="213.0" y="206.0"/>
      <point x="213.0" y="194.0" type="curve"/>
      <point x="213.0" y="174.0"/>
      <point x="202.0" y="170.0"/>
      <point x="170.0" y="170.0" type="curve" smooth="yes"/>
      <point x="105.0" y="170.0"/>
      <point x="48.206900082294595" y="184.64750830361584"/>
      <point x="14.0" y="197.0" type="curve"/>
      <point x="14.0" y="14.0" type="line"/>
      <point x="42.0" y="2.0"/>
      <point x="119.0" y="-10.0"/>
      <point x="190.0" y="-10.0" type="curve" smooth="yes"/>
      <point x="376.0" y="-10.0"/>
      <point x="401.0" y="102.94444444444444"/>
      <point x="401.0" y="204.0" type="curve" smooth="yes"/>
      <point x="401.0" y="341.7417102966841"/>
      <point x="362.7920068638932" y="360.63921041420593"/>
      <point x="278.0" y="394.0" type="curve" smooth="yes"/>
      <point x="217.0" y="418.0" type="line" smooth="yes"/>
      <point x="204.0" y="423.0"/>
      <point x="202.0" y="427.0"/>
      <point x="202.0" y="437.0" type="curve"/>
      <point x="202.0" y="453.0"/>
      <point x="210.0" y="461.0"/>
      <point x="237.0" y="461.0" type="curve" smooth="yes"/>
      <point x="302.0" y="461.0"/>
      <point x="334.0" y="451.0"/>
      <point x="361.0" y="445.0" type="curve"/>
      <point x="361.0" y="617.0" type="line"/>
      <point x="332.0" y="627.0"/>
      <point x="278.0" y="635.0"/>
      <point x="207.0" y="635.0" type="curve" smooth="yes"/>
      <point x="76.0" y="635.0"/>
      <point x="10.0" y="572.5887850467288"/>
      <point x="10.0" y="423.0" type="curve" smooth="yes"/>
      <point x="10.0" y="295.4161849710983"/>
      <point x="64.0" y="263.0"/>
    </contour>
  </outline>
</glyph>
<glyph name="T" format="2">
  <advance width="427"/>
  <unicode hex="0054"/>
  <anchor x="214.0" y="637" name="top"/>
  <anchor x="214.0" y="0" name="bottom"/>
  <outline>
    <contour>
      <point x="418.0" y="438.0" type="line"/>
      <point x="418.0" y="625.0" type="line"/>
      <point x="9.0" y="625.0" type="line"/>
      <point x="9.0" y="438.0" type="line"/>
      <point x="117.0" y="438.0" type="line"/>
      <point x="117.0" y="0.0" type="line"/>
      <point x="310.0" y="0.0" type="line"/>
      <point x="310.0" y="438.0" type="line"/>
    </contour>
  </outline>
</glyph>
<glyph name="U" format="2">
  <advance width="510"/>
  <unicode hex="0055"/>
  <anchor x="256.0" y="637.0" name="top"/>
  <anchor x="413.0" y="40.0" name="ogonekalt"/>
  <outline>
    <contour>
      <point x="303.0" y="625.0" type="line"/>
      <point x="303.0" y="271.0" type="line" smooth="yes"/>
      <point x="303.0" y="200.0"/>
      <point x="294.0" y="176.0"/>
      <point x="256.0" y="176.0" type="curve"/>
      <point x="215.0" y="176.0"/>
      <point x="207.0" y="199.0"/>
      <point x="207.0" y="271.0" type="curve" smooth="yes"/>
      <point x="207.0" y="625.0" type="line"/>
      <point x="14.0" y="625.0" type="line"/>
      <point x="14.0" y="270.0" type="line" smooth="yes"/>
      <point x="14.0" y="78.36879432624113"/>
      <point x="83.0" y="-10.0"/>
      <point x="257.0" y="-10.0" type="curve"/>
      <point x="406.0" y="-10.0"/>
      <point x="496.0" y="79.0"/>
      <point x="496.0" y="270.0" type="curve" smooth="yes"/>
      <point x="496.0" y="625.0" type="line"/>
    </contour>
  </outline>
</glyph>
<glyph name="V" format="1">
  <advance width="527.0"/>
  <unicode hex="0056"/>
  <outline>
    <contour>
      <point x="533.0" y="625.0" type="line"/>
      <point x="332.0" y="625.0" type="line"/>
      <point x="279.0" y="285.0" type="line" smooth="yes"/>
      <point x="272.0" y="237.0"/>
      <point x="257.0" y="88.0"/>
      <point x="244.0" y="0.0" type="curve"/>
      <point x="391.0" y="0.0" type="line"/>
    </contour>
    <contour>
      <point x="-6.0" y="625.0" type="line"/>
      <point x="138.0" y="0.0" type="line"/>
      <point x="294.0" y="0.0" type="line"/>
      <point x="280.0" y="94.0"/>
      <point x="265.0" y="237.0"/>
      <point x="257.0" y="286.0" type="curve" smooth="yes"/>
      <point x="201.0" y="625.0" type="line"/>
    </contour>
  </outline>
</glyph>
<glyph name="W" format="1">
  <advance width="696.0"/>
  <unicode hex="0057"/>
  <outline>
    <contour>
      <point x="375.0" y="625.0" type="curve"/>
      <point x="259.0" y="625.0" type="line"/>
      <point x="237.0" y="366.0" type="line" smooth="yes"/>
      <point x="232.0" y="305.0"/>
      <point x="208.0" y="86.0"/>
      <point x="207.0" y="0.0" type="curve"/>
      <point x="303.0" y="0.0" type="line"/>
      <point x="324.0" y="158.0" type="line" smooth="yes"/>
      <point x="345.3887998348927" y="318.92525590062144"/>
      <point x="373.95759370102326" y="523.8865889992572"/>
    </contour>
    <contour>
      <point x="-5.0" y="625.0" type="line"/>
      <point x="104.0" y="0.0" type="line"/>
      <point x="246.0" y="0.0" type="line"/>
      <point x="242.00172514073802" y="91.96032176302568"/>
      <point x="225.5774878385866" y="305.1801814672014"/>
      <point x="218.0" y="368.0" type="curve" smooth="yes"/>
      <point x="187.0" y="625.0" type="line"/>
    </contour>
    <contour>
      <point x="700.0" y="625.0" type="line"/>
      <point x="515.0" y="625.0" type="line"/>
      <point x="486.0" y="366.0" type="line" smooth="yes"/>
      <point x="479.2994227183923" y="306.1569132435724"/>
      <point x="461.9992386034949" y="90.97690430601257"/>
      <point x="459.0" y="0.0" type="curve"/>
      <point x="593.0" y="0.0" type="line"/>
    </contour>
    <contour>
      <point x="321.0" y="625.0" type="line"/>
      <point x="325.16935481967545" y="524.9354843277889"/>
      <point x="350.6112001651073" y="318.92525590062144"/>
      <point x="372.0" y="158.0" type="curve" smooth="yes"/>
      <point x="393.0" y="0.0" type="line"/>
      <point x="499.0" y="0.0" type="line"/>
      <point x="495.0" y="92.0"/>
      <point x="473.0" y="305.0"/>
      <point x="467.0" y="368.0" type="curve" smooth="yes"/>
      <point x="443.0" y="625.0" type="line"/>
    </contour>
    <contour>
      <point x="348.0" y="637" type="move" name="top"/>
    </contour>
  </outline>
</glyph>
<glyph name="X" format="2">
  <advance width="519"/>
  <unicode hex="0058"/>
  <anchor x="271.0" y="637" name="top"/>
  <outline>
    <contour>
      <point x="533.0" y="0.0" type="line"/>
      <point x="376.0" y="326.0" type="line"/>
      <point x="516.0" y="625.0" type="line"/>
      <point x="313.0" y="625.0" type="line"/>
      <point x="275.0" y="474.0" type="line"/>
      <point x="235.0" y="625.0" type="line"/>
      <point x="-2.0" y="625.0" type="line"/>
      <point x="147.0" y="318.0" type="line"/>
      <point x="-14.0" y="0.0" type="line"/>
      <point x="196.0" y="0.0" type="line"/>
      <point x="245.0" y="175.0" type="line"/>
      <point x="298.0" y="0.0" type="line"/>
    </contour>
  </outline>
</glyph>
<glyph name="Y" format="2">
  <advance width="516"/>
  <unicode hex="0059"/>
  <anchor x="263.0" y="637" name="top"/>
  <outline>
    <contour>
      <point x="521.0" y="625.0" type="line"/>
      <point x="324.0" y="625.0" type="line"/>
      <point x="264.0" y="397.0" type="line"/>
      <point x="211.0" y="625.0" type="line"/>
      <point x="-6.0" y="625.0" type="line"/>
      <point x="163.0" y="201.0" type="line"/>
      <point x="163.0" y="0.0" type="line"/>
      <point x="356.0" y="0.0" type="line"/>
      <point x="356.0" y="201.0" type="line"/>
    </contour>
  </outline>
</glyph>
<glyph name="Z" format="2">
  <advance width="405"/>
  <unicode hex="005A"/>
  <anchor x="210.0" y="637" name="top"/>
  <outline>
    <contour>
      <point x="399.0" y="0.0" type="line"/>
      <point x="399.0" y="188.0" type="line"/>
      <point x="224.0" y="188.0" type="line"/>
      <point x="383.0" y="448.0" type="line"/>
      <point x="383.0" y="625.0" type="line"/>
      <point x="30.0" y="625.0" type="line"/>
      <point x="30.0" y="443.0" type="line"/>
      <point x="165.0" y="443.0" type="line"/>
      <point x="6.0" y="183.0" type="line"/>
      <point x="6.0" y="0.0" type="line"/>
    </contour>
  </outline>
</glyph>
<glyph name="backslash" format="1">
  <advance width="304.0"/>
  <unicode hex="005C"/>
  <outline>
    <contour>
      <point x="299.0" y="-80.0" type="line"/>
      <point x="111.0" y="705.0" type="line"/>
      <point x="4.0" y="705.0" type="line"/>
      <point x="192.0" y="-80.0" type="line"/>
    </contour>
  </outline>
</glyph>
<glyph name="asciicircum" format="2">
  <advance width="500"/>
  <unicode hex="005E"/>
  <outline>
    <contour>
      <point x="281.0" y="365.0" type="line"/>
      <point x="413.0" y="365.0" type="line"/>
      <point x="317.0" y="627.0" type="line"/>
      <point x="204.0" y="627.0" type="line"/>
    </contour>
    <contour>
      <point x="87.0" y="365.0" type="line"/>
      <point x="216.0" y="365.0" type="line"/>
      <point x="294.0" y="627.0" type="line"/>
      <point x="182.0" y="627.0" type="line"/>
    </contour>
  </outline>
</glyph>
<glyph name="grave" format="2">
  <advance width="351"/>
  <unicode hex="0060"/>
  <anchor x="212" y="530" name="_top"/>
  <outline>
    <contour>
      <point x="68.0" y="635.0" type="line"/>
      <point x="174.0" y="530.0" type="line"/>
      <point x="315.0" y="530.0" type="line"/>
      <point x="246.0" y="635.0" type="line"/>
    </contour>
  </outline>
</glyph>
<glyph name="a" format="1">
  <advance width="406.0"/>
  <unicode hex="0061"/>
  <outline>
    <contour>
      <point x="5.0" y="146.0" type="curve"/>
      <point x="5.0" y="38.37974683544303"/>
      <point x="36.0" y="-10.0"/>
      <point x="107.0" y="-10.0" type="curve"/>
      <point x="173.0" y="-10.0"/>
      <point x="201.4593145154602" y="27.520556450854876"/>
      <point x="231.0" y="61.0" type="curve"/>
      <point x="231.0" y="152.0" type="line"/>
      <point x="225.0" y="144.0"/>
      <point x="205.0" y="129.0"/>
      <point x="187.0" y="129.0" type="curve"/>
      <point x="169.0" y="129.0"/>
      <point x="166.0" y="139.0"/>
      <point x="166.0" y="162.0" type="curve" smooth="yes"/>
      <point x="166.0" y="185.0"/>
      <point x="172.0" y="194.0"/>
      <point x="188.0" y="194.0" type="curve"/>
      <point x="200.0" y="194.0"/>
      <point x="218.0" y="191.0"/>
      <point x="228.0" y="184.0" type="curve"/>
      <point x="228.0" y="290.0" type="line"/>
      <point x="210.0" y="297.0"/>
      <point x="180.0" y="303.0"/>
      <point x="144.0" y="303.0" type="curve"/>
      <point x="54.0" y="303.0"/>
      <point x="5.0" y="253.0"/>
    </contour>
    <contour>
      <point x="217.0" y="0.0" type="line"/>
      <point x="394.0" y="0.0" type="line"/>
      <point x="394.0" y="341.0" type="line" smooth="yes"/>
      <point x="394.0" y="452.0"/>
      <point x="340.0" y="504.0"/>
      <point x="212.0" y="504.0" type="curve"/>
      <point x="151.0" y="504.0"/>
      <point x="86.0" y="498.0"/>
      <point x="40.0" y="486.0" type="curve"/>
      <point x="40.0" y="321.0" type="line"/>
      <point x="72.0" y="326.0"/>
      <point x="99.0" y="331.0"/>
      <point x="144.0" y="331.0" type="curve" smooth="yes"/>
      <point x="197.0" y="331.0"/>
      <point x="207.0" y="320.0"/>
      <point x="207.0" y="297.0" type="curve" smooth="yes"/>
      <point x="207.0" y="38.0" type="line"/>
      <point x="213.0" y="38.0" type="line"/>
    </contour>
    <contour>
      <point x="214.0" y="520" type="move" name="top"/>
    </contour>
    <contour>
      <point x="394.0" y="0" type="move" name="ogonek"/>
    </contour>
  </outline>
</glyph>
<glyph name="b" format="2">
  <advance width="448"/>
  <unicode hex="0062"/>
  <outline>
    <contour>
      <point x="13.0" y="18.0" type="line"/>
      <point x="200.0" y="6.0" type="line"/>
      <point x="200.0" y="625.0" type="line"/>
      <point x="13.0" y="625.0" type="line"/>
    </contour>
    <contour>
      <point x="156.0" y="299.0" type="line"/>
      <point x="178.4846495450869" y="307.99385981803476"/>
      <point x="193.71428571428572" y="333.0"/>
      <point x="228.0" y="333.0" type="curve"/>
      <point x="248.0" y="333.0"/>
      <point x="254.0" y="321.0"/>
      <point x="254.0" y="252.0" type="curve" smooth="yes"/>
      <point x="254.0" y="180.0"/>
      <point x="248.0" y="165.0"/>
      <point x="226.0" y="165.0" type="curve"/>
      <point x="183.11428571428573" y="165.0"/>
      <point x="154.2708483201149" y="179.574381211248"/>
      <point x="147.0" y="191.0" type="curve"/>
      <point x="13.0" y="18.0" type="line"/>
      <point x="71.70341513167372" y="-0.5379205678969576"/>
      <point x="146.05263157894737" y="-10.0"/>
      <point x="250.0" y="-10.0" type="curve" smooth="yes"/>
      <point x="384.0" y="-10.0"/>
      <point x="441.0" y="70.0"/>
      <point x="441.0" y="252.0" type="curve"/>
      <point x="441.0" y="435.0"/>
      <point x="408.0" y="504.0"/>
      <point x="302.0" y="504.0" type="curve"/>
      <point x="228.46715328467153" y="504.0"/>
      <point x="166.20663809359885" y="461.30995714039824"/>
      <point x="156.0" y="446.0" type="curve"/>
    </contour>
  </outline>
</glyph>
<glyph name="c" format="2">
  <advance width="329"/>
  <unicode hex="0063"/>
  <anchor x="204.0" y="520" name="top"/>
  <anchor x="181.0" y="0" name="bottom"/>
  <outline>
    <contour>
      <point x="324.0" y="26.0" type="curve"/>
      <point x="324.0" y="186.0" type="line"/>
      <point x="309.0" y="181.0"/>
      <point x="275.0" y="171.0"/>
      <point x="241.0" y="171.0" type="curve"/>
      <point x="205.0" y="171.0"/>
      <point x="194.0" y="186.0"/>
      <point x="194.0" y="246.0" type="curve" smooth="yes"/>
      <point x="194.0" y="315.0"/>
      <point x="203.0" y="328.0"/>
      <point x="234.0" y="328.0" type="curve"/>
      <point x="269.81333333333333" y="328.0"/>
      <point x="292.0" y="326.0"/>
      <point x="313.0" y="324.0" type="curve"/>
      <point x="313.0" y="495.0" type="line"/>
      <point x="295.0" y="498.0"/>
      <point x="251.0" y="504.0"/>
      <point x="215.0" y="504.0" type="curve"/>
      <point x="58.0" y="504.0"/>
      <point x="7.0" y="436.0"/>
      <point x="7.0" y="246.0" type="curve" smooth="yes"/>
      <point x="7.0" y="57.47286821705427"/>
      <point x="51.0" y="-10.0"/>
      <point x="173.0" y="-10.0" type="curve" smooth="yes"/>
      <point x="240.0" y="-10.0"/>
      <point x="303.09053892752314" y="9.073293417518752"/>
    </contour>
  </outline>
</glyph>
<glyph name="d" format="1">
  <advance width="449.0"/>
  <unicode hex="0064"/>
  <outline>
    <contour>
      <point x="435.0" y="625.0" type="line"/>
      <point x="248.0" y="625.0" type="line"/>
      <point x="248.0" y="44.0" type="line"/>
      <point x="260.0" y="44.0" type="line"/>
      <point x="270.0" y="0.0" type="line"/>
      <point x="435.0" y="0.0" type="line"/>
    </contour>
    <contour>
      <point x="303.0" y="208.0" type="line"/>
      <point x="286.0" y="195.0"/>
      <point x="259.0" y="165.0"/>
      <point x="221.0" y="165.0" type="curve" smooth="yes"/>
      <point x="202.0" y="165.0"/>
      <point x="194.0" y="177.0"/>
      <point x="194.0" y="247.0" type="curve"/>
      <point x="194.0" y="320.0"/>
      <point x="203.0" y="333.0"/>
      <point x="223.0" y="333.0" type="curve"/>
      <point x="257.0" y="333.0"/>
      <point x="279.0" y="322.0"/>
      <point x="292.0" y="310.0" type="curve"/>
      <point x="321.0" y="441.0" type="line"/>
      <point x="312.0" y="486.0"/>
      <point x="241.0" y="504.0"/>
      <point x="177.0" y="504.0" type="curve"/>
      <point x="63.0" y="504.0"/>
      <point x="7.0" y="429.0"/>
      <point x="7.0" y="246.0" type="curve"/>
      <point x="7.0" y="67.0"/>
      <point x="42.0" y="-10.0"/>
      <point x="144.0" y="-10.0" type="curve"/>
      <point x="246.0" y="-10.0"/>
      <point x="278.0" y="61.0"/>
      <point x="300.0" y="162.0" type="curve"/>
    </contour>
    <contour>
      <point x="456.0" y="625" type="move" name="caronalt"/>
    </contour>
  </outline>
</glyph>
<glyph name="e" format="1">
  <advance width="405.0"/>
  <unicode hex="0065"/>
  <outline>
    <contour>
      <point x="213.0" y="358.0" type="curve"/>
      <point x="231.0" y="358.0"/>
      <point x="234.0" y="344.0"/>
      <point x="234.0" y="319.0" type="curve" smooth="yes"/>
      <point x="234.0" y="310.0"/>
      <point x="234.0" y="301.22727272727275"/>
      <point x="234.0" y="296.0" type="curve"/>
      <point x="190.0" y="296.0" type="line"/>
      <point x="190.0" y="336.0"/>
      <point x="190.0" y="358.0"/>
    </contour>
    <contour>
      <point x="380.0" y="25.0" type="curve"/>
      <point x="380.0" y="177.0" type="line"/>
      <point x="361.0" y="172.0"/>
      <point x="299.0" y="161.0"/>
      <point x="229.0" y="161.0" type="curve"/>
      <point x="197.0" y="161.0"/>
      <point x="190.0" y="168.6153846153846"/>
      <point x="190.0" y="194.0" type="curve"/>
      <point x="394.0" y="194.0" type="line"/>
      <point x="397.14459334427505" y="230.68692234987577"/>
      <point x="398.0" y="254.81553398058253"/>
      <point x="398.0" y="302.0" type="curve" smooth="yes"/>
      <point x="398.0" y="435.0"/>
      <point x="361.0" y="504.0"/>
      <point x="209.0" y="504.0" type="curve"/>
      <point x="68.0" y="504.0"/>
      <point x="7.0" y="421.0"/>
      <point x="7.0" y="245.0" type="curve" smooth="yes"/>
      <point x="7.0" y="66.69921875"/>
      <point x="60.0" y="-10.0"/>
      <point x="199.0" y="-10.0" type="curve"/>
      <point x="294.0" y="-10.0"/>
      <point x="360.0" y="11.0"/>
    </contour>
    <contour>
      <point x="209.0" y="520" type="move" name="top"/>
    </contour>
    <contour>
      <point x="349.0" y="11" type="move" name="ogonekalt"/>
    </contour>
  </outline>
</glyph>
<glyph name="f" format="2">
  <advance width="298"/>
  <unicode hex="0066"/>
  <outline>
    <contour>
      <point x="309.0" y="625.0" type="line"/>
      <point x="296.0" y="628.0"/>
      <point x="263.0" y="635.0"/>
      <point x="200.0" y="635.0" type="curve" smooth="yes"/>
      <point x="99.0" y="635.0"/>
      <point x="41.0" y="587.0"/>
      <point x="41.0" y="489.0" type="curve"/>
      <point x="41.0" y="0.0" type="line"/>
      <point x="228.0" y="0.0" type="line"/>
      <point x="228.0" y="458.0" type="line" smooth="yes"/>
      <point x="228.0" y="486.0"/>
      <point x="235.0" y="490.0"/>
      <point x="261.0" y="490.0" type="curve"/>
      <point x="276.0" y="490.0"/>
      <point x="300.0" y="487.0"/>
      <point x="309.0" y="485.0" type="curve"/>
    </contour>
    <contour>
      <point x="7.0" y="296.0" type="line"/>
      <point x="296.0" y="296.0" type="line"/>
      <point x="296.0" y="454.0" type="line"/>
      <point x="7.0" y="454.0" type="line"/>
    </contour>
  </outline>
</glyph>
<glyph name="g" format="2">
  <advance width="442"/>
  <unicode hex="0067"/>
  <anchor x="227.0" y="520" name="top"/>
  <outline>
    <contour>
      <point x="52.0" y="-136.0" type="line"/>
      <point x="81.0" y="-148.0"/>
      <point x="138.0" y="-162.0"/>
      <point x="211.0" y="-162.0" type="curve"/>
      <point x="370.0" y="-162.0"/>
      <point x="429.0" y="-94.0"/>
      <point x="429.0" y="109.0" type="curve" smooth="yes"/>
      <point x="429.0" y="485.0" type="line"/>
      <point x="242.0" y="485.0" type="line"/>
      <point x="242.0" y="48.0" type="line"/>
      <point x="238.99479317761543" y="9.934046916461952"/>
      <point x="228.0" y="2.0"/>
      <point x="188.0" y="2.0" type="curve"/>
      <point x="127.8639455782313" y="2.0"/>
      <point x="70.74473435513117" y="11.376579693460648"/>
      <point x="52.0" y="17.0" type="curve"/>
    </contour>
    <contour>
      <point x="292.0" y="241.0" type="line"/>
      <point x="271.56957989361194" y="229.3254742249211"/>
      <point x="238.9879518072289" y="210.0"/>
      <point x="212.0" y="210.0" type="curve" smooth="yes"/>
      <point x="191.0" y="210.0"/>
      <point x="187.0" y="222.0"/>
      <point x="187.0" y="270.0" type="curve" smooth="yes"/>
      <point x="187.0" y="326.0"/>
      <point x="192.0" y="336.0"/>
      <point x="218.0" y="336.0" type="curve"/>
      <point x="255.35211267605635" y="336.0"/>
      <point x="264.81502636815236" y="324.0880826818322"/>
      <point x="286.0" y="314.0" type="curve"/>
      <point x="429.0" y="485.0" type="line"/>
      <point x="394.4727533290822" y="492.8919420962098"/>
      <point x="289.01895734597156" y="504.0"/>
      <point x="221.0" y="504.0" type="curve" smooth="yes"/>
      <point x="67.0" y="504.0"/>
      <point x="6.0" y="436.0"/>
      <point x="6.0" y="269.0" type="curve" smooth="yes"/>
      <point x="6.0" y="101.0"/>
      <point x="50.0" y="45.0"/>
      <point x="149.0" y="45.0" type="curve" smooth="yes"/>
      <point x="202.86986301369865" y="45.0"/>
      <point x="259.46793612779084" y="76.3119574185272"/>
      <point x="292.0" y="98.0" type="curve"/>
    </contour>
  </outline>
</glyph>
<glyph name="i" format="2">
  <advance width="215"/>
  <unicode hex="0069"/>
  <anchor x="201.0" y="0" name="ogonek"/>
  <outline>
    <contour>
      <point x="14.0" y="0.0" type="line"/>
      <point x="201.0" y="0.0" type="line"/>
      <point x="201.0" y="494.0" type="line"/>
      <point x="14.0" y="494.0" type="line"/>
    </contour>
    <contour>
      <point x="12.0" y="520.0" type="line"/>
      <point x="203.0" y="520.0" type="line"/>
      <point x="203.0" y="625.0" type="line"/>
      <point x="12.0" y="625.0" type="line"/>
    </contour>
  </outline>
</glyph>
<glyph name="k" format="1">
  <advance width="453.0"/>
  <unicode hex="006B"/>
  <outline>
    <contour>
      <point x="243.0" y="0.0" type="line"/>
      <point x="454.0" y="0.0" type="line"/>
      <point x="382.0" y="257.0" type="line"/>
      <point x="193.0" y="249.0" type="line"/>
    </contour>
    <contour>
      <point x="240.0" y="494.0" type="line"/>
      <point x="193.0" y="249.0" type="line"/>
      <point x="382.0" y="257.0" type="line"/>
      <point x="446.0" y="494.0" type="line"/>
    </contour>
    <contour>
      <point x="121.0" y="179.0" type="line"/>
      <point x="310.0" y="179.0" type="line"/>
      <point x="310.0" y="322.0" type="line"/>
      <point x="121.0" y="322.0" type="line"/>
    </contour>
    <component base="l"/>
    <contour>
      <point x="221.0" y="0" type="move" name="bottom"/>
    </contour>
  </outline>
</glyph>
<glyph name="l" format="2">
  <advance width="215"/>
  <unicode hex="006C"/>
  <anchor x="108.0" y="637" name="top"/>
  <anchor x="221.0" y="625" name="caronalt"/>
  <anchor x="108.0" y="0" name="bottom"/>
  <outline>
    <contour>
      <point x="201.0" y="0.0" type="line"/>
      <point x="201.0" y="625.0" type="line"/>
      <point x="14.0" y="625.0" type="line"/>
      <point x="14.0" y="0.0" type="line"/>
    </contour>
  </outline>
</glyph>
<glyph name="m" format="2">
  <advance width="642"/>
  <unicode hex="006D"/>
  <outline>
    <contour>
      <point x="14.0" y="0.0" type="line"/>
      <point x="201.0" y="0.0" type="line"/>
      <point x="201.0" y="374.0" type="line"/>
      <point x="175.0" y="494.0" type="line"/>
      <point x="14.0" y="494.0" type="line"/>
    </contour>
    <contour>
      <point x="168.0" y="306.0" type="line"/>
      <point x="180.0" y="317.0"/>
      <point x="194.0" y="333.0"/>
      <point x="217.0" y="333.0" type="curve" smooth="yes"/>
      <point x="227.0" y="333.0"/>
      <point x="229.0" y="325.6666666666667"/>
      <point x="229.0" y="313.0" type="curve" smooth="yes"/>
      <point x="229.0" y="0.0" type="line"/>
      <point x="416.0" y="0.0" type="line"/>
      <point x="416.0" y="342.0" type="line" smooth="yes"/>
      <point x="416.0" y="451.0"/>
      <point x="377.0" y="504.0"/>
      <point x="301.0" y="504.0" type="curve" smooth="yes"/>
      <point x="256.39473684210526" y="504.0"/>
      <point x="219.12198257111893" y="486.1377222577149"/>
      <point x="188.0" y="451.0" type="curve"/>
      <point x="168.0" y="451.0" type="line"/>
    </contour>
    <contour>
      <point x="383.0" y="306.0" type="line"/>
      <point x="394.0" y="317.0"/>
      <point x="409.0" y="333.0"/>
      <point x="432.0" y="333.0" type="curve" smooth="yes"/>
      <point x="442.0" y="333.0"/>
      <point x="443.0" y="325.6666666666667"/>
      <point x="443.0" y="313.0" type="curve" smooth="yes"/>
      <point x="443.0" y="0.0" type="line"/>
      <point x="630.0" y="0.0" type="line"/>
      <point x="630.0" y="367.0" type="line" smooth="yes"/>
      <point x="630.0" y="459.0"/>
      <point x="591.0" y="504.0"/>
      <point x="515.0" y="504.0" type="curve" smooth="yes"/>
      <point x="470.62068965517244" y="504.0"/>
      <point x="431.13830131845475" y="485.1424922674988"/>
      <point x="398.0" y="451.0" type="curve"/>
      <point x="383.0" y="451.0" type="line"/>
    </contour>
  </outline>
</glyph>
<glyph name="n" format="1">
  <advance width="430.0"/>
  <unicode hex="006E"/>
  <outline>
    <contour>
      <point x="14.0" y="0.0" type="line"/>
      <point x="201.0" y="0.0" type="line"/>
      <point x="201.0" y="441.0" type="line"/>
      <point x="182.0" y="441.0" type="line"/>
      <point x="176.0" y="494.0" type="line"/>
      <point x="14.0" y="494.0" type="line"/>
    </contour>
    <contour>
      <point x="167.0" y="305.0" type="line"/>
      <point x="179.0" y="317.0"/>
      <point x="196.0" y="333.0"/>
      <point x="216.0" y="333.0" type="curve" smooth="yes"/>
      <point x="228.0" y="333.0"/>
      <point x="231.0" y="325.0"/>
      <point x="231.0" y="311.0" type="curve" smooth="yes"/>
      <point x="231.0" y="0.0" type="line"/>
      <point x="418.0" y="0.0" type="line"/>
      <point x="418.0" y="373.0" type="line" smooth="yes"/>
      <point x="418.0" y="461.0"/>
      <point x="375.0" y="504.0"/>
      <point x="307.0" y="504.0" type="curve"/>
      <point x="242.0" y="504.0"/>
      <point x="203.44815948018442" y="468.17969652459846"/>
      <point x="167.0" y="414.0" type="curve"/>
    </contour>
    <contour>
      <point x="216.0" y="520" type="move" name="top"/>
    </contour>
    <contour>
      <point x="-128.0" y="665" type="move" name="caronalt"/>
    </contour>
    <contour>
      <point x="215.0" y="0" type="move" name="bottom"/>
    </contour>
  </outline>
</glyph>
<glyph name="o" format="2">
  <advance width="442"/>
  <unicode hex="006F"/>
  <anchor x="221.0" y="520" name="top"/>
  <outline>
    <contour>
      <point x="221.0" y="-10.0" type="curve"/>
      <point x="373.5740740740741" y="-10.0"/>
      <point x="435.0" y="52.0"/>
      <point x="435.0" y="246.0" type="curve"/>
      <point x="435.0" y="438.0"/>
      <point x="369.6111111111111" y="504.0"/>
      <point x="221.0" y="504.0" type="curve"/>
      <point x="68.42592592592592" y="504.0"/>
      <point x="7.0" y="442.0"/>
      <point x="7.0" y="246.0" type="curve"/>
      <point x="7.0" y="55.0"/>
      <point x="72.38888888888889" y="-10.0"/>
    </contour>
    <contour>
      <point x="221.0" y="165.0" type="curve"/>
      <point x="198.0" y="165.0"/>
      <point x="194.0" y="179.0"/>
      <point x="194.0" y="249.0" type="curve"/>
      <point x="194.0" y="319.0"/>
      <point x="198.0" y="333.0"/>
      <point x="221.0" y="333.0" type="curve"/>
      <point x="244.0" y="333.0"/>
      <point x="248.0" y="319.0"/>
      <point x="248.0" y="249.0" type="curve"/>
      <point x="248.0" y="179.0"/>
      <point x="244.0" y="165.0"/>
    </contour>
  </outline>
</glyph>
<glyph name="p" format="2">
  <advance width="449"/>
  <unicode hex="0070"/>
  <outline>
    <contour>
      <point x="14.0" y="-152.0" type="line"/>
      <point x="201.0" y="-152.0" type="line"/>
      <point x="201.0" y="447.0" type="line"/>
      <point x="188.0" y="447.0" type="line"/>
      <point x="179.0" y="494.0" type="line"/>
      <point x="14.0" y="494.0" type="line"/>
    </contour>
    <contour>
      <point x="155.0" y="290.0" type="line"/>
      <point x="170.0" y="302.0"/>
      <point x="195.0" y="333.0"/>
      <point x="228.0" y="333.0" type="curve" smooth="yes"/>
      <point x="247.0" y="333.0"/>
      <point x="255.0" y="319.0"/>
      <point x="255.0" y="248.0" type="curve"/>
      <point x="255.0" y="177.0"/>
      <point x="244.0" y="165.0"/>
      <point x="226.0" y="165.0" type="curve"/>
      <point x="195.0" y="165.0"/>
      <point x="177.0" y="177.0"/>
      <point x="166.0" y="188.0" type="curve"/>
      <point x="136.0" y="54.0" type="line"/>
      <point x="145.0" y="8.0"/>
      <point x="212.0" y="-10.0"/>
      <point x="272.0" y="-10.0" type="curve" smooth="yes"/>
      <point x="387.0" y="-10.0"/>
      <point x="442.0" y="64.70930232558138"/>
      <point x="442.0" y="247.0" type="curve"/>
      <point x="442.0" y="426.3023255813954"/>
      <point x="411.0" y="504.0"/>
      <point x="307.0" y="504.0" type="curve"/>
      <point x="218.0" y="504.0"/>
      <point x="174.8654086980219" y="446.35396175050505"/>
      <point x="150.0" y="327.0" type="curve"/>
    </contour>
  </outline>
</glyph>
<glyph name="q" format="1">
  <advance width="448.0"/>
  <unicode hex="0071"/>
  <outline>
    <contour>
      <point x="435.0" y="-152.0" type="line"/>
      <point x="435.0" y="485.0" type="line"/>
      <point x="248.0" y="485.0" type="line"/>
      <point x="248.0" y="-152.0" type="line"/>
    </contour>
    <contour>
      <point x="292.0" y="202.0" type="line"/>
      <point x="279.14514651077087" y="190.21638430153993"/>
      <point x="255.47826086956522" y="165.0"/>
      <point x="222.0" y="165.0" type="curve" smooth="yes"/>
      <point x="203.0" y="165.0"/>
      <point x="194.0" y="176.0"/>
      <point x="194.0" y="247.0" type="curve" smooth="yes"/>
      <point x="194.0" y="322.0"/>
      <point x="206.0" y="333.0"/>
      <point x="224.0" y="333.0" type="curve"/>
      <point x="254.53571428571428" y="333.0"/>
      <point x="270.08027825929184" y="323.82774956663735"/>
      <point x="281.0" y="314.0" type="curve"/>
      <point x="434.0" y="485.0" type="line"/>
      <point x="358.33610434684647" y="497.4379006553129"/>
      <point x="271.0" y="504.0"/>
      <point x="220.0" y="504.0" type="curve" smooth="yes"/>
      <point x="73.0" y="504.0"/>
      <point x="7.0" y="429.29182879377436"/>
      <point x="7.0" y="248.0" type="curve" smooth="yes"/>
      <point x="7.0" y="66.0"/>
      <point x="43.0" y="-10.0"/>
      <point x="148.0" y="-10.0" type="curve" smooth="yes"/>
      <point x="241.59615384615384" y="-10.0"/>
      <point x="281.9126511245293" y="41.680986715672304"/>
      <point x="305.0" y="126.0" type="curve"/>
    </contour>
  </outline>
</glyph>
<glyph name="r" format="1">
  <advance width="299.0"/>
  <unicode hex="0072"/>
  <outline>
    <contour>
      <point x="14.0" y="0.0" type="line"/>
      <point x="201.0" y="0.0" type="line"/>
      <point x="201.0" y="415.0" type="line"/>
      <point x="189.0" y="494.0" type="line"/>
      <point x="14.0" y="494.0" type="line"/>
    </contour>
    <contour>
      <point x="186.0" y="300.0" type="line"/>
      <point x="205.39053455139077" y="310.7725191952171"/>
      <point x="225.0" y="322.0"/>
      <point x="263.0" y="322.0" type="curve" smooth="yes"/>
      <point x="278.0" y="322.0"/>
      <point x="288.9837659665725" y="320.6720780111425"/>
      <point x="294.0" y="319.0" type="curve"/>
      <point x="294.0" y="503.0" type="line"/>
      <point x="285.7404434507509" y="503.9177285054721"/>
      <point x="280.25" y="504.0"/>
      <point x="272.0" y="504.0" type="curve"/>
      <point x="235.0" y="504.0"/>
      <point x="211.09441273077786" y="478.15977539054717"/>
      <point x="198.0" y="456.0" type="curve"/>
      <point x="186.0" y="456.0" type="line"/>
    </contour>
    <contour>
      <point x="151.0" y="520" type="move" name="top"/>
    </contour>
    <contour>
      <point x="107.0" y="0" type="move" name="bottom"/>
    </contour>
  </outline>
</glyph>
<glyph name="s" format="2">
  <advance width="355"/>
  <unicode hex="0073"/>
  <anchor x="181.0" y="520" name="top"/>
  <anchor x="172.0" y="0" name="bottom"/>
  <outline>
    <contour>
      <point x="172.0" y="341.0" type="curve"/>
      <point x="172.0" y="351.0"/>
      <point x="183.0" y="353.0"/>
      <point x="203.0" y="353.0" type="curve" smooth="yes"/>
      <point x="246.4" y="353.0"/>
      <point x="297.91699556338597" y="347.1933936493953"/>
      <point x="327.0" y="342.0" type="curve"/>
      <point x="327.0" y="494.0" type="line"/>
      <point x="301.0" y="499.0"/>
      <point x="257.0" y="504.0"/>
      <point x="194.0" y="504.0" type="curve" smooth="yes"/>
      <point x="52.0" y="504.0"/>
      <point x="6.0" y="430.8654970760234"/>
      <point x="6.0" y="335.0" type="curve" smooth="yes"/>
      <point x="6.0" y="233.30612244897958"/>
      <point x="38.97277077607765" y="194.83787153732038"/>
      <point x="104.0" y="184.0" type="curve" smooth="yes"/>
      <point x="170.0" y="173.0" type="line" smooth="yes"/>
      <point x="187.0" y="170.0"/>
      <point x="190.0" y="167.0"/>
      <point x="190.0" y="160.0" type="curve" smooth="yes"/>
      <point x="190.0" y="149.0"/>
      <point x="180.0" y="146.0"/>
      <point x="162.0" y="146.0" type="curve" smooth="yes"/>
      <point x="100.0" y="146.0"/>
      <point x="34.0" y="163.0"/>
      <point x="19.0" y="168.0" type="curve"/>
      <point x="19.0" y="11.0" type="line"/>
      <point x="47.0" y="0.0"/>
      <point x="106.0" y="-10.0"/>
      <point x="170.0" y="-10.0" type="curve" smooth="yes"/>
      <point x="264.0" y="-10.0"/>
      <point x="349.0" y="18.67955801104972"/>
      <point x="349.0" y="169.0" type="curve" smooth="yes"/>
      <point x="349.0" y="278.2715231788079"/>
      <point x="313.72844758960696" y="304.6543104820786"/>
      <point x="242.0" y="319.0" type="curve" smooth="yes"/>
      <point x="187.0" y="330.0" type="line" smooth="yes"/>
      <point x="175.0" y="332.0"/>
      <point x="172.0" y="335.0"/>
    </contour>
  </outline>
</glyph>
<glyph name="t" format="1">
  <advance width="321.0"/>
  <unicode hex="0074"/>
  <outline>
    <contour>
      <point x="317.0" y="8.0" type="curve"/>
      <point x="317.0" y="173.0" type="line"/>
      <point x="306.0" y="170.0"/>
      <point x="278.0" y="166.0"/>
      <point x="260.0" y="166.0" type="curve" smooth="yes"/>
      <point x="237.0" y="166.0"/>
      <point x="228.0" y="175.0"/>
      <point x="228.0" y="203.0" type="curve" smooth="yes"/>
      <point x="228.0" y="606.0" type="line"/>
      <point x="70.0" y="606.0" type="line"/>
      <point x="41.0" y="455.0" type="line"/>
      <point x="41.0" y="172.0" type="line" smooth="yes"/>
      <point x="41.0" y="38.73224043715845"/>
      <point x="96.33333333333334" y="-10.0"/>
      <point x="207.0" y="-10.0" type="curve"/>
      <point x="247.33333333333331" y="-10.0"/>
      <point x="305.88519815651193" y="1.51636559129863"/>
    </contour>
    <contour>
      <point x="7.0" y="336.0" type="line"/>
      <point x="311.0" y="336.0" type="line"/>
      <point x="311.0" y="494.0" type="line"/>
      <point x="7.0" y="494.0" type="line"/>
    </contour>
    <contour>
      <point x="248.0" y="708" type="move" name="caronalt"/>
    </contour>
    <contour>
      <point x="185.0" y="0" type="move" name="bottom"/>
    </contour>
  </outline>
</glyph>
<glyph name="u" format="2">
  <advance width="428"/>
  <unicode hex="0075"/>
  <anchor x="214.0" y="520" name="top"/>
  <anchor x="414.0" y="0" name="ogonek"/>
  <outline>
    <contour>
      <point x="12.0" y="134.0" type="line"/>
      <point x="12.0" y="37.414634146341456"/>
      <point x="51.58730158730158" y="-10.0"/>
      <point x="128.0" y="-10.0" type="curve"/>
      <point x="188.0" y="-10.0"/>
      <point x="226.97679260934302" y="17.966243795408026"/>
      <point x="260.0" y="66.0" type="curve"/>
      <point x="260.0" y="193.0" type="line"/>
      <point x="250.0" y="182.0"/>
      <point x="228.0" y="166.0"/>
      <point x="213.0" y="166.0" type="curve" smooth="yes"/>
      <point x="201.0" y="166.0"/>
      <point x="199.0" y="173.4516129032258"/>
      <point x="199.0" y="187.0" type="curve" smooth="yes"/>
      <point x="199.0" y="494.0" type="line"/>
      <point x="12.0" y="494.0" type="line"/>
    </contour>
    <contour>
      <point x="414.0" y="494.0" type="line"/>
      <point x="227.0" y="494.0" type="line"/>
      <point x="227.0" y="43.0" type="line"/>
      <point x="246.0" y="43.0" type="line"/>
      <point x="253.0" y="0.0" type="line"/>
      <point x="414.0" y="0.0" type="line"/>
    </contour>
  </outline>
</glyph>
<glyph name="v" format="2">
  <advance width="451"/>
  <unicode hex="0076"/>
  <outline>
    <contour>
      <point x="456.0" y="494.0" type="line"/>
      <point x="253.0" y="494.0" type="line"/>
      <point x="226.0" y="172.0" type="line"/>
      <point x="199.0" y="494.0" type="line"/>
      <point x="-6.0" y="494.0" type="line"/>
      <point x="119.0" y="0.0" type="line"/>
      <point x="333.0" y="0.0" type="line"/>
    </contour>
  </outline>
</glyph>
<glyph name="w" format="2">
  <advance width="664"/>
  <unicode hex="0077"/>
  <anchor x="331.0" y="520" name="top"/>
  <outline>
    <contour>
      <point x="668.0" y="494.0" type="line"/>
      <point x="463.0" y="494.0" type="line"/>
      <point x="449.0" y="171.0" type="line"/>
      <point x="416.0" y="494.0" type="line"/>
      <point x="251.0" y="494.0" type="line"/>
      <point x="214.0" y="171.0" type="line"/>
      <point x="201.0" y="494.0" type="line"/>
      <point x="-5.0" y="494.0" type="line"/>
      <point x="102.0" y="0.0" type="line"/>
      <point x="314.0" y="0.0" type="line"/>
      <point x="329.0" y="221.0" type="line"/>
      <point x="343.0" y="0.0" type="line"/>
      <point x="563.0" y="0.0" type="line"/>
    </contour>
  </outline>
</glyph>
<glyph name="x" format="1">
  <advance width="428.0"/>
  <unicode hex="0078"/>
  <outline>
    <contour>
      <point x="436.0" y="0.0" type="line"/>
      <point x="323.0" y="257.0" type="line"/>
      <point x="438.0" y="494.0" type="line"/>
      <point x="249.0" y="494.0" type="line"/>
      <point x="226.0" y="378.0" type="line"/>
      <point x="204.0" y="494.0" type="line"/>
      <point x="-10.0" y="494.0" type="line"/>
      <point x="107.0" y="258.0" type="line"/>
      <point x="-8.0" y="0.0" type="line"/>
      <point x="184.0" y="0.0" type="line"/>
      <point x="209.0" y="125.0" type="line"/>
      <point x="232.0" y="0.0" type="line"/>
    </contour>
    <contour>
      <point x="226.0" y="520" type="move" name="top"/>
    </contour>
  </outline>
</glyph>
<glyph name="y" format="2">
  <advance width="448"/>
  <unicode hex="0079"/>
  <anchor x="228.0" y="520" name="top"/>
  <outline>
    <contour>
      <point x="131.0" y="12.0" type="line"/>
      <point x="131.0" y="2.0"/>
      <point x="118.38235294117646" y="-8.0"/>
      <point x="92.0" y="-8.0" type="curve" smooth="yes"/>
      <point x="74.39024390243902" y="-8.0"/>
      <point x="60.52786334867558" y="-5.865103813907308"/>
      <point x="54.0" y="-4.0" type="curve"/>
      <point x="54.0" y="-153.0" type="line"/>
      <point x="70.0" y="-157.0"/>
      <point x="103.0" y="-162.0"/>
      <point x="135.0" y="-162.0" type="curve" smooth="yes"/>
      <point x="232.0" y="-162.0"/>
      <point x="300.0" y="-120.0"/>
      <point x="331.0" y="4.0" type="curve" smooth="yes"/>
      <point x="453.0" y="494.0" type="line"/>
      <point x="256.0" y="494.0" type="line"/>
      <point x="227.0" y="196.0" type="line"/>
      <point x="199.0" y="494.0" type="line"/>
      <point x="-6.0" y="494.0" type="line"/>
    </contour>
  </outline>
</glyph>
<glyph name="z" format="2">
  <advance width="345"/>
  <unicode hex="007A"/>
  <anchor x="180.0" y="520" name="top"/>
  <outline>
    <contour>
      <point x="338.0" y="0.0" type="line"/>
      <point x="338.0" y="164.0" type="line"/>
      <point x="221.0" y="164.0" type="line"/>
      <point x="324.0" y="336.0" type="line"/>
      <point x="324.0" y="494.0" type="line"/>
      <point x="23.0" y="494.0" type="line"/>
      <point x="23.0" y="336.0" type="line"/>
      <point x="116.0" y="336.0" type="line"/>
      <point x="8.0" y="164.0" type="line"/>
      <point x="8.0" y="0.0" type="line"/>
    </contour>
  </outline>
</glyph>
<glyph name="braceleft" format="1">
  <advance width="234.0"/>
  <unicode hex="007B"/>
  <outline>
    <contour>
      <point x="105.0" y="317.0" type="line"/>
      <point x="139.6702397194542" y="324.9246262215895"/>
      <point x="181.0" y="362.0"/>
      <point x="181.0" y="443.0" type="curve" smooth="yes"/>
      <point x="181.0" y="568.0" type="line" smooth="yes"/>
      <point x="181.0" y="605.0"/>
      <point x="188.0" y="614.0"/>
      <point x="229.0" y="614.0" type="curve"/>
      <point x="229.0" y="717.0" type="line"/>
      <point x="131.0" y="717.0"/>
      <point x="80.0" y="678.9078014184397"/>
      <point x="80.0" y="586.0" type="curve" smooth="yes"/>
      <point x="80.0" y="463.0" type="line" smooth="yes"/>
      <point x="80.0" y="381.0"/>
      <point x="54.0" y="360.0"/>
      <point x="15.0" y="360.0" type="curve" smooth="yes"/>
      <point x="-4.0" y="360.0" type="line"/>
      <point x="-4.0" y="270.0" type="line"/>
      <point x="15.0" y="270.0" type="line" smooth="yes"/>
      <point x="54.0" y="270.0"/>
      <point x="80.0" y="249.0"/>
      <point x="80.0" y="167.0" type="curve" smooth="yes"/>
      <point x="80.0" y="39.0" type="line" smooth="yes"/>
      <point x="80.0" y="-53.90780141843972"/>
      <point x="131.0" y="-92.0"/>
      <point x="229.0" y="-92.0" type="curve"/>
      <point x="229.0" y="11.0" type="line"/>
      <point x="188.0" y="11.0"/>
      <point x="181.0" y="21.0"/>
      <point x="181.0" y="57.0" type="curve" smooth="yes"/>
      <point x="181.0" y="187.0" type="line" smooth="yes"/>
      <point x="181.0" y="268.0"/>
      <point x="140.67853490428283" y="305.07143668793714"/>
      <point x="105.0" y="313.0" type="curve"/>
    </contour>
  </outline>
</glyph>
<glyph name="asciitilde" format="2">
  <advance width="494"/>
  <unicode hex="007E"/>
  <outline>
    <contour>
      <point x="487.0" y="445.0" type="curve"/>
      <point x="346.0" y="445.0" type="line"/>
      <point x="346.0" y="411.0"/>
      <point x="342.0" y="361.0"/>
      <point x="314.0" y="361.0" type="curve"/>
      <point x="282.0" y="361.0"/>
      <point x="215.0" y="453.0"/>
      <point x="136.0" y="453.0" type="curve" smooth="yes"/>
      <point x="33.0" y="453.0"/>
      <point x="7.0" y="314.0"/>
      <point x="7.0" y="194.0" type="curve"/>
      <point x="148.0" y="194.0" type="line"/>
      <point x="148.0" y="229.0"/>
      <point x="152.0" y="282.0"/>
      <point x="179.0" y="282.0" type="curve"/>
      <point x="211.0" y="282.0"/>
      <point x="278.0" y="187.0"/>
      <point x="356.0" y="187.0" type="curve" smooth="yes"/>
      <point x="460.0" y="187.0"/>
      <point x="487.0" y="325.0"/>
    </contour>
  </outline>
</glyph>
<glyph name="cent" format="2">
  <advance width="333"/>
  <unicode hex="00A2"/>
  <outline>
    <contour>
      <point x="242.0" y="499.0" type="line"/>
      <point x="242.0" y="645.0" type="line"/>
      <point x="133.0" y="645.0" type="line"/>
      <point x="133.0" y="499.0" type="line"/>
    </contour>
    <contour>
      <point x="242.0" y="-18.0" type="line"/>
      <point x="242.0" y="142.0" type="line"/>
      <point x="133.0" y="142.0" type="line"/>
      <point x="133.0" y="-18.0" type="line"/>
    </contour>
    <component base="c" xOffset="1" yOffset="68"/>
  </outline>
</glyph>
<glyph name="sterling" format="2">
  <advance width="372"/>
  <unicode hex="00A3"/>
  <outline>
    <contour>
      <point x="364.0" y="0.0" type="line"/>
      <point x="364.0" y="172.0" type="line"/>
      <point x="197.0" y="172.0" type="line"/>
      <point x="197.0" y="175.0" type="line"/>
      <point x="237.0" y="188.0"/>
      <point x="251.0" y="226.0"/>
      <point x="251.0" y="261.0" type="curve" smooth="yes"/>
      <point x="251.0" y="427.0" type="line" smooth="yes"/>
      <point x="251.0" y="454.0612244897959"/>
      <point x="264.0" y="466.0"/>
      <point x="285.0" y="466.0" type="curve" smooth="yes"/>
      <point x="302.0" y="466.0"/>
      <point x="323.0" y="462.0"/>
      <point x="351.0" y="455.0" type="curve"/>
      <point x="351.0" y="621.0" type="line"/>
      <point x="310.0" y="633.0"/>
      <point x="278.3697478991597" y="637.0"/>
      <point x="222.0" y="637.0" type="curve"/>
      <point x="166.39080459770116" y="637.0"/>
      <point x="58.0" y="613.0"/>
      <point x="58.0" y="451.0" type="curve" smooth="yes"/>
      <point x="58.0" y="257.0" type="line" smooth="yes"/>
      <point x="58.0" y="218.0"/>
      <point x="36.0" y="187.0"/>
      <point x="10.0" y="173.0" type="curve"/>
      <point x="10.0" y="0.0" type="line"/>
    </contour>
    <contour>
      <point x="22.0" y="364.0" type="line"/>
      <point x="22.0" y="261.0" type="line"/>
      <point x="322.0" y="261.0" type="line"/>
      <point x="322.0" y="364.0" type="line"/>
    </contour>
  </outline>
</glyph>
<glyph name="yen" format="2">
  <advance width="486"/>
  <unicode hex="00A5"/>
  <outline>
    <contour>
      <point x="80.0" y="303.0" type="line"/>
      <point x="80.0" y="216.0" type="line"/>
      <point x="410.0" y="216.0" type="line"/>
      <point x="410.0" y="303.0" type="line"/>
    </contour>
    <contour>
      <point x="80.0" y="187.0" type="line"/>
      <point x="80.0" y="100.0" type="line"/>
      <point x="410.0" y="100.0" type="line"/>
      <point x="410.0" y="187.0" type="line"/>
    </contour>
    <contour>
      <point x="482.0" y="625.0" type="line"/>
      <point x="284.0" y="625.0" type="line"/>
      <point x="245.0" y="390.0" type="line"/>
      <point x="215.0" y="625.0" type="line"/>
      <point x="4.0" y="625.0" type="line"/>
      <point x="148.0" y="230.0" type="line"/>
      <point x="148.0" y="0.0" type="line"/>
      <point x="342.0" y="0.0" type="line"/>
      <point x="342.0" y="230.0" type="line"/>
    </contour>
  </outline>
</glyph>
<glyph name="brokenbar" format="2">
  <advance width="135"/>
  <unicode hex="00A6"/>
  <outline>
    <contour>
      <point x="119.0" y="380.0" type="line"/>
      <point x="119.0" y="705.0" type="line"/>
      <point x="16.0" y="705.0" type="line"/>
      <point x="16.0" y="380.0" type="line"/>
    </contour>
    <contour>
      <point x="119.0" y="-80.0" type="line"/>
      <point x="119.0" y="247.0" type="line"/>
      <point x="16.0" y="247.0" type="line"/>
      <point x="16.0" y="-80.0" type="line"/>
    </contour>
  </outline>
</glyph>
<glyph name="dieresis" format="2">
  <advance width="383"/>
  <unicode hex="00A8"/>
  <anchor x="191" y="530" name="_top"/>
  <outline>
    <contour>
      <point x="346.0" y="530.0" type="line"/>
      <point x="346.0" y="635.0" type="line"/>
      <point x="199.0" y="635.0" type="line"/>
      <point x="199.0" y="530.0" type="line"/>
    </contour>
    <contour>
      <point x="182.0" y="530.0" type="line"/>
      <point x="182.0" y="635.0" type="line"/>
      <point x="36.0" y="635.0" type="line"/>
      <point x="36.0" y="530.0" type="line"/>
    </contour>
  </outline>
</glyph>
<glyph name="copyright" format="2">
  <advance width="561"/>
  <unicode hex="00A9"/>
  <outline>
    <contour>
      <point x="281.0" y="-10.0" type="curve"/>
      <point x="451.0" y="-10.0"/>
      <point x="553.0" y="110.0"/>
      <point x="553.0" y="314.0" type="curve"/>
      <point x="553.0" y="526.0"/>
      <point x="459.0" y="637.0"/>
      <point x="281.0" y="637.0" type="curve"/>
      <point x="110.0" y="637.0"/>
      <point x="8.0" y="518.0"/>
      <point x="8.0" y="314.0" type="curve"/>
      <point x="8.0" y="103.0"/>
      <point x="104.0" y="-10.0"/>
    </contour>
    <contour>
      <point x="283.0" y="541.0" type="curve"/>
      <point x="394.0" y="541.0"/>
      <point x="446.0" y="467.0"/>
      <point x="446.0" y="312.0" type="curve"/>
      <point x="446.0" y="165.0"/>
      <point x="394.0" y="94.0"/>
      <point x="283.0" y="94.0" type="curve"/>
      <point x="169.0" y="94.0"/>
      <point x="115.0" y="165.0"/>
      <point x="115.0" y="312.0" type="curve"/>
      <point x="115.0" y="467.0"/>
      <point x="169.0" y="541.0"/>
    </contour>
    <contour>
      <point x="380.0" y="266.0" type="line"/>
      <point x="357.1183217398723" y="257.41937065245213"/>
      <point x="334.56" y="250.0"/>
      <point x="309.0" y="250.0" type="curve"/>
      <point x="282.4736842105263" y="250.0"/>
      <point x="267.0" y="266.0"/>
      <point x="267.0" y="317.0" type="curve" smooth="yes"/>
      <point x="267.0" y="374.0"/>
      <point x="283.6216216216216" y="386.0"/>
      <point x="308.0" y="386.0" type="curve"/>
      <point x="325.8985507246377" y="386.0"/>
      <point x="345.6488259309872" y="384.77257573365694"/>
      <point x="373.0" y="381.0" type="curve"/>
      <point x="373.0" y="482.0" type="line"/>
      <point x="343.08251216390346" y="489.75638573528425"/>
      <point x="316.1379310344828" y="494.0"/>
      <point x="276.0" y="494.0" type="curve"/>
      <point x="193.18055555555554" y="494.0"/>
      <point x="142.0" y="446.0"/>
      <point x="142.0" y="316.0" type="curve" smooth="yes"/>
      <point x="142.0" y="177.0"/>
      <point x="199.1470588235294" y="137.0"/>
      <point x="276.0" y="137.0" type="curve"/>
      <point x="322.9019607843137" y="137.0"/>
      <point x="360.7161420459192" y="147.82072129215948"/>
      <point x="380.0" y="160.0" type="curve"/>
    </contour>
  </outline>
</glyph>
<glyph name="ordfeminine" format="2">
  <advance width="198"/>
  <unicode hex="00AA"/>
  <outline>
    <contour>
      <point x="7.0" y="316.0" type="line"/>
      <point x="189.0" y="316.0" type="line"/>
      <point x="189.0" y="389.0" type="line"/>
      <point x="7.0" y="389.0" type="line"/>
    </contour>
    <contour>
      <point x="7.0" y="474.0" type="curve"/>
      <point x="7.0" y="427.0"/>
      <point x="25.0" y="404.0"/>
      <point x="62.0" y="404.0" type="curve"/>
      <point x="92.0" y="404.0"/>
      <point x="105.0" y="419.0"/>
      <point x="119.0" y="436.0" type="curve"/>
      <point x="119.0" y="480.0" type="line"/>
      <point x="120.0" y="479.0"/>
      <point x="107.0" y="470.0"/>
      <point x="91.0" y="470.0" type="curve"/>
      <point x="82.0" y="470.0"/>
      <point x="79.0" y="474.0"/>
      <point x="79.0" y="482.0" type="curve" smooth="yes"/>
      <point x="79.0" y="491.0"/>
      <point x="82.0" y="495.0"/>
      <point x="92.0" y="495.0" type="curve"/>
      <point x="107.0" y="495.0"/>
      <point x="116.0" y="492.0"/>
      <point x="119.0" y="490.0" type="curve"/>
      <point x="119.0" y="537.0" type="line"/>
      <point x="110.0" y="540.0"/>
      <point x="93.0" y="542.0"/>
      <point x="79.0" y="542.0" type="curve" smooth="yes"/>
      <point x="27.0" y="542.0"/>
      <point x="7.0" y="522.0"/>
    </contour>
    <contour>
      <point x="114.0" y="409.0" type="line"/>
      <point x="186.0" y="409.0" type="line"/>
      <point x="186.0" y="565.0" type="line" smooth="yes"/>
      <point x="186.0" y="618.0"/>
      <point x="155.0" y="636.0"/>
      <point x="100.0" y="636.0" type="curve"/>
      <point x="73.0" y="636.0"/>
      <point x="48.0" y="633.0"/>
      <point x="25.0" y="628.0" type="curve"/>
      <point x="25.0" y="559.0" type="line"/>
      <point x="36.0" y="561.0"/>
      <point x="58.0" y="564.0"/>
      <point x="84.0" y="564.0" type="curve" smooth="yes"/>
      <point x="98.0" y="564.0"/>
      <point x="109.0" y="562.0"/>
      <point x="109.0" y="550.0" type="curve" smooth="yes"/>
      <point x="109.0" y="426.0" type="line"/>
      <point x="112.0" y="426.0" type="line"/>
    </contour>
  </outline>
</glyph>
<glyph name="guillemotleft" format="2">
  <advance width="405"/>
  <unicode hex="00AB"/>
  <outline>
    <contour>
      <point x="232.0" y="494.0" type="line"/>
      <point x="105.0" y="494.0" type="line"/>
      <point x="6.0" y="282.0" type="line"/>
      <point x="104.0" y="230.0" type="line"/>
    </contour>
    <contour>
      <point x="105.0" y="64.0" type="line"/>
      <point x="232.0" y="64.0" type="line"/>
      <point x="107.0" y="335.0" type="line"/>
      <point x="6.0" y="282.0" type="line"/>
    </contour>
    <contour>
      <point x="401.0" y="494.0" type="line"/>
      <point x="274.0" y="494.0" type="line"/>
      <point x="173.0" y="282.0" type="line"/>
      <point x="271.0" y="230.0" type="line"/>
    </contour>
    <contour>
      <point x="274.0" y="64.0" type="line"/>
      <point x="401.0" y="64.0" type="line"/>
      <point x="275.0" y="335.0" type="line"/>
      <point x="173.0" y="282.0" type="line"/>
    </contour>
  </outline>
</glyph>
<glyph name="logicalnot" format="1">
  <advance width="500.0"/>
  <unicode hex="00AC"/>
  <outline>
    <contour>
      <point x="427.0" y="105.0" type="line"/>
      <point x="427.0" y="392.0" type="line"/>
      <point x="73.0" y="392.0" type="line"/>
      <point x="73.0" y="236.0" type="line"/>
      <point x="261.0" y="236.0" type="line"/>
      <point x="261.0" y="105.0" type="line"/>
    </contour>
  </outline>
</glyph>
<glyph name="registered" format="2">
  <advance width="265"/>
  <unicode hex="00AE"/>
  <outline>
    <contour>
      <point x="133.0" y="339.0" type="curve"/>
      <point x="211.0" y="339.0"/>
      <point x="258.0" y="391.0"/>
      <point x="258.0" y="487.0" type="curve" smooth="yes"/>
      <point x="258.0" y="586.0"/>
      <point x="211.0" y="633.0"/>
      <point x="134.0" y="633.0" type="curve"/>
      <point x="54.0" y="633.0"/>
      <point x="7.0" y="581.0"/>
      <point x="7.0" y="487.0" type="curve" smooth="yes"/>
      <point x="7.0" y="387.0"/>
      <point x="54.0" y="339.0"/>
    </contour>
    <contour>
      <point x="134.0" y="589.0" type="curve"/>
      <point x="186.0" y="589.0"/>
      <point x="210.0" y="556.0"/>
      <point x="210.0" y="487.0" type="curve" smooth="yes"/>
      <point x="210.0" y="418.0"/>
      <point x="186.0" y="386.0"/>
      <point x="134.0" y="386.0" type="curve"/>
      <point x="80.0" y="386.0"/>
      <point x="55.0" y="418.0"/>
      <point x="55.0" y="487.0" type="curve" smooth="yes"/>
      <point x="55.0" y="556.0"/>
      <point x="80.0" y="589.0"/>
    </contour>
    <contour>
      <point x="132.0" y="458.0" type="line"/>
      <point x="166.0" y="458.0"/>
      <point x="189.0" y="470.0"/>
      <point x="189.0" y="513.0" type="curve" smooth="yes"/>
      <point x="189.0" y="559.0"/>
      <point x="169.0" y="569.0"/>
      <point x="131.0" y="569.0" type="curve" smooth="yes"/>
      <point x="109.0" y="569.0" type="line"/>
      <point x="109.0" y="530.0" type="line"/>
      <point x="131.0" y="530.0" type="line" smooth="yes"/>
      <point x="143.0" y="530.0"/>
      <point x="149.0" y="526.0"/>
      <point x="149.0" y="513.0" type="curve" smooth="yes"/>
      <point x="149.0" y="496.0"/>
      <point x="144.0" y="492.0"/>
      <point x="131.0" y="492.0" type="curve" smooth="yes"/>
      <point x="109.0" y="492.0" type="line"/>
      <point x="109.0" y="458.0" type="line"/>
    </contour>
    <contour>
      <point x="120.0" y="407.0" type="line"/>
      <point x="120.0" y="569.0" type="line"/>
      <point x="81.0" y="569.0" type="line"/>
      <point x="81.0" y="407.0" type="line"/>
    </contour>
    <contour>
      <point x="121.0" y="465.0" type="line"/>
      <point x="143.0" y="407.0" type="line"/>
      <point x="187.0" y="407.0" type="line"/>
      <point x="161.0" y="465.0" type="line"/>
    </contour>
  </outline>
</glyph>
<glyph name="macron" format="2">
  <advance width="291"/>
  <unicode hex="00AF"/>
  <guideline x="145" y="535" angle="90" name="mid" identifier="H5CGxYO1wQ"/>
  <anchor x="145" y="530" name="_top"/>
  <outline>
    <contour>
      <point x="254.0" y="535.0" type="line"/>
      <point x="254.0" y="635.0" type="line"/>
      <point x="36.0" y="635.0" type="line"/>
      <point x="36.0" y="535.0" type="line"/>
    </contour>
  </outline>
</glyph>
<glyph name="degree" format="2">
  <advance width="235"/>
  <unicode hex="00B0"/>
  <outline>
    <contour>
      <point x="118.0" y="366.0" type="curve" smooth="yes"/>
      <point x="190.0" y="366.0"/>
      <point x="234.0" y="416.0"/>
      <point x="234.0" y="498.0" type="curve" smooth="yes"/>
      <point x="234.0" y="582.0"/>
      <point x="190.0" y="634.0"/>
      <point x="118.0" y="634.0" type="curve" smooth="yes"/>
      <point x="45.0" y="634.0"/>
      <point x="1.0" y="582.0"/>
      <point x="1.0" y="498.0" type="curve" smooth="yes"/>
      <point x="1.0" y="416.0"/>
      <point x="45.0" y="366.0"/>
    </contour>
    <contour>
      <point x="118.0" y="463.0" type="curve" smooth="yes"/>
      <point x="103.0" y="463.0"/>
      <point x="94.0" y="477.0"/>
      <point x="94.0" y="501.0" type="curve" smooth="yes"/>
      <point x="94.0" y="525.0"/>
      <point x="103.0" y="539.0"/>
      <point x="118.0" y="539.0" type="curve" smooth="yes"/>
      <point x="132.0" y="539.0"/>
      <point x="141.0" y="525.0"/>
      <point x="141.0" y="501.0" type="curve" smooth="yes"/>
      <point x="141.0" y="477.0"/>
      <point x="132.0" y="463.0"/>
    </contour>
  </outline>
</glyph>
<glyph name="plusminus" format="2">
  <advance width="500"/>
  <unicode hex="00B1"/>
  <guideline x="27" y="254" angle="90.0" identifier="tuIuM3KVeB"/>
  <guideline x="381" y="246" angle="90.0" identifier="ysTH8Bi1VZ"/>
  <outline>
    <contour>
      <point x="427.0" y="311.0" type="line"/>
      <point x="427.0" y="467.0" type="line"/>
      <point x="73.0" y="467.0" type="line"/>
      <point x="73.0" y="311.0" type="line"/>
    </contour>
    <contour>
      <point x="331.0" y="579.0" type="line"/>
      <point x="171.0" y="579.0" type="line"/>
      <point x="171.0" y="197.0" type="line"/>
      <point x="331.0" y="197.0" type="line"/>
    </contour>
    <component base="minus" yOffset="-244"/>
  </outline>
</glyph>
<glyph name="uni00B2" format="2">
  <advance width="226"/>
  <unicode hex="00B2"/>
  <outline>
    <contour>
      <point x="216.0" y="268.0" type="line"/>
      <point x="216.0" y="369.0" type="line"/>
      <point x="124.0" y="369.0" type="line"/>
      <point x="186.0" y="442.0" type="line" smooth="yes"/>
      <point x="208.0" y="468.0"/>
      <point x="219.0" y="494.0"/>
      <point x="219.0" y="538.0" type="curve"/>
      <point x="219.0" y="593.0"/>
      <point x="188.0" y="632.0"/>
      <point x="126.0" y="632.0" type="curve"/>
      <point x="83.0" y="632.0"/>
      <point x="41.0" y="624.0"/>
      <point x="19.0" y="618.0" type="curve"/>
      <point x="19.0" y="522.0" type="line"/>
      <point x="33.0" y="525.0"/>
      <point x="70.0" y="532.0"/>
      <point x="99.0" y="532.0" type="curve" smooth="yes"/>
      <point x="114.0" y="532.0"/>
      <point x="118.0" y="525.0"/>
      <point x="118.0" y="515.0" type="curve" smooth="yes"/>
      <point x="118.0" y="502.0"/>
      <point x="115.0" y="495.0"/>
      <point x="104.0" y="483.0" type="curve" smooth="yes"/>
      <point x="5.0" y="369.0" type="line"/>
      <point x="5.0" y="268.0" type="line"/>
    </contour>
  </outline>
</glyph>
<glyph name="uni00B3" format="2">
  <advance width="225"/>
  <unicode hex="00B3"/>
  <outline>
    <contour>
      <point x="162.0" y="457.0" type="line"/>
      <point x="195.0" y="469.0"/>
      <point x="208.0" y="498.0"/>
      <point x="208.0" y="540.0" type="curve" smooth="yes"/>
      <point x="208.0" y="601.0"/>
      <point x="178.0" y="632.0"/>
      <point x="116.0" y="632.0" type="curve" smooth="yes"/>
      <point x="78.0" y="632.0"/>
      <point x="33.0" y="625.0"/>
      <point x="12.0" y="617.0" type="curve"/>
      <point x="12.0" y="528.0" type="line"/>
      <point x="25.0" y="531.0"/>
      <point x="63.0" y="537.0"/>
      <point x="83.0" y="537.0" type="curve"/>
      <point x="106.0" y="537.0"/>
      <point x="110.0" y="530.0"/>
      <point x="110.0" y="516.0" type="curve" smooth="yes"/>
      <point x="110.0" y="502.0"/>
      <point x="105.0" y="494.0"/>
      <point x="85.0" y="494.0" type="curve" smooth="yes"/>
      <point x="36.0" y="494.0" type="line"/>
      <point x="36.0" y="406.0" type="line"/>
      <point x="97.0" y="406.0" type="line" smooth="yes"/>
      <point x="114.0" y="406.0"/>
      <point x="120.0" y="400.0"/>
      <point x="120.0" y="385.0" type="curve" smooth="yes"/>
      <point x="120.0" y="369.0"/>
      <point x="114.0" y="360.0"/>
      <point x="88.0" y="360.0" type="curve" smooth="yes"/>
      <point x="61.0" y="360.0"/>
      <point x="34.0" y="362.0"/>
      <point x="8.0" y="367.0" type="curve"/>
      <point x="8.0" y="273.0" type="line"/>
      <point x="24.0" y="266.0"/>
      <point x="64.0" y="261.0"/>
      <point x="104.0" y="261.0" type="curve"/>
      <point x="168.0" y="261.0"/>
      <point x="218.0" y="295.0"/>
      <point x="218.0" y="371.0" type="curve"/>
      <point x="218.0" y="421.0"/>
      <point x="201.0" y="451.0"/>
      <point x="162.0" y="456.0" type="curve"/>
    </contour>
  </outline>
</glyph>
<glyph name="acute" format="1">
  <advance width="351.0"/>
  <unicode hex="00B4"/>
  <outline>
    <contour>
      <point x="104.0" y="635.0" type="line"/>
      <point x="36.0" y="530.0" type="line"/>
      <point x="176.0" y="530.0" type="line"/>
      <point x="283.0" y="635.0" type="line"/>
    </contour>
    <contour>
      <point x="138" y="530" type="move" name="_top"/>
    </contour>
  </outline>
</glyph>
<glyph name="paragraph" format="2">
  <advance width="406"/>
  <unicode hex="00B6"/>
  <outline>
    <contour>
      <point x="387.0" y="9.0" type="curve" smooth="yes"/>
      <point x="387.0" y="627.0" type="line"/>
      <point x="369.0" y="629.0"/>
      <point x="305.0" y="639.0"/>
      <point x="219.0" y="639.0" type="curve"/>
      <point x="57.0" y="639.0"/>
      <point x="6.0" y="571.0"/>
      <point x="6.0" y="381.0" type="curve" smooth="yes"/>
      <point x="6.0" y="197.0"/>
      <point x="50.0" y="132.0"/>
      <point x="172.0" y="132.0" type="curve" smooth="yes"/>
      <point x="181.0" y="132.0"/>
      <point x="197.0" y="133.0"/>
      <point x="206.0" y="134.0" type="curve"/>
      <point x="206.0" y="34.0" type="line" smooth="yes"/>
      <point x="206.0" y="11.0"/>
      <point x="194.0" y="7.0"/>
      <point x="185.0" y="7.0" type="curve" smooth="yes"/>
      <point x="180.0" y="7.0"/>
      <point x="171.0" y="8.0"/>
      <point x="166.0" y="9.0" type="curve"/>
      <point x="166.0" y="-155.0" type="line"/>
      <point x="178.0" y="-158.0"/>
      <point x="204.0" y="-162.0"/>
      <point x="238.0" y="-162.0" type="curve"/>
      <point x="328.0" y="-162.0"/>
      <point x="387.0" y="-115.0"/>
    </contour>
    <contour>
      <point x="172.0" y="383.0" type="curve" smooth="yes"/>
      <point x="172.0" y="463.0"/>
      <point x="180.0" y="471.0"/>
      <point x="191.0" y="471.0" type="curve"/>
      <point x="197.0" y="471.0"/>
      <point x="202.0" y="470.0"/>
      <point x="206.0" y="469.0" type="curve"/>
      <point x="206.0" y="304.0" type="line"/>
      <point x="202.0" y="302.0"/>
      <point x="198.0" y="301.0"/>
      <point x="192.0" y="301.0" type="curve"/>
      <point x="180.0" y="301.0"/>
      <point x="172.0" y="311.0"/>
    </contour>
  </outline>
</glyph>
<glyph name="cedilla" format="2">
  <advance width="268"/>
  <unicode hex="00B8"/>
  <anchor x="120" y="0" name="_bottom"/>
  <outline>
    <contour>
      <point x="229.0" y="-95.0" type="curve"/>
      <point x="229.0" y="-48.0"/>
      <point x="189.0" y="-33.0"/>
      <point x="155.0" y="-32.0" type="curve"/>
      <point x="165.0" y="16.0" type="line"/>
      <point x="75.0" y="28.0" type="line"/>
      <point x="55.0" y="-66.0" type="line"/>
      <point x="75.0" y="-65.0"/>
      <point x="83.0" y="-65.0"/>
      <point x="96.0" y="-65.0" type="curve"/>
      <point x="120.0" y="-65.0"/>
      <point x="131.0" y="-70.0"/>
      <point x="131.0" y="-84.0" type="curve"/>
      <point x="131.0" y="-98.0"/>
      <point x="125.0" y="-105.0"/>
      <point x="103.0" y="-105.0" type="curve" smooth="yes"/>
      <point x="87.0" y="-105.0"/>
      <point x="65.0" y="-101.0"/>
      <point x="44.0" y="-95.0" type="curve"/>
      <point x="44.0" y="-160.0" type="line"/>
      <point x="64.0" y="-165.0"/>
      <point x="92.0" y="-170.0"/>
      <point x="126.0" y="-170.0" type="curve" smooth="yes"/>
      <point x="176.0" y="-170.0"/>
      <point x="229.0" y="-155.0"/>
    </contour>
  </outline>
</glyph>
<glyph name="uni00B9" format="1">
  <advance width="182.0"/>
  <unicode hex="00B9"/>
  <outline>
    <contour>
      <point x="64.0" y="268.0" type="line"/>
      <point x="169.0" y="268.0" type="line"/>
      <point x="169.0" y="632.0" type="line"/>
      <point x="64.0" y="597.0" type="line"/>
    </contour>
    <contour>
      <point x="4.0" y="517.0" type="line"/>
      <point x="66.0" y="525.0" type="line"/>
      <point x="169.0" y="632.0" type="line"/>
      <point x="4.0" y="612.0" type="line"/>
    </contour>
  </outline>
</glyph>
<glyph name="uni00B9" format="2">
  <advance width="182"/>
  <unicode hex="00B9"/>
  <outline>
    <contour>
      <point x="64.0" y="268.0" type="line"/>
      <point x="169.0" y="268.0" type="line"/>
      <point x="169.0" y="632.0" type="line"/>
      <point x="64.0" y="597.0" type="line"/>
    </contour>
    <contour>
      <point x="4.0" y="517.0" type="line"/>
      <point x="66.0" y="525.0" type="line"/>
      <point x="169.0" y="632.0" type="line"/>
      <point x="4.0" y="612.0" type="line"/>
    </contour>
  </outline>
</glyph>
<glyph name="ordmasculine" format="2">
  <advance width="213"/>
  <unicode hex="00BA"/>
  <outline>
    <contour>
      <point x="10.0" y="316.0" type="line"/>
      <point x="201.0" y="316.0" type="line"/>
      <point x="201.0" y="389.0" type="line"/>
      <point x="10.0" y="389.0" type="line"/>
    </contour>
    <contour>
      <point x="107.0" y="404.0" type="curve"/>
      <point x="175.0" y="404.0"/>
      <point x="207.0" y="441.0"/>
      <point x="207.0" y="520.0" type="curve"/>
      <point x="207.0" y="598.0"/>
      <point x="174.0" y="636.0"/>
      <point x="107.0" y="636.0" type="curve"/>
      <point x="39.0" y="636.0"/>
      <point x="7.0" y="599.0"/>
      <point x="7.0" y="520.0" type="curve"/>
      <point x="7.0" y="442.0"/>
      <point x="40.0" y="404.0"/>
    </contour>
    <contour>
      <point x="107.0" y="479.0" type="curve"/>
      <point x="89.0" y="479.0"/>
      <point x="83.0" y="493.0"/>
      <point x="83.0" y="522.0" type="curve"/>
      <point x="83.0" y="551.0"/>
      <point x="89.0" y="564.0"/>
      <point x="107.0" y="564.0" type="curve"/>
      <point x="125.0" y="564.0"/>
      <point x="131.0" y="551.0"/>
      <point x="131.0" y="522.0" type="curve"/>
      <point x="131.0" y="493.0"/>
      <point x="125.0" y="479.0"/>
    </contour>
  </outline>
</glyph>
<glyph name="AE" format="1">
  <advance width="614.0"/>
  <unicode hex="00C6"/>
  <outline>
    <contour>
      <point x="-4.0" y="0.0" type="line"/>
      <point x="190.0" y="0.0" type="line"/>
      <point x="223.0" y="307.0" type="line" smooth="yes"/>
      <point x="229.0" y="359.0"/>
      <point x="254.0" y="526.0"/>
      <point x="253.0" y="625.0" type="curve"/>
      <point x="109.0" y="625.0" type="line"/>
    </contour>
    <contour>
      <point x="476.0" y="0.0" type="line"/>
      <point x="390.0" y="625.0" type="line"/>
      <point x="235.0" y="625.0" type="line"/>
      <point x="237.0" y="521.0"/>
      <point x="262.0" y="359.0"/>
      <point x="268.0" y="307.0" type="curve" smooth="yes"/>
      <point x="303.0" y="0.0" type="line"/>
    </contour>
    <contour>
      <point x="122.0" y="97.0" type="line"/>
      <point x="354.0" y="97.0" type="line"/>
      <point x="354.0" y="258.0" type="line"/>
      <point x="122.0" y="258.0" type="line"/>
    </contour>
    <contour>
      <point x="324.0" y="445.0" type="line"/>
      <point x="597.0" y="445.0" type="line"/>
      <point x="597.0" y="625.0" type="line"/>
      <point x="324.0" y="625.0" type="line"/>
    </contour>
    <contour>
      <point x="363.0" y="230.0" type="line"/>
      <point x="566.0" y="230.0" type="line"/>
      <point x="566.0" y="401.0" type="line"/>
      <point x="363.0" y="401.0" type="line"/>
    </contour>
    <contour>
      <point x="392.0" y="0.0" type="line"/>
      <point x="604.0" y="0.0" type="line"/>
      <point x="604.0" y="186.0" type="line"/>
      <point x="392.0" y="186.0" type="line"/>
    </contour>
    <contour>
      <point x="333.0" y="637" type="move" name="top"/>
    </contour>
  </outline>
</glyph>
<glyph name="AE" format="2">
  <advance width="614"/>
  <unicode hex="00C6"/>
  <anchor x="333.0" y="637" name="top"/>
  <outline>
    <contour>
      <point x="-4.0" y="0.0" type="line"/>
      <point x="190.0" y="0.0" type="line"/>
      <point x="223.0" y="307.0" type="line" smooth="yes"/>
      <point x="229.0" y="359.0"/>
      <point x="254.0" y="526.0"/>
      <point x="253.0" y="625.0" type="curve"/>
      <point x="109.0" y="625.0" type="line"/>
    </contour>
    <contour>
      <point x="476.0" y="0.0" type="line"/>
      <point x="390.0" y="625.0" type="line"/>
      <point x="235.0" y="625.0" type="line"/>
      <point x="237.0" y="521.0"/>
      <point x="262.0" y="359.0"/>
      <point x="268.0" y="307.0" type="curve" smooth="yes"/>
      <point x="303.0" y="0.0" type="line"/>
    </contour>
    <contour>
      <point x="122.0" y="97.0" type="line"/>
      <point x="354.0" y="97.0" type="line"/>
      <point x="354.0" y="258.0" type="line"/>
      <point x="122.0" y="258.0" type="line"/>
    </contour>
    <contour>
      <point x="324.0" y="445.0" type="line"/>
      <point x="597.0" y="445.0" type="line"/>
      <point x="597.0" y="625.0" type="line"/>
      <point x="324.0" y="625.0" type="line"/>
    </contour>
    <contour>
      <point x="363.0" y="230.0" type="line"/>
      <point x="566.0" y="230.0" type="line"/>
      <point x="566.0" y="401.0" type="line"/>
      <point x="363.0" y="401.0" type="line"/>
    </contour>
    <contour>
      <point x="392.0" y="0.0" type="line"/>
      <point x="604.0" y="0.0" type="line"/>
      <point x="604.0" y="186.0" type="line"/>
      <point x="392.0" y="186.0" type="line"/>
    </contour>
  </outline>
</glyph>
<glyph name="Eth" format="1">
  <advance width="496.0"/>
  <unicode hex="00D0"/>
  <outline>
    <contour>
      <point x="260.0" y="256.0" type="line"/>
      <point x="260.0" y="385.0" type="line"/>
      <point x="8.0" y="385.0" type="line"/>
      <point x="8.0" y="256.0" type="line"/>
    </contour>
    <component base="D" xOffset="20.0"/>
  </outline>
</glyph>
<glyph name="multiply" format="2">
  <advance width="500"/>
  <unicode hex="00D7"/>
  <outline>
    <contour>
      <point x="438.0" y="459.0" type="line"/>
      <point x="321.0" y="545.0" type="line"/>
      <point x="63.0" y="183.0" type="line"/>
      <point x="178.0" y="99.0" type="line"/>
    </contour>
    <contour>
      <point x="180.0" y="545.0" type="line"/>
      <point x="63.0" y="458.0" type="line"/>
      <point x="319.0" y="99.0" type="line"/>
      <point x="438.0" y="185.0" type="line"/>
    </contour>
  </outline>
</glyph>
<glyph name="Oslash" format="2">
  <advance width="484"/>
  <unicode hex="00D8"/>
  <guideline x="15" y="257" angle="90.0" identifier="dE93Oypy7j"/>
  <guideline x="480" y="290" angle="90.0" identifier="mmDhlG7Bzm"/>
  <anchor x="245.0" y="645" name="top"/>
  <outline>
    <contour>
      <point x="14.0" y="-13.0" type="line"/>
      <point x="117.0" y="-74.0" type="line"/>
      <point x="218.0" y="94.0" type="line"/>
      <point x="115.0" y="161.0" type="line"/>
    </contour>
    <contour>
      <point x="373.0" y="476.0" type="line"/>
      <point x="471.0" y="637.0" type="line"/>
      <point x="370.0" y="700.0" type="line"/>
      <point x="272.0" y="543.0" type="line"/>
    </contour>
    <contour>
      <point x="208.0" y="94.0" type="line"/>
      <point x="173.0" y="220.0" type="line"/>
      <point x="124.0" y="376.0" type="line"/>
      <point x="105.0" y="161.0" type="line"/>
    </contour>
    <component base="O"/>
  </outline>
</glyph>
<glyph name="Thorn" format="2">
  <advance width="467"/>
  <unicode hex="00DE"/>
  <outline>
    <contour>
      <point x="224.0" y="85.0" type="line"/>
      <point x="384.0" y="85.0"/>
      <point x="461.0" y="156.0"/>
      <point x="461.0" y="320.0" type="curve"/>
      <point x="461.0" y="489.0"/>
      <point x="392.0" y="548.0"/>
      <point x="222.0" y="548.0" type="curve" smooth="yes"/>
      <point x="154.0" y="548.0" type="line"/>
      <point x="154.0" y="371.0" type="line"/>
      <point x="230.0" y="371.0" type="line"/>
      <point x="250.0" y="371.0"/>
      <point x="265.0" y="362.0"/>
      <point x="265.0" y="316.0" type="curve"/>
      <point x="265.0" y="265.0"/>
      <point x="251.0" y="255.0"/>
      <point x="230.0" y="255.0" type="curve"/>
      <point x="154.0" y="255.0" type="line"/>
      <point x="154.0" y="85.0" type="line"/>
    </contour>
    <contour>
      <point x="210.0" y="0.0" type="line"/>
      <point x="210.0" y="625.0" type="line"/>
      <point x="17.0" y="625.0" type="line"/>
      <point x="17.0" y="0.0" type="line"/>
    </contour>
  </outline>
</glyph>
<glyph name="ae" format="1">
  <advance width="581.0"/>
  <unicode hex="00E6"/>
  <outline>
    <contour>
      <point x="389.0" y="358.0" type="curve"/>
      <point x="407.0" y="358.0"/>
      <point x="410.0" y="344.0"/>
      <point x="410.0" y="319.0" type="curve" smooth="yes"/>
      <point x="410.0" y="310.0"/>
      <point x="410.0" y="301.0"/>
      <point x="410.0" y="296.0" type="curve"/>
      <point x="366.0" y="296.0" type="line"/>
      <point x="366.0" y="336.0"/>
      <point x="366.0" y="358.0"/>
    </contour>
    <contour>
      <point x="556.0" y="25.0" type="curve"/>
      <point x="556.0" y="177.0" type="line"/>
      <point x="537.0" y="172.0"/>
      <point x="475.0" y="161.0"/>
      <point x="405.0" y="161.0" type="curve"/>
      <point x="373.0" y="161.0"/>
      <point x="366.0" y="169.0"/>
      <point x="366.0" y="194.0" type="curve"/>
      <point x="570.0" y="194.0" type="line"/>
      <point x="573.0" y="231.0"/>
      <point x="574.0" y="255.0"/>
      <point x="574.0" y="302.0" type="curve" smooth="yes"/>
      <point x="574.0" y="435.0"/>
      <point x="539.0" y="504.0"/>
      <point x="395.0" y="504.0" type="curve" smooth="yes"/>
      <point x="285.0" y="504.0"/>
      <point x="207.0" y="421.0"/>
      <point x="207.0" y="245.0" type="curve" smooth="yes"/>
      <point x="207.0" y="67.0"/>
      <point x="253.0" y="-10.0"/>
      <point x="375.0" y="-10.0" type="curve"/>
      <point x="470.0" y="-10.0"/>
      <point x="536.0" y="11.0"/>
    </contour>
    <contour>
      <point x="5.0" y="146.0" type="curve"/>
      <point x="5.0" y="38.0"/>
      <point x="42.0" y="-10.0"/>
      <point x="127.0" y="-10.0" type="curve"/>
      <point x="199.0" y="-10.0"/>
      <point x="231.0" y="26.0"/>
      <point x="262.0" y="60.0" type="curve"/>
      <point x="231.0" y="152.0" type="line"/>
      <point x="225.0" y="144.0"/>
      <point x="205.0" y="129.0"/>
      <point x="187.0" y="129.0" type="curve"/>
      <point x="169.0" y="129.0"/>
      <point x="166.0" y="139.0"/>
      <point x="166.0" y="162.0" type="curve" smooth="yes"/>
      <point x="166.0" y="185.0"/>
      <point x="172.0" y="194.0"/>
      <point x="188.0" y="194.0" type="curve"/>
      <point x="200.0" y="194.0"/>
      <point x="218.0" y="191.0"/>
      <point x="228.0" y="184.0" type="curve"/>
      <point x="228.0" y="290.0" type="line"/>
      <point x="210.0" y="297.0"/>
      <point x="180.0" y="303.0"/>
      <point x="144.0" y="303.0" type="curve"/>
      <point x="54.0" y="303.0"/>
      <point x="5.0" y="253.0"/>
    </contour>
    <contour>
      <point x="348.0" y="341.0" type="line"/>
      <point x="348.0" y="452.0"/>
      <point x="289.0" y="504.0"/>
      <point x="192.0" y="504.0" type="curve" smooth="yes"/>
      <point x="138.0" y="504.0"/>
      <point x="81.0" y="497.0"/>
      <point x="40.0" y="486.0" type="curve"/>
      <point x="40.0" y="321.0" type="line"/>
      <point x="72.0" y="326.0"/>
      <point x="99.0" y="331.0"/>
      <point x="144.0" y="331.0" type="curve" smooth="yes"/>
      <point x="197.0" y="331.0"/>
      <point x="207.0" y="321.0"/>
      <point x="207.0" y="300.0" type="curve" smooth="yes"/>
      <point x="207.0" y="218.0" type="line"/>
    </contour>
    <contour>
      <point x="293.0" y="520" type="move" name="top"/>
    </contour>
  </outline>
</glyph>
<glyph name="eth" format="2">
  <advance width="445"/>
  <unicode hex="00F0"/>
  <outline>
    <contour>
      <point x="416.0" y="539.0" type="line"/>
      <point x="416.0" y="625.0" type="line"/>
      <point x="106.0" y="540.0" type="line"/>
      <point x="106.0" y="455.0" type="line"/>
    </contour>
    <contour>
      <point x="222.0" y="-10.0" type="curve"/>
      <point x="375.0" y="-10.0"/>
      <point x="438.0" y="60.71485943775099"/>
      <point x="438.0" y="238.0" type="curve"/>
      <point x="438.0" y="390.2290748898679"/>
      <point x="376.0" y="450.0"/>
      <point x="222.0" y="450.0" type="curve"/>
      <point x="68.0" y="450.0"/>
      <point x="6.0" y="386.2857142857143"/>
      <point x="6.0" y="227.0" type="curve"/>
      <point x="6.0" y="56.718487394957975"/>
      <point x="68.0" y="-10.0"/>
    </contour>
    <contour>
      <point x="222.0" y="165.0" type="curve"/>
      <point x="203.0" y="165.0"/>
      <point x="193.0" y="177.0"/>
      <point x="193.0" y="229.0" type="curve"/>
      <point x="193.0" y="282.0"/>
      <point x="203.0" y="294.0"/>
      <point x="222.0" y="294.0" type="curve"/>
      <point x="242.0" y="294.0"/>
      <point x="251.0" y="282.0"/>
      <point x="251.0" y="229.0" type="curve"/>
      <point x="251.0" y="177.0"/>
      <point x="242.0" y="165.0"/>
    </contour>
    <contour>
      <point x="323.0" y="625.0" type="curve"/>
      <point x="127.0" y="625.0" type="line"/>
      <point x="198.73712610269126" y="531.2634885591501"/>
      <point x="247.85115593669087" y="439.37096153973886"/>
      <point x="233.0" y="359.0" type="curve"/>
      <point x="438.0" y="238.0" type="line"/>
      <point x="438.0" y="420.17096018735367"/>
      <point x="395.69754207254834" y="530.0085450252035"/>
    </contour>
  </outline>
</glyph>
<glyph name="oslash" format="2">
  <advance width="442"/>
  <unicode hex="00F8"/>
  <anchor x="227.0" y="520" name="top"/>
  <outline>
    <contour>
      <point x="8.0" y="-19.0" type="line"/>
      <point x="111.0" y="-82.0" type="line"/>
      <point x="190.0" y="42.0" type="line"/>
      <point x="145.0" y="162.0" type="line"/>
      <point x="201.0" y="367.0" type="line"/>
      <point x="353.0" y="375.0" type="line"/>
      <point x="438.0" y="511.0" type="line"/>
      <point x="336.0" y="575.0" type="line"/>
      <point x="263.0" y="461.0" type="line"/>
      <point x="215.0" y="415.0" type="line"/>
      <point x="112.0" y="193.0" type="line"/>
      <point x="78.0" y="95.0" type="line"/>
    </contour>
    <component base="o"/>
  </outline>
</glyph>
<glyph name="Dcroat" format="2">
  <advance width="496"/>
  <unicode hex="0110"/>
  <outline>
    <contour>
      <point x="260.0" y="256.0" type="line"/>
      <point x="260.0" y="385.0" type="line"/>
      <point x="8.0" y="385.0" type="line"/>
      <point x="8.0" y="256.0" type="line"/>
    </contour>
    <component base="D" xOffset="20"/>
  </outline>
</glyph>
<glyph name="dcroat" format="2">
  <advance width="449"/>
  <unicode hex="0111"/>
  <outline>
    <contour>
      <point x="471.0" y="505.0" type="line"/>
      <point x="471.0" y="587.0" type="line"/>
      <point x="135.0" y="587.0" type="line"/>
      <point x="135.0" y="505.0" type="line"/>
    </contour>
    <contour>
      <point x="435.0" y="625.0" type="line"/>
      <point x="248.0" y="625.0" type="line"/>
      <point x="248.0" y="44.0" type="line"/>
      <point x="260.0" y="44.0" type="line"/>
      <point x="270.0" y="0.0" type="line"/>
      <point x="435.0" y="0.0" type="line"/>
    </contour>
    <contour>
      <point x="303.0" y="208.0" type="line"/>
      <point x="286.0" y="195.0"/>
      <point x="259.0" y="165.0"/>
      <point x="221.0" y="165.0" type="curve" smooth="yes"/>
      <point x="202.0" y="165.0"/>
      <point x="194.0" y="176.0"/>
      <point x="194.0" y="237.0" type="curve"/>
      <point x="194.0" y="302.0"/>
      <point x="203.0" y="313.0"/>
      <point x="223.0" y="313.0" type="curve"/>
      <point x="257.0" y="313.0"/>
      <point x="279.0" y="302.0"/>
      <point x="292.0" y="290.0" type="curve"/>
      <point x="321.0" y="421.0" type="line"/>
      <point x="312.0" y="466.0"/>
      <point x="241.0" y="484.0"/>
      <point x="177.0" y="484.0" type="curve"/>
      <point x="63.0" y="484.0"/>
      <point x="7.0" y="412.0"/>
      <point x="7.0" y="236.0" type="curve"/>
      <point x="7.0" y="64.0"/>
      <point x="42.0" y="-10.0"/>
      <point x="144.0" y="-10.0" type="curve"/>
      <point x="246.0" y="-10.0"/>
      <point x="279.0" y="61.0"/>
      <point x="300.0" y="164.0" type="curve"/>
    </contour>
  </outline>
</glyph>
<glyph name="Hbar" format="1">
  <advance width="543.0"/>
  <unicode hex="0126"/>
  <outline>
    <contour>
      <point x="536.0" y="452.0" type="line"/>
      <point x="536.0" y="557.0" type="line"/>
      <point x="7.0" y="557.0" type="line"/>
      <point x="7.0" y="452.0" type="line"/>
    </contour>
    <component base="H" xOffset="26.0"/>
  </outline>
</glyph>
<glyph name="dotlessi" format="2">
  <advance width="215"/>
  <unicode hex="0131"/>
  <anchor x="107.0" y="520" name="top"/>
  <outline>
    <contour>
      <point x="14.0" y="0.0" type="line"/>
      <point x="201.0" y="0.0" type="line"/>
      <point x="201.0" y="494.0" type="line"/>
      <point x="14.0" y="494.0" type="line"/>
    </contour>
  </outline>
</glyph>
<glyph name="Lslash" format="2">
  <advance width="389"/>
  <unicode hex="0141"/>
  <outline>
    <contour>
      <point x="320.0" y="325.0" type="line"/>
      <point x="320.0" y="456.0" type="line"/>
      <point x="7.0" y="347.0" type="line"/>
      <point x="7.0" y="216.0" type="line"/>
    </contour>
    <component base="L" xOffset="26"/>
  </outline>
</glyph>
<glyph name="lslash" format="2">
  <advance width="280"/>
  <unicode hex="0142"/>
  <outline>
    <contour>
      <point x="274.0" y="314.0" type="line"/>
      <point x="274.0" y="442.0" type="line"/>
      <point x="7.0" y="342.0" type="line"/>
      <point x="7.0" y="214.0" type="line"/>
    </contour>
    <component base="l" xOffset="29"/>
  </outline>
</glyph>
<glyph name="Eng" format="2">
  <advance width="503"/>
  <unicode hex="014A"/>
  <outline>
    <contour>
      <point x="486.0" y="3.0" type="curve" smooth="yes"/>
      <point x="486.0" y="625.0" type="line"/>
      <point x="312.0" y="625.0" type="line"/>
      <point x="312.0" y="344.0" type="line"/>
      <point x="199.0" y="625.0" type="line"/>
      <point x="17.0" y="625.0" type="line"/>
      <point x="17.0" y="0.0" type="line"/>
      <point x="192.0" y="0.0" type="line"/>
      <point x="192.0" y="291.0" type="line"/>
      <point x="305.0" y="16.0" type="line"/>
      <point x="305.0" y="1.7142857142857153"/>
      <point x="300.0" y="-9.0"/>
      <point x="285.0" y="-9.0" type="curve"/>
      <point x="278.0" y="-9.0"/>
      <point x="277.0" y="-9.0"/>
      <point x="269.0" y="-8.0" type="curve"/>
      <point x="269.0" y="-156.0" type="line"/>
      <point x="278.0" y="-158.0"/>
      <point x="296.0" y="-162.0"/>
      <point x="334.0" y="-162.0" type="curve" smooth="yes"/>
      <point x="420.0" y="-162.0"/>
      <point x="486.0" y="-111.0"/>
    </contour>
  </outline>
</glyph>
<glyph name="Eng" format="1">
  <advance width="503.0"/>
  <unicode hex="014A"/>
  <outline>
    <contour>
      <point x="486.0" y="3.0" type="curve" smooth="yes"/>
      <point x="486.0" y="625.0" type="line"/>
      <point x="312.0" y="625.0" type="line"/>
      <point x="312.0" y="344.0" type="line"/>
      <point x="199.0" y="625.0" type="line"/>
      <point x="17.0" y="625.0" type="line"/>
      <point x="17.0" y="0.0" type="line"/>
      <point x="192.0" y="0.0" type="line"/>
      <point x="192.0" y="291.0" type="line"/>
      <point x="305.0" y="16.0" type="line"/>
      <point x="305.0" y="1.7142857142857153"/>
      <point x="300.0" y="-9.0"/>
      <point x="285.0" y="-9.0" type="curve"/>
      <point x="278.0" y="-9.0"/>
      <point x="277.0" y="-9.0"/>
      <point x="269.0" y="-8.0" type="curve"/>
      <point x="269.0" y="-156.0" type="line"/>
      <point x="278.0" y="-158.0"/>
      <point x="296.0" y="-162.0"/>
      <point x="334.0" y="-162.0" type="curve" smooth="yes"/>
      <point x="420.0" y="-162.0"/>
      <point x="486.0" y="-111.0"/>
    </contour>
  </outline>
</glyph>
<glyph name="eng" format="1">
  <advance width="430.0"/>
  <unicode hex="014B"/>
  <outline>
    <contour>
      <point x="14.0" y="0.0" type="line"/>
      <point x="201.0" y="0.0" type="line"/>
      <point x="201.0" y="441.0" type="line"/>
      <point x="182.0" y="441.0" type="line"/>
      <point x="176.0" y="494.0" type="line"/>
      <point x="14.0" y="494.0" type="line"/>
    </contour>
    <contour>
      <point x="418.0" y="-6.0" type="curve" smooth="yes"/>
      <point x="418.0" y="373.0" type="line" smooth="yes"/>
      <point x="418.0" y="461.0"/>
      <point x="375.0" y="504.0"/>
      <point x="308.0" y="504.0" type="curve"/>
      <point x="242.0" y="504.0"/>
      <point x="203.0" y="468.0"/>
      <point x="167.0" y="414.0" type="curve"/>
      <point x="167.0" y="305.0" type="line"/>
      <point x="179.0" y="317.0"/>
      <point x="196.0" y="333.0"/>
      <point x="216.0" y="333.0" type="curve" smooth="yes"/>
      <point x="228.0" y="333.0"/>
      <point x="231.0" y="325.0"/>
      <point x="231.0" y="311.0" type="curve" smooth="yes"/>
      <point x="231.0" y="0.0" type="line" smooth="yes"/>
      <point x="231.0" y="-17.0"/>
      <point x="225.0" y="-23.0"/>
      <point x="213.0" y="-23.0" type="curve" smooth="yes"/>
      <point x="208.0" y="-23.0"/>
      <point x="207.0" y="-23.0"/>
      <point x="201.0" y="-22.0" type="curve"/>
      <point x="201.0" y="-155.0" type="line"/>
      <point x="210.0" y="-157.0"/>
      <point x="228.0" y="-161.0"/>
      <point x="266.0" y="-161.0" type="curve" smooth="yes"/>
      <point x="352.0" y="-161.0"/>
      <point x="418.0" y="-113.0"/>
    </contour>
  </outline>
</glyph>
<glyph name="OE" format="1">
  <advance width="635.0"/>
  <unicode hex="0152"/>
  <outline>
    <contour>
      <point x="241.0" y="-10.0" type="curve"/>
      <point x="395.0" y="-10.0"/>
      <point x="455.0" y="81.0"/>
      <point x="455.0" y="312.0" type="curve"/>
      <point x="455.0" y="550.0"/>
      <point x="400.0" y="635.0"/>
      <point x="241.0" y="635.0" type="curve"/>
      <point x="74.0" y="635.0"/>
      <point x="9.0" y="543.0"/>
      <point x="9.0" y="312.0" type="curve"/>
      <point x="9.0" y="74.0"/>
      <point x="68.0" y="-10.0"/>
    </contour>
    <contour>
      <point x="241.0" y="176.0" type="curve"/>
      <point x="207.0" y="176.0"/>
      <point x="204.0" y="210.0"/>
      <point x="204.0" y="312.0" type="curve"/>
      <point x="204.0" y="420.0"/>
      <point x="207.0" y="455.0"/>
      <point x="241.0" y="455.0" type="curve"/>
      <point x="276.0" y="455.0"/>
      <point x="280.0" y="420.0"/>
      <point x="280.0" y="312.0" type="curve"/>
      <point x="280.0" y="210.0"/>
      <point x="276.0" y="176.0"/>
    </contour>
    <contour>
      <point x="433.0" y="445.0" type="line"/>
      <point x="618.0" y="445.0" type="line"/>
      <point x="618.0" y="625.0" type="line"/>
      <point x="293.0" y="625.0" type="line"/>
    </contour>
    <contour>
      <point x="435.0" y="230.0" type="line"/>
      <point x="587.0" y="230.0" type="line"/>
      <point x="587.0" y="401.0" type="line"/>
      <point x="435.0" y="401.0" type="line"/>
    </contour>
    <contour>
      <point x="296.0" y="0.0" type="line"/>
      <point x="625.0" y="0.0" type="line"/>
      <point x="625.0" y="185.0" type="line"/>
      <point x="436.0" y="185.0" type="line"/>
    </contour>
  </outline>
</glyph>
<glyph name="OE" format="2">
  <advance width="635"/>
  <unicode hex="0152"/>
  <outline>
    <contour>
      <point x="241.0" y="-10.0" type="curve"/>
      <point x="395.0" y="-10.0"/>
      <point x="455.0" y="81.0"/>
      <point x="455.0" y="312.0" type="curve"/>
      <point x="455.0" y="550.0"/>
      <point x="400.0" y="635.0"/>
      <point x="241.0" y="635.0" type="curve"/>
      <point x="74.0" y="635.0"/>
      <point x="9.0" y="543.0"/>
      <point x="9.0" y="312.0" type="curve"/>
      <point x="9.0" y="74.0"/>
      <point x="68.0" y="-10.0"/>
    </contour>
    <contour>
      <point x="241.0" y="176.0" type="curve"/>
      <point x="207.0" y="176.0"/>
      <point x="204.0" y="210.0"/>
      <point x="204.0" y="312.0" type="curve"/>
      <point x="204.0" y="420.0"/>
      <point x="207.0" y="455.0"/>
      <point x="241.0" y="455.0" type="curve"/>
      <point x="276.0" y="455.0"/>
      <point x="280.0" y="420.0"/>
      <point x="280.0" y="312.0" type="curve"/>
      <point x="280.0" y="210.0"/>
      <point x="276.0" y="176.0"/>
    </contour>
    <contour>
      <point x="433.0" y="445.0" type="line"/>
      <point x="618.0" y="445.0" type="line"/>
      <point x="618.0" y="625.0" type="line"/>
      <point x="293.0" y="625.0" type="line"/>
    </contour>
    <contour>
      <point x="435.0" y="230.0" type="line"/>
      <point x="587.0" y="230.0" type="line"/>
      <point x="587.0" y="401.0" type="line"/>
      <point x="435.0" y="401.0" type="line"/>
    </contour>
    <contour>
      <point x="296.0" y="0.0" type="line"/>
      <point x="625.0" y="0.0" type="line"/>
      <point x="625.0" y="185.0" type="line"/>
      <point x="436.0" y="185.0" type="line"/>
    </contour>
  </outline>
</glyph>
<glyph name="oe" format="1">
  <advance width="637.0"/>
  <unicode hex="0153"/>
  <outline>
    <contour>
      <point x="211.0" y="-10.0" type="curve"/>
      <point x="342.1264367816092" y="-10.0"/>
      <point x="395.0" y="62.0"/>
      <point x="395.0" y="246.0" type="curve"/>
      <point x="395.0" y="428.0"/>
      <point x="338.95402298850576" y="504.0"/>
      <point x="211.0" y="504.0" type="curve"/>
      <point x="65.14953271028037" y="504.0"/>
      <point x="7.0" y="442.0"/>
      <point x="7.0" y="246.0" type="curve"/>
      <point x="7.0" y="55.0"/>
      <point x="68.96261682242991" y="-10.0"/>
    </contour>
    <contour>
      <point x="221.0" y="165.0" type="curve"/>
      <point x="197.0" y="165.0"/>
      <point x="194.0" y="179.0"/>
      <point x="194.0" y="249.0" type="curve"/>
      <point x="194.0" y="319.0"/>
      <point x="197.0" y="333.0"/>
      <point x="221.0" y="333.0" type="curve"/>
      <point x="246.0" y="333.0"/>
      <point x="248.0" y="319.0"/>
      <point x="248.0" y="249.0" type="curve"/>
      <point x="248.0" y="179.0"/>
      <point x="246.0" y="165.0"/>
    </contour>
    <contour>
      <point x="445.0" y="358.0" type="curve"/>
      <point x="463.0" y="358.0"/>
      <point x="466.0" y="344.0"/>
      <point x="466.0" y="319.0" type="curve" smooth="yes"/>
      <point x="466.0" y="310.0"/>
      <point x="466.0" y="301.0"/>
      <point x="466.0" y="296.0" type="curve"/>
      <point x="422.0" y="296.0" type="line"/>
      <point x="422.0" y="336.0"/>
      <point x="422.0" y="358.0"/>
    </contour>
    <contour>
      <point x="612.0" y="25.0" type="curve"/>
      <point x="612.0" y="177.0" type="line"/>
      <point x="593.0" y="172.0"/>
      <point x="531.0" y="161.0"/>
      <point x="461.0" y="161.0" type="curve"/>
      <point x="429.0" y="161.0"/>
      <point x="422.0" y="169.0"/>
      <point x="422.0" y="194.0" type="curve"/>
      <point x="626.0" y="194.0" type="line"/>
      <point x="629.0" y="231.0"/>
      <point x="630.0" y="255.0"/>
      <point x="630.0" y="302.0" type="curve" smooth="yes"/>
      <point x="630.0" y="435.0"/>
      <point x="596.9153439153439" y="504.0"/>
      <point x="461.0" y="504.0" type="curve"/>
      <point x="338.9605263157895" y="504.0"/>
      <point x="286.0" y="421.0"/>
      <point x="286.0" y="245.0" type="curve" smooth="yes"/>
      <point x="286.0" y="67.0"/>
      <point x="331.3169014084507" y="-10.0"/>
      <point x="451.0" y="-10.0" type="curve"/>
      <point x="535.5027624309392" y="-10.0"/>
      <point x="593.4541007309634" y="12.017870511674369"/>
    </contour>
  </outline>
</glyph>
<glyph name="Tbar" format="2">
  <advance width="431"/>
  <unicode hex="0166"/>
  <outline>
    <contour>
      <point x="392.0" y="219.0" type="line"/>
      <point x="392.0" y="348.0" type="line"/>
      <point x="39.0" y="348.0" type="line"/>
      <point x="39.0" y="219.0" type="line"/>
    </contour>
    <component base="T" xOffset="2"/>
  </outline>
</glyph>
<glyph name="Tbar" format="1">
  <advance width="431.0"/>
  <unicode hex="0166"/>
  <outline>
    <contour>
      <point x="392.0" y="219.0" type="line"/>
      <point x="392.0" y="348.0" type="line"/>
      <point x="39.0" y="348.0" type="line"/>
      <point x="39.0" y="219.0" type="line"/>
    </contour>
    <component base="T" xOffset="2.0"/>
  </outline>
</glyph>
<glyph name="tbar" format="1">
  <advance width="321.0"/>
  <unicode hex="0167"/>
  <outline>
    <contour>
      <point x="306.0" y="217.0" type="line"/>
      <point x="306.0" y="300.0" type="line"/>
      <point x="13.0" y="300.0" type="line"/>
      <point x="13.0" y="217.0" type="line"/>
    </contour>
    <component base="t"/>
  </outline>
</glyph>
<glyph name="uni018F" format="1">
  <advance width="473.0"/>
  <unicode hex="018F"/>
  <outline>
    <contour>
      <point x="465.0" y="314.0" type="curve" smooth="yes"/>
      <point x="465.0" y="533.6315789473684"/>
      <point x="400.0" y="635.0"/>
      <point x="219.0" y="635.0" type="curve"/>
      <point x="148.0" y="635.0"/>
      <point x="86.0" y="626.0"/>
      <point x="56.0" y="617.0" type="curve"/>
      <point x="56.0" y="446.0" type="line"/>
      <point x="92.0" y="453.0"/>
      <point x="139.0" y="460.0"/>
      <point x="192.0" y="460.0" type="curve"/>
      <point x="257.0" y="460.0"/>
      <point x="266.0" y="430.0"/>
      <point x="266.0" y="309.0" type="curve"/>
      <point x="266.0" y="202.0"/>
      <point x="262.0" y="165.0"/>
      <point x="231.0" y="165.0" type="curve" smooth="yes"/>
      <point x="210.0" y="165.0"/>
      <point x="199.0" y="186.0"/>
      <point x="199.0" y="231.0" type="curve" smooth="yes"/>
      <point x="199.0" y="238.0"/>
      <point x="199.0" y="242.0"/>
      <point x="200.0" y="251.0" type="curve"/>
      <point x="328.0" y="251.0" type="line"/>
      <point x="328.0" y="388.0" type="line"/>
      <point x="16.0" y="388.0" type="line"/>
      <point x="10.0" y="341.0"/>
      <point x="7.0" y="310.0"/>
      <point x="7.0" y="254.0" type="curve"/>
      <point x="7.0" y="75.67547169811323"/>
      <point x="79.0" y="-10.0"/>
      <point x="218.0" y="-10.0" type="curve"/>
      <point x="383.0" y="-10.0"/>
      <point x="465.0" y="79.72307692307692"/>
    </contour>
  </outline>
</glyph>
<glyph name="florin" format="2">
  <advance width="378"/>
  <unicode hex="0192"/>
  <outline>
    <contour>
      <point x="369.0" y="626.0" type="line"/>
      <point x="357.801046094252" y="629.7329846352493"/>
      <point x="317.0" y="638.0"/>
      <point x="282.0" y="638.0" type="curve" smooth="yes"/>
      <point x="153.0" y="638.0"/>
      <point x="107.23148221866849" y="590.3642029369022"/>
      <point x="90.0" y="464.0" type="curve" smooth="yes"/>
      <point x="6.0" y="-152.0" type="line"/>
      <point x="200.0" y="-152.0" type="line"/>
      <point x="276.0" y="418.0" type="line" smooth="yes"/>
      <point x="280.9185505728814" y="454.88912929661"/>
      <point x="292.0" y="465.0"/>
      <point x="320.0" y="465.0" type="curve"/>
      <point x="332.0" y="465.0"/>
      <point x="354.0" y="463.0"/>
      <point x="369.0" y="461.0" type="curve"/>
    </contour>
    <contour>
      <point x="27.0" y="279.0" type="line"/>
      <point x="352.0" y="279.0" type="line"/>
      <point x="352.0" y="383.0" type="line"/>
      <point x="27.0" y="383.0" type="line"/>
    </contour>
  </outline>
</glyph>
<glyph name="uni01B5" format="1">
  <advance width="411.0"/>
  <unicode hex="01B5"/>
  <outline>
    <contour>
      <point x="386.0" y="269.0" type="line"/>
      <point x="386.0" y="376.0" type="line"/>
      <point x="21.0" y="376.0" type="line"/>
      <point x="21.0" y="269.0" type="line"/>
    </contour>
    <component base="Z" xOffset="3.0"/>
  </outline>
</glyph>
<glyph name="uni01B5" format="2">
  <advance width="411"/>
  <unicode hex="01B5"/>
  <outline>
    <contour>
      <point x="386.0" y="269.0" type="line"/>
      <point x="386.0" y="376.0" type="line"/>
      <point x="21.0" y="376.0" type="line"/>
      <point x="21.0" y="269.0" type="line"/>
    </contour>
    <component base="Z" xOffset="3"/>
  </outline>
</glyph>
<glyph name="uni01B6" format="2">
  <advance width="345"/>
  <unicode hex="01B6"/>
  <outline>
    <contour>
      <point x="322.0" y="214.0" type="line"/>
      <point x="322.0" y="297.0" type="line"/>
      <point x="19.0" y="297.0" type="line"/>
      <point x="19.0" y="214.0" type="line"/>
    </contour>
    <component base="z"/>
  </outline>
</glyph>
<glyph name="uni0237" format="2">
  <advance width="218"/>
  <unicode hex="0237"/>
  <anchor x="112.0" y="520" name="top"/>
  <outline>
    <contour>
      <point x="-13.0" y="-156.0" type="line"/>
      <point x="-4.0" y="-158.0"/>
      <point x="14.0" y="-162.0"/>
      <point x="52.0" y="-162.0" type="curve" smooth="yes"/>
      <point x="138.0" y="-162.0"/>
      <point x="204.0" y="-114.0909090909091"/>
      <point x="204.0" y="-7.0" type="curve" smooth="yes"/>
      <point x="204.0" y="494.0" type="line"/>
      <point x="17.0" y="494.0" type="line"/>
      <point x="17.0" y="-1.0" type="line" smooth="yes"/>
      <point x="17.0" y="-18.0"/>
      <point x="11.0" y="-24.0"/>
      <point x="-1.0" y="-24.0" type="curve" smooth="yes"/>
      <point x="-6.0" y="-24.0"/>
      <point x="-7.0" y="-24.0"/>
      <point x="-13.0" y="-23.0" type="curve"/>
    </contour>
  </outline>
</glyph>
<glyph name="uni0259" format="1">
  <advance width="405.0"/>
  <unicode hex="0259"/>
  <outline>
    <contour>
      <point x="193.0" y="136.0" type="curve"/>
      <point x="175.0" y="136.0"/>
      <point x="171.0" y="147.0"/>
      <point x="171.0" y="176.0" type="curve" smooth="yes"/>
      <point x="171.0" y="185.0"/>
      <point x="171.0" y="193.0"/>
      <point x="171.0" y="198.0" type="curve"/>
      <point x="215.0" y="198.0" type="line"/>
      <point x="215.0" y="158.0"/>
      <point x="215.0" y="136.0"/>
    </contour>
    <contour>
      <point x="25.0" y="473.0" type="curve"/>
      <point x="25.0" y="324.0" type="line"/>
      <point x="44.0" y="330.0"/>
      <point x="106.0" y="340.0"/>
      <point x="172.0" y="340.0" type="curve" smooth="yes"/>
      <point x="208.0" y="340.0"/>
      <point x="215.0" y="331.0"/>
      <point x="215.0" y="296.0" type="curve"/>
      <point x="11.0" y="296.0" type="line"/>
      <point x="8.0" y="261.0"/>
      <point x="7.0" y="236.0"/>
      <point x="7.0" y="191.0" type="curve" smooth="yes"/>
      <point x="7.0" y="59.31034482758622"/>
      <point x="48.0" y="-10.0"/>
      <point x="195.0" y="-10.0" type="curve"/>
      <point x="335.0" y="-10.0"/>
      <point x="398.0" y="73.35384615384615"/>
      <point x="398.0" y="248.0" type="curve" smooth="yes"/>
      <point x="398.0" y="427.0"/>
      <point x="339.0" y="504.0"/>
      <point x="197.0" y="504.0" type="curve"/>
      <point x="112.0" y="504.0"/>
      <point x="50.0" y="487.0"/>
    </contour>
  </outline>
</glyph>
<glyph name="circumflex" format="1">
  <advance width="398.0"/>
  <unicode hex="02C6"/>
  <outline>
    <contour>
      <point x="229.0" y="530.0" type="line"/>
      <point x="362.0" y="530.0" type="line"/>
      <point x="278.0" y="635.0" type="line"/>
      <point x="119.0" y="635.0" type="line"/>
      <point x="36.0" y="530.0" type="line"/>
      <point x="168.0" y="530.0" type="line"/>
      <point x="199.0" y="572.0" type="line"/>
    </contour>
    <contour>
      <point x="199" y="530" type="move" name="_top"/>
    </contour>
  </outline>
</glyph>
<glyph name="breve" format="2">
  <advance width="313"/>
  <unicode hex="02D8"/>
  <anchor x="157" y="530" name="_top"/>
  <outline>
    <contour>
      <point x="277.0" y="635.0" type="curve"/>
      <point x="176.0" y="635.0" type="line"/>
      <point x="176.0" y="612.0"/>
      <point x="169.66666666666666" y="603.0"/>
      <point x="157.0" y="603.0" type="curve" smooth="yes"/>
      <point x="147.0" y="603.0"/>
      <point x="139.0" y="613.0"/>
      <point x="139.0" y="635.0" type="curve"/>
      <point x="38.0" y="635.0" type="line"/>
      <point x="44.0" y="556.0"/>
      <point x="92.0" y="523.0"/>
      <point x="157.0" y="523.0" type="curve" smooth="yes"/>
      <point x="222.0" y="523.0"/>
      <point x="271.0" y="556.0"/>
    </contour>
  </outline>
</glyph>
<glyph name="dotaccent" format="2">
  <advance width="260"/>
  <unicode hex="02D9"/>
  <anchor x="132" y="530" name="_top"/>
  <outline>
    <contour>
      <point x="56.0" y="530.0" type="line"/>
      <point x="204.0" y="530.0" type="line"/>
      <point x="204.0" y="635.0" type="line"/>
      <point x="56.0" y="635.0" type="line"/>
    </contour>
  </outline>
</glyph>
<glyph name="ring" format="2">
  <advance width="277"/>
  <unicode hex="02DA"/>
  <anchor x="137.0" y="530.0" name="_top"/>
  <outline>
    <contour>
      <point x="137.0" y="582.0" type="curve" smooth="yes"/>
      <point x="119.0" y="582.0"/>
      <point x="110.0" y="589.5"/>
      <point x="110.0" y="602.0" type="curve" smooth="yes"/>
      <point x="110.0" y="614.6"/>
      <point x="119.0" y="623.0"/>
      <point x="137.0" y="623.0" type="curve" smooth="yes"/>
      <point x="153.0" y="623.0"/>
      <point x="164.0" y="614.6"/>
      <point x="164.0" y="602.0" type="curve" smooth="yes"/>
      <point x="164.0" y="589.5"/>
      <point x="153.0" y="582.0"/>
    </contour>
    <contour>
      <point x="137.0" y="523.0" type="curve" smooth="yes"/>
      <point x="199.0" y="523.0"/>
      <point x="241.0" y="552.2921348314607"/>
      <point x="241.0" y="602.0" type="curve" smooth="yes"/>
      <point x="241.0" y="652.5227272727273"/>
      <point x="200.0" y="680.0"/>
      <point x="137.0" y="680.0" type="curve" smooth="yes"/>
      <point x="74.0" y="680.0"/>
      <point x="33.0" y="652.5227272727273"/>
      <point x="33.0" y="602.0" type="curve" smooth="yes"/>
      <point x="33.0" y="552.2921348314607"/>
      <point x="75.0" y="523.0"/>
    </contour>
  </outline>
</glyph>
<glyph name="ogonek" format="1">
  <advance width="276.0"/>
  <unicode hex="02DB"/>
  <outline>
    <contour>
      <point x="240.0" y="9.0" type="curve"/>
      <point x="173.0" y="26.0" type="line"/>
      <point x="98.10378768835547" y="17.903112182524914"/>
      <point x="27.0" y="-15.280991735537185"/>
      <point x="27.0" y="-85.0" type="curve"/>
      <point x="27.0" y="-137.44444444444446"/>
      <point x="64.0" y="-165.0"/>
      <point x="133.0" y="-165.0" type="curve" smooth="yes"/>
      <point x="167.0" y="-165.0"/>
      <point x="190.0" y="-159.0"/>
      <point x="203.0" y="-154.0" type="curve"/>
      <point x="203.0" y="-74.0" type="line"/>
      <point x="197.0" y="-76.0"/>
      <point x="188.0" y="-77.0"/>
      <point x="180.0" y="-77.0" type="curve" smooth="yes"/>
      <point x="153.0" y="-77.0"/>
      <point x="144.0" y="-66.0"/>
      <point x="144.0" y="-46.0" type="curve" smooth="yes"/>
      <point x="144.0" y="-11.307692307692307"/>
      <point x="200.21907969401107" y="1.0438159388022132"/>
    </contour>
    <contour>
      <point x="240" y="9" type="move" name="_ogonek"/>
    </contour>
  </outline>
</glyph>
<glyph name="tilde" format="2">
  <advance width="332"/>
  <unicode hex="02DC"/>
  <guideline x="166" y="600" angle="90" name="mid" identifier="JsUfMqz36O"/>
  <anchor x="166" y="530" name="_top"/>
  <outline>
    <contour>
      <point x="296.0" y="635.0" type="curve"/>
      <point x="208.0" y="635.0" type="line"/>
      <point x="208.0" y="626.6666666666666"/>
      <point x="208.0" y="615.0"/>
      <point x="195.0" y="615.0" type="curve"/>
      <point x="177.0" y="615.0"/>
      <point x="139.0" y="639.0"/>
      <point x="106.0" y="639.0" type="curve" smooth="yes"/>
      <point x="49.0" y="639.0"/>
      <point x="36.0" y="581.06993006993"/>
      <point x="36.0" y="530.0" type="curve"/>
      <point x="124.0" y="530.0" type="line"/>
      <point x="124.0" y="538.3333333333334"/>
      <point x="124.0" y="550.0"/>
      <point x="137.0" y="550.0" type="curve"/>
      <point x="155.0" y="550.0"/>
      <point x="193.0" y="526.0"/>
      <point x="226.0" y="526.0" type="curve" smooth="yes"/>
      <point x="283.0" y="526.0"/>
      <point x="296.0" y="583.93006993007"/>
    </contour>
  </outline>
</glyph>
<glyph name="hungarumlaut" format="2">
  <advance width="492"/>
  <unicode hex="02DD"/>
  <anchor x="218.0" y="530.0" name="_top"/>
  <outline>
    <contour>
      <point x="99.0" y="635.0" type="line"/>
      <point x="30.0" y="530.0" type="line"/>
      <point x="156.0" y="530.0" type="line"/>
      <point x="252.0" y="635.0" type="line"/>
    </contour>
    <contour>
      <point x="269.0" y="635.0" type="line"/>
      <point x="201.0" y="530.0" type="line"/>
      <point x="327.0" y="530.0" type="line"/>
      <point x="423.0" y="635.0" type="line"/>
    </contour>
  </outline>
</glyph>
<glyph name="uni0312" format="2">
  <advance width="217"/>
  <unicode hex="0312"/>
  <anchor x="109.0" y="530.0" name="_top"/>
  <outline>
    <contour>
      <point x="57.0" y="614.0" type="curve" smooth="yes"/>
      <point x="43.0" y="530.0" type="line"/>
      <point x="177.0" y="530.0" type="line"/>
      <point x="177.0" y="675.0" type="line"/>
      <point x="130.0" y="675.0" type="line" smooth="yes"/>
      <point x="91.0" y="675.0"/>
      <point x="63.0" y="652.0"/>
    </contour>
  </outline>
</glyph>
<glyph name="uni0326" format="2">
  <advance width="217"/>
  <unicode hex="0326"/>
  <anchor x="109" y="0" name="_bottom"/>
  <outline>
    <contour>
      <point x="165.0" y="-102.0" type="curve" smooth="yes"/>
      <point x="179.0" y="-18.0" type="line"/>
      <point x="45.0" y="-18.0" type="line"/>
      <point x="45.0" y="-163.0" type="line"/>
      <point x="92.0" y="-163.0" type="line" smooth="yes"/>
      <point x="131.0" y="-163.0"/>
      <point x="159.0" y="-140.0"/>
    </contour>
  </outline>
</glyph>
<glyph name="uni0394" format="1">
  <advance width="505.0"/>
  <unicode hex="0394"/>
  <outline>
    <contour>
      <point x="380.0" y="0.0" type="line"/>
      <point x="497.0" y="0.0" type="line"/>
      <point x="497.0" y="183.0" type="line"/>
      <point x="352.0" y="625.0" type="line"/>
      <point x="193.0" y="625.0" type="line"/>
    </contour>
    <contour>
      <point x="121.0" y="0.0" type="line"/>
      <point x="308.0" y="625.0" type="line"/>
      <point x="153.0" y="625.0" type="line"/>
      <point x="8.0" y="183.0" type="line"/>
      <point x="8.0" y="0.0" type="line"/>
    </contour>
    <contour>
      <point x="103.0" y="183.0" type="line"/>
      <point x="103.0" y="0.0" type="line"/>
      <point x="396.0" y="0.0" type="line"/>
      <point x="396.0" y="183.0" type="line"/>
    </contour>
  </outline>
</glyph>
<glyph name="uni03A9" format="2">
  <advance width="546"/>
  <unicode hex="03A9"/>
  <outline>
    <contour>
      <point x="256.0" y="0.0" type="line"/>
      <point x="256.0" y="242.0" type="line"/>
      <point x="110.0" y="242.0" type="line"/>
      <point x="110.0" y="0.0" type="line"/>
    </contour>
    <contour>
      <point x="27.0" y="160.0" type="line"/>
      <point x="27.0" y="0.0" type="line"/>
      <point x="256.0" y="0.0" type="line"/>
      <point x="256.0" y="160.0" type="line"/>
    </contour>
    <contour>
      <point x="256.0" y="147.0" type="curve"/>
      <point x="256.0" y="271.0" type="line"/>
      <point x="221.0" y="280.0"/>
      <point x="204.0" y="316.0"/>
      <point x="204.0" y="370.0" type="curve" smooth="yes"/>
      <point x="204.0" y="436.0"/>
      <point x="227.0" y="468.0"/>
      <point x="273.0" y="468.0" type="curve" smooth="yes"/>
      <point x="318.0" y="468.0"/>
      <point x="341.0" y="436.0"/>
      <point x="341.0" y="370.0" type="curve" smooth="yes"/>
      <point x="341.0" y="316.0"/>
      <point x="325.0" y="283.0"/>
      <point x="290.0" y="271.0" type="curve"/>
      <point x="290.0" y="147.0" type="line"/>
      <point x="445.0" y="138.0"/>
      <point x="540.0" y="239.0"/>
      <point x="540.0" y="387.0" type="curve"/>
      <point x="540.0" y="539.0"/>
      <point x="451.0" y="647.0"/>
      <point x="273.0" y="647.0" type="curve" smooth="yes"/>
      <point x="94.0" y="647.0"/>
      <point x="6.0" y="540.0"/>
      <point x="6.0" y="385.0" type="curve"/>
      <point x="6.0" y="239.0"/>
      <point x="100.0" y="138.0"/>
    </contour>
    <contour>
      <point x="290.0" y="0.0" type="line"/>
      <point x="436.0" y="0.0" type="line"/>
      <point x="436.0" y="242.0" type="line"/>
      <point x="290.0" y="242.0" type="line"/>
    </contour>
    <contour>
      <point x="519.0" y="160.0" type="line"/>
      <point x="290.0" y="160.0" type="line"/>
      <point x="290.0" y="0.0" type="line"/>
      <point x="519.0" y="0.0" type="line"/>
    </contour>
  </outline>
</glyph>
<glyph name="pi" format="2">
  <advance width="468"/>
  <unicode hex="03C0"/>
  <outline>
    <contour>
      <point x="12.0" y="494.0" type="line"/>
      <point x="12.0" y="307.0" type="line"/>
      <point x="459.0" y="307.0" type="line"/>
      <point x="459.0" y="494.0" type="line"/>
    </contour>
    <contour>
      <point x="414.0" y="212.0" type="curve" smooth="yes"/>
      <point x="414.0" y="373.0" type="line"/>
      <point x="245.0" y="373.0" type="line"/>
      <point x="245.0" y="128.0" type="line" smooth="yes"/>
      <point x="245.0" y="42.0"/>
      <point x="287.0" y="0.0"/>
      <point x="356.0" y="0.0" type="curve" smooth="yes"/>
      <point x="442.0" y="0.0" type="line"/>
      <point x="442.0" y="180.0" type="line"/>
      <point x="428.0" y="180.0" type="line" smooth="yes"/>
      <point x="416.0" y="180.0"/>
      <point x="414.0" y="190.0"/>
    </contour>
    <contour>
      <point x="189.0" y="0.0" type="line"/>
      <point x="199.0" y="51.0"/>
      <point x="231.0" y="186.0"/>
      <point x="225.0" y="373.0" type="curve"/>
      <point x="57.0" y="373.0" type="line"/>
      <point x="67.0" y="208.0"/>
      <point x="22.0" y="64.0"/>
      <point x="3.0" y="0.0" type="curve"/>
    </contour>
  </outline>
</glyph>
<glyph name="uni1E9E" format="2">
  <advance width="523"/>
  <unicode hex="1E9E"/>
  <outline>
    <contour>
      <point x="246.0" y="635.0" type="curve"/>
      <point x="97.0" y="635.0"/>
      <point x="15.0" y="574.5893719806763"/>
      <point x="15.0" y="430.0" type="curve" smooth="yes"/>
      <point x="15.0" y="0.0" type="line"/>
      <point x="208.0" y="0.0" type="line"/>
      <point x="208.0" y="423.0" type="line" smooth="yes"/>
      <point x="208.0" y="453.0"/>
      <point x="219.0" y="466.0"/>
      <point x="238.0" y="466.0" type="curve" smooth="yes"/>
      <point x="248.0" y="466.0"/>
      <point x="256.0" y="465.0"/>
      <point x="263.0" y="463.0" type="curve"/>
      <point x="243.0" y="252.0" type="line"/>
      <point x="326.0" y="228.0" type="line" smooth="yes"/>
      <point x="339.0" y="224.0"/>
      <point x="348.0" y="219.0"/>
      <point x="348.0" y="200.0" type="curve" smooth="yes"/>
      <point x="348.0" y="176.0"/>
      <point x="341.0" y="163.0"/>
      <point x="324.0" y="163.0" type="curve"/>
      <point x="300.0" y="163.0"/>
      <point x="279.0" y="165.0"/>
      <point x="253.0" y="170.0" type="curve"/>
      <point x="253.0" y="3.0" type="line"/>
      <point x="286.0" y="-4.0"/>
      <point x="315.0" y="-10.0"/>
      <point x="360.0" y="-10.0" type="curve"/>
      <point x="466.0" y="-10.0"/>
      <point x="520.0" y="43.0"/>
      <point x="520.0" y="196.0" type="curve"/>
      <point x="520.0" y="311.0"/>
      <point x="498.0" y="338.0"/>
      <point x="447.0" y="360.0" type="curve" smooth="yes"/>
      <point x="426.0" y="369.0" type="line"/>
      <point x="458.0" y="603.0" type="line"/>
      <point x="396.0" y="622.0"/>
      <point x="327.0" y="635.0"/>
    </contour>
  </outline>
</glyph>
<glyph name="endash" format="2">
  <advance width="320"/>
  <unicode hex="2013"/>
  <outline>
    <contour>
      <point x="310.0" y="248.0" type="line"/>
      <point x="310.0" y="390.0" type="line"/>
      <point x="10.0" y="390.0" type="line"/>
      <point x="10.0" y="248.0" type="line"/>
    </contour>
  </outline>
</glyph>
<glyph name="emdash" format="2">
  <advance width="492"/>
  <unicode hex="2014"/>
  <outline>
    <contour>
      <point x="482.0" y="248.0" type="line"/>
      <point x="482.0" y="390.0" type="line"/>
      <point x="10.0" y="390.0" type="line"/>
      <point x="10.0" y="248.0" type="line"/>
    </contour>
  </outline>
</glyph>
<glyph name="quoteright" format="2">
  <advance width="168"/>
  <unicode hex="2019"/>
  <outline>
    <contour>
      <point x="142.0" y="433.0" type="curve" smooth="yes"/>
      <point x="171.0" y="625.0" type="line"/>
      <point x="10.0" y="625.0" type="line"/>
      <point x="10.0" y="373.0" type="line"/>
      <point x="69.0" y="373.0" type="line" smooth="yes"/>
      <point x="107.0" y="373.0"/>
      <point x="136.0" y="397.0"/>
    </contour>
  </outline>
</glyph>
<glyph name="dagger" format="2">
  <advance width="215"/>
  <unicode hex="2020"/>
  <outline>
    <contour>
      <point x="92.0" y="537.0" type="line"/>
      <point x="92.0" y="476.0" type="line"/>
      <point x="209.0" y="467.0" type="line"/>
      <point x="209.0" y="545.0" type="line"/>
    </contour>
    <contour>
      <point x="154.0" y="300.0" type="line"/>
      <point x="145.0" y="506.0" type="line"/>
      <point x="72.0" y="506.0" type="line"/>
      <point x="62.0" y="300.0" type="line"/>
    </contour>
    <contour>
      <point x="123.0" y="477.0" type="line"/>
      <point x="123.0" y="538.0" type="line"/>
      <point x="6.0" y="545.0" type="line"/>
      <point x="6.0" y="467.0" type="line"/>
    </contour>
    <contour>
      <point x="72.0" y="494.0" type="line"/>
      <point x="145.0" y="494.0" type="line"/>
      <point x="151.0" y="625.0" type="line"/>
      <point x="65.0" y="625.0" type="line"/>
    </contour>
  </outline>
</glyph>
<glyph name="daggerdbl" format="2">
  <advance width="222"/>
  <unicode hex="2021"/>
  <outline>
    <contour>
      <point x="96.0" y="537.0" type="line"/>
      <point x="96.0" y="477.0" type="line"/>
      <point x="212.0" y="468.0" type="line"/>
      <point x="212.0" y="545.0" type="line"/>
    </contour>
    <contour>
      <point x="149.0" y="313.0" type="line"/>
      <point x="149.0" y="506.0" type="line"/>
      <point x="75.0" y="506.0" type="line"/>
      <point x="75.0" y="313.0" type="line"/>
    </contour>
    <contour>
      <point x="126.0" y="478.0" type="line"/>
      <point x="126.0" y="538.0" type="line"/>
      <point x="10.0" y="545.0" type="line"/>
      <point x="10.0" y="468.0" type="line"/>
    </contour>
    <contour>
      <point x="76.0" y="494.0" type="line"/>
      <point x="148.0" y="494.0" type="line"/>
      <point x="154.0" y="625.0" type="line"/>
      <point x="69.0" y="625.0" type="line"/>
    </contour>
    <contour>
      <point x="126.0" y="308.0" type="line"/>
      <point x="126.0" y="367.0" type="line"/>
      <point x="10.0" y="376.0" type="line"/>
      <point x="10.0" y="299.0" type="line"/>
    </contour>
    <contour>
      <point x="96.0" y="367.0" type="line"/>
      <point x="96.0" y="306.0" type="line"/>
      <point x="212.0" y="299.0" type="line"/>
      <point x="212.0" y="376.0" type="line"/>
    </contour>
    <contour>
      <point x="147.0" y="350.0" type="line"/>
      <point x="75.0" y="350.0" type="line"/>
      <point x="69.0" y="219.0" type="line"/>
      <point x="154.0" y="219.0" type="line"/>
    </contour>
  </outline>
</glyph>
<glyph name="ellipsis" format="2">
  <advance width="462"/>
  <unicode hex="2026"/>
  <outline>
    <contour>
      <point x="176.0" y="0.0" type="line"/>
      <point x="288.0" y="0.0" type="line"/>
      <point x="288.0" y="141.0" type="line"/>
      <point x="176.0" y="141.0" type="line"/>
    </contour>
    <contour>
      <point x="9.0" y="0.0" type="line"/>
      <point x="122.0" y="0.0" type="line"/>
      <point x="122.0" y="141.0" type="line"/>
      <point x="9.0" y="141.0" type="line"/>
    </contour>
    <contour>
      <point x="341.0" y="0.0" type="line"/>
      <point x="453.0" y="0.0" type="line"/>
      <point x="453.0" y="141.0" type="line"/>
      <point x="341.0" y="141.0" type="line"/>
    </contour>
  </outline>
</glyph>
<glyph name="guilsinglleft" format="2">
  <advance width="268"/>
  <unicode hex="2039"/>
  <outline>
    <contour>
      <point x="264.0" y="494.0" type="line"/>
      <point x="106.0" y="494.0" type="line"/>
      <point x="5.0" y="281.0" type="line"/>
      <point x="134.0" y="230.0" type="line"/>
    </contour>
    <contour>
      <point x="106.0" y="64.0" type="line"/>
      <point x="264.0" y="64.0" type="line"/>
      <point x="137.0" y="335.0" type="line"/>
      <point x="5.0" y="281.0" type="line"/>
    </contour>
  </outline>
</glyph>
<glyph name="fraction" format="2">
  <advance width="160"/>
  <unicode hex="2044"/>
  <outline>
    <contour>
      <point x="12.0" y="0.0" type="line"/>
      <point x="261.0" y="625.0" type="line"/>
      <point x="149.0" y="625.0" type="line"/>
      <point x="-100.0" y="0.0" type="line"/>
    </contour>
  </outline>
</glyph>
<glyph name="uni2070" format="2">
  <advance width="280"/>
  <unicode hex="2070"/>
  <outline>
    <contour>
      <point x="140.0" y="535.0" type="curve"/>
      <point x="162.0" y="535.0"/>
      <point x="166.0" y="522.0"/>
      <point x="166.0" y="447.0" type="curve"/>
      <point x="166.0" y="374.0"/>
      <point x="162.0" y="362.0"/>
      <point x="140.0" y="362.0" type="curve"/>
      <point x="117.0" y="362.0"/>
      <point x="113.0" y="374.0"/>
      <point x="113.0" y="447.0" type="curve"/>
      <point x="113.0" y="522.0"/>
      <point x="117.0" y="535.0"/>
    </contour>
    <contour>
      <point x="140.0" y="261.0" type="curve"/>
      <point x="230.0" y="261.0"/>
      <point x="272.0" y="298.0"/>
      <point x="272.0" y="447.0" type="curve"/>
      <point x="272.0" y="593.0"/>
      <point x="243.0" y="632.0"/>
      <point x="140.0" y="632.0" type="curve"/>
      <point x="50.0" y="632.0"/>
      <point x="8.0" y="595.0"/>
      <point x="8.0" y="447.0" type="curve"/>
      <point x="8.0" y="300.0"/>
      <point x="37.0" y="261.0"/>
    </contour>
  </outline>
</glyph>
<glyph name="uni2074" format="2">
  <advance width="260"/>
  <unicode hex="2074"/>
  <outline>
    <contour>
      <point x="256.0" y="343.0" type="line"/>
      <point x="256.0" y="437.0" type="line"/>
      <point x="229.0" y="437.0" type="line"/>
      <point x="229.0" y="564.0" type="line"/>
      <point x="145.0" y="564.0" type="line"/>
      <point x="132.0" y="437.0" type="line"/>
      <point x="108.0" y="437.0" type="line"/>
      <point x="137.0" y="625.0" type="line"/>
      <point x="39.0" y="625.0" type="line"/>
      <point x="6.0" y="437.0" type="line"/>
      <point x="6.0" y="343.0" type="line"/>
      <point x="125.0" y="343.0" type="line"/>
      <point x="125.0" y="268.0" type="line"/>
      <point x="229.0" y="268.0" type="line"/>
      <point x="229.0" y="343.0" type="line"/>
    </contour>
  </outline>
</glyph>
<glyph name="uni2075" format="1">
  <advance width="224.0"/>
  <unicode hex="2075"/>
  <outline>
    <contour>
      <point x="108.0" y="261.0" type="curve"/>
      <point x="172.0" y="261.0"/>
      <point x="220.0" y="297.0"/>
      <point x="220.0" y="382.0" type="curve"/>
      <point x="220.0" y="470.0"/>
      <point x="188.0" y="489.0"/>
      <point x="149.0" y="489.0" type="curve" smooth="yes"/>
      <point x="142.0" y="489.0"/>
      <point x="131.0" y="488.0"/>
      <point x="124.0" y="487.0" type="curve"/>
      <point x="124.0" y="528.0" type="line"/>
      <point x="200.0" y="528.0" type="line"/>
      <point x="200.0" y="625.0" type="line"/>
      <point x="19.0" y="625.0" type="line"/>
      <point x="19.0" y="403.0" type="line"/>
      <point x="40.0" y="406.0"/>
      <point x="60.0" y="407.0"/>
      <point x="82.0" y="407.0" type="curve"/>
      <point x="109.0" y="407.0"/>
      <point x="115.0" y="401.0"/>
      <point x="115.0" y="385.0" type="curve"/>
      <point x="115.0" y="367.0"/>
      <point x="109.0" y="360.0"/>
      <point x="85.0" y="360.0" type="curve"/>
      <point x="61.0" y="360.0"/>
      <point x="37.0" y="361.0"/>
      <point x="9.0" y="367.0" type="curve"/>
      <point x="9.0" y="273.0" type="line"/>
      <point x="26.0" y="266.0"/>
      <point x="66.0" y="261.0"/>
    </contour>
  </outline>
</glyph>
<glyph name="uni2076" format="2">
  <advance width="249"/>
  <unicode hex="2076"/>
  <outline>
    <contour>
      <point x="8.0" y="437.0" type="curve"/>
      <point x="8.0" y="305.0"/>
      <point x="41.0" y="261.0"/>
      <point x="133.0" y="261.0" type="curve" smooth="yes"/>
      <point x="207.0" y="261.0"/>
      <point x="246.0" y="310.0"/>
      <point x="246.0" y="391.0" type="curve"/>
      <point x="246.0" y="470.0"/>
      <point x="220.0" y="505.0"/>
      <point x="166.0" y="505.0" type="curve"/>
      <point x="129.0" y="505.0"/>
      <point x="105.0" y="487.0"/>
      <point x="99.0" y="482.0" type="curve"/>
      <point x="99.0" y="412.0" type="line"/>
      <point x="108.0" y="417.0"/>
      <point x="120.0" y="422.0"/>
      <point x="130.0" y="422.0" type="curve"/>
      <point x="144.0" y="422.0"/>
      <point x="150.0" y="416.0"/>
      <point x="150.0" y="388.0" type="curve"/>
      <point x="150.0" y="363.0"/>
      <point x="144.0" y="353.0"/>
      <point x="131.0" y="353.0" type="curve"/>
      <point x="113.0" y="353.0"/>
      <point x="109.0" y="365.0"/>
      <point x="109.0" y="427.0" type="curve"/>
      <point x="109.0" y="523.0"/>
      <point x="119.0" y="541.0"/>
      <point x="169.0" y="541.0" type="curve"/>
      <point x="194.0" y="541.0"/>
      <point x="210.0" y="539.0"/>
      <point x="221.0" y="537.0" type="curve"/>
      <point x="221.0" y="626.0" type="line"/>
      <point x="211.0" y="629.0"/>
      <point x="185.0" y="632.0"/>
      <point x="163.0" y="632.0" type="curve"/>
      <point x="60.0" y="632.0"/>
      <point x="8.0" y="571.0"/>
    </contour>
  </outline>
</glyph>
<glyph name="uni2077" format="1">
  <advance width="223.0"/>
  <unicode hex="2077"/>
  <outline>
    <contour>
      <point x="218.0" y="528.0" type="line"/>
      <point x="218.0" y="625.0" type="line"/>
      <point x="9.0" y="625.0" type="line"/>
      <point x="9.0" y="526.0" type="line"/>
      <point x="107.0" y="526.0" type="line"/>
      <point x="-1.0" y="268.0" type="line"/>
      <point x="117.0" y="268.0" type="line"/>
    </contour>
  </outline>
</glyph>
<glyph name="uni2078" format="2">
  <advance width="252"/>
  <unicode hex="2078"/>
  <outline>
    <contour>
      <point x="126.0" y="261.0" type="curve"/>
      <point x="210.0" y="261.0"/>
      <point x="245.0" y="297.0"/>
      <point x="245.0" y="365.0" type="curve"/>
      <point x="245.0" y="407.0"/>
      <point x="231.0" y="440.0"/>
      <point x="198.0" y="453.0" type="curve"/>
      <point x="231.0" y="469.0"/>
      <point x="240.0" y="498.0"/>
      <point x="240.0" y="535.0" type="curve"/>
      <point x="240.0" y="602.0"/>
      <point x="210.0" y="632.0"/>
      <point x="126.0" y="632.0" type="curve"/>
      <point x="47.0" y="632.0"/>
      <point x="12.0" y="599.0"/>
      <point x="12.0" y="536.0" type="curve"/>
      <point x="12.0" y="498.0"/>
      <point x="21.0" y="469.0"/>
      <point x="55.0" y="453.0" type="curve"/>
      <point x="22.0" y="440.0"/>
      <point x="7.0" y="409.0"/>
      <point x="7.0" y="366.0" type="curve"/>
      <point x="7.0" y="294.0"/>
      <point x="39.0" y="261.0"/>
    </contour>
    <contour>
      <point x="126.0" y="547.0" type="curve"/>
      <point x="142.0" y="547.0"/>
      <point x="149.0" y="539.0"/>
      <point x="149.0" y="519.0" type="curve"/>
      <point x="149.0" y="499.0"/>
      <point x="142.0" y="491.0"/>
      <point x="126.0" y="491.0" type="curve"/>
      <point x="110.0" y="491.0"/>
      <point x="103.0" y="499.0"/>
      <point x="103.0" y="519.0" type="curve"/>
      <point x="103.0" y="540.0"/>
      <point x="110.0" y="547.0"/>
    </contour>
    <contour>
      <point x="126.0" y="408.0" type="curve"/>
      <point x="143.0" y="408.0"/>
      <point x="150.0" y="400.0"/>
      <point x="150.0" y="380.0" type="curve"/>
      <point x="150.0" y="358.0"/>
      <point x="143.0" y="350.0"/>
      <point x="126.0" y="350.0" type="curve"/>
      <point x="110.0" y="350.0"/>
      <point x="103.0" y="358.0"/>
      <point x="103.0" y="380.0" type="curve"/>
      <point x="103.0" y="400.0"/>
      <point x="110.0" y="408.0"/>
    </contour>
  </outline>
</glyph>
<glyph name="uni2079" format="2">
  <advance width="251"/>
  <unicode hex="2079"/>
  <outline>
    <contour>
      <point x="243.0" y="456.0" type="curve"/>
      <point x="243.0" y="588.0"/>
      <point x="209.0" y="632.0"/>
      <point x="118.0" y="632.0" type="curve"/>
      <point x="43.0" y="632.0"/>
      <point x="3.0" y="584.0"/>
      <point x="3.0" y="502.0" type="curve"/>
      <point x="3.0" y="424.0"/>
      <point x="30.0" y="389.0"/>
      <point x="84.0" y="389.0" type="curve"/>
      <point x="120.0" y="389.0"/>
      <point x="145.0" y="406.0"/>
      <point x="151.0" y="411.0" type="curve"/>
      <point x="151.0" y="482.0" type="line"/>
      <point x="142.0" y="478.0"/>
      <point x="132.0" y="471.0"/>
      <point x="120.0" y="471.0" type="curve"/>
      <point x="106.0" y="471.0"/>
      <point x="99.0" y="477.0"/>
      <point x="99.0" y="505.0" type="curve"/>
      <point x="99.0" y="530.0"/>
      <point x="106.0" y="541.0"/>
      <point x="119.0" y="541.0" type="curve"/>
      <point x="139.0" y="541.0"/>
      <point x="140.0" y="528.0"/>
      <point x="140.0" y="466.0" type="curve"/>
      <point x="140.0" y="372.0"/>
      <point x="131.0" y="354.0"/>
      <point x="81.0" y="354.0" type="curve"/>
      <point x="55.0" y="354.0"/>
      <point x="38.0" y="356.0"/>
      <point x="29.0" y="357.0" type="curve"/>
      <point x="29.0" y="267.0" type="line"/>
      <point x="39.0" y="264.0"/>
      <point x="65.0" y="261.0"/>
      <point x="86.0" y="261.0" type="curve"/>
      <point x="189.0" y="261.0"/>
      <point x="243.0" y="322.0"/>
    </contour>
  </outline>
</glyph>
<glyph name="Euro" format="2">
  <advance width="401"/>
  <unicode hex="20AC"/>
  <outline>
    <contour>
      <point x="7.0" y="420.0" type="line"/>
      <point x="7.0" y="333.0" type="line"/>
      <point x="339.0" y="333.0" type="line"/>
      <point x="339.0" y="420.0" type="line"/>
    </contour>
    <contour>
      <point x="7.0" y="305.0" type="line"/>
      <point x="7.0" y="218.0" type="line"/>
      <point x="339.0" y="218.0" type="line"/>
      <point x="339.0" y="305.0" type="line"/>
    </contour>
    <contour>
      <point x="390.0" y="200.0" type="line"/>
      <point x="360.0" y="188.0"/>
      <point x="326.0" y="178.0"/>
      <point x="286.0" y="178.0" type="curve"/>
      <point x="249.0" y="178.0"/>
      <point x="241.0" y="186.0"/>
      <point x="241.0" y="313.0" type="curve" smooth="yes"/>
      <point x="241.0" y="448.0"/>
      <point x="246.0" y="457.0"/>
      <point x="290.0" y="457.0" type="curve"/>
      <point x="321.0" y="457.0"/>
      <point x="360.0" y="453.0"/>
      <point x="378.0" y="451.0" type="curve"/>
      <point x="378.0" y="628.0" type="line"/>
      <point x="352.0" y="633.0"/>
      <point x="321.0" y="637.0"/>
      <point x="279.0" y="637.0" type="curve"/>
      <point x="119.0" y="637.0"/>
      <point x="42.0" y="550.0"/>
      <point x="42.0" y="313.0" type="curve" smooth="yes"/>
      <point x="42.0" y="63.0"/>
      <point x="98.0" y="-10.0"/>
      <point x="238.0" y="-10.0" type="curve"/>
      <point x="317.0" y="-10.0"/>
      <point x="362.0" y="5.0"/>
      <point x="390.0" y="24.0" type="curve"/>
    </contour>
  </outline>
</glyph>
<glyph name="uni20BA" format="2">
  <advance width="457"/>
  <unicode hex="20BA"/>
  <outline>
    <contour>
      <point x="275.0" y="274.0" type="line"/>
      <point x="275.0" y="207.0"/>
      <point x="274.0" y="183.0"/>
      <point x="254.0" y="183.0" type="curve" smooth="yes"/>
      <point x="243.0" y="183.0" type="line"/>
      <point x="243.0" y="625.0" type="line"/>
      <point x="50.0" y="625.0" type="line"/>
      <point x="50.0" y="0.0" type="line"/>
      <point x="256.0" y="0.0" type="line" smooth="yes"/>
      <point x="391.0" y="0.0"/>
      <point x="451.0" y="84.0"/>
      <point x="451.0" y="274.0" type="curve"/>
    </contour>
    <contour>
      <point x="14.0" y="421.0" type="line"/>
      <point x="14.0" y="330.0" type="line"/>
      <point x="328.0" y="451.0" type="line"/>
      <point x="328.0" y="541.0" type="line"/>
    </contour>
    <contour>
      <point x="14.0" y="300.0" type="line"/>
      <point x="14.0" y="209.0" type="line"/>
      <point x="328.0" y="331.0" type="line"/>
      <point x="328.0" y="422.0" type="line"/>
    </contour>
  </outline>
</glyph>
<glyph name="uni2120" format="1">
  <advance width="483.0"/>
  <unicode hex="2120"/>
  <outline>
    <contour>
      <point x="63.0" y="452.0" type="curve" smooth="yes"/>
      <point x="92.0" y="443.0" type="line" smooth="yes"/>
      <point x="99.0" y="441.0"/>
      <point x="103.0" y="440.0"/>
      <point x="103.0" y="434.0" type="curve"/>
      <point x="103.0" y="427.0"/>
      <point x="99.0" y="424.0"/>
      <point x="88.0" y="424.0" type="curve" smooth="yes"/>
      <point x="53.0" y="424.0"/>
      <point x="27.0" y="430.0"/>
      <point x="10.0" y="436.0" type="curve"/>
      <point x="10.0" y="349.0" type="line"/>
      <point x="23.0" y="344.0"/>
      <point x="55.0" y="338.0"/>
      <point x="93.0" y="338.0" type="curve" smooth="yes"/>
      <point x="177.0" y="338.0"/>
      <point x="190.0" y="391.0"/>
      <point x="190.0" y="435.0" type="curve" smooth="yes"/>
      <point x="190.0" y="505.0"/>
      <point x="165.0" y="512.0"/>
      <point x="131.0" y="522.0" type="curve" smooth="yes"/>
      <point x="100.0" y="531.0" type="line" smooth="yes"/>
      <point x="96.0" y="532.0"/>
      <point x="92.0" y="534.0"/>
      <point x="92.0" y="539.0" type="curve"/>
      <point x="92.0" y="546.0"/>
      <point x="95.0" y="550.0"/>
      <point x="109.0" y="550.0" type="curve"/>
      <point x="136.0" y="550.0"/>
      <point x="156.0" y="546.0"/>
      <point x="171.0" y="542.0" type="curve"/>
      <point x="171.0" y="624.0" type="line"/>
      <point x="156.0" y="628.0"/>
      <point x="137.0" y="632.0"/>
      <point x="104.0" y="632.0" type="curve" smooth="yes"/>
      <point x="40.0" y="632.0"/>
      <point x="8.0" y="599.0"/>
      <point x="8.0" y="531.0" type="curve" smooth="yes"/>
      <point x="8.0" y="469.0"/>
      <point x="38.0" y="460.0"/>
    </contour>
    <contour>
      <point x="470.0" y="346.0" type="line"/>
      <point x="470.0" y="625.0" type="line"/>
      <point x="372.0" y="625.0" type="line"/>
      <point x="340.0" y="513.0" type="line"/>
      <point x="310.0" y="625.0" type="line"/>
      <point x="208.0" y="625.0" type="line"/>
      <point x="208.0" y="346.0" type="line"/>
      <point x="287.0" y="346.0" type="line"/>
      <point x="287.0" y="476.0" type="line"/>
      <point x="306.0" y="397.0" type="line"/>
      <point x="371.0" y="397.0" type="line"/>
      <point x="391.0" y="476.0" type="line"/>
      <point x="391.0" y="346.0" type="line"/>
    </contour>
  </outline>
</glyph>
<glyph name="trademark" format="2">
  <advance width="501"/>
  <unicode hex="2122"/>
  <outline>
    <contour>
      <point x="203.0" y="540.0" type="line"/>
      <point x="203.0" y="625.0" type="line"/>
      <point x="7.0" y="625.0" type="line"/>
      <point x="7.0" y="540.0" type="line"/>
      <point x="63.0" y="540.0" type="line"/>
      <point x="63.0" y="346.0" type="line"/>
      <point x="147.0" y="346.0" type="line"/>
      <point x="147.0" y="540.0" type="line"/>
    </contour>
    <contour>
      <point x="485.0" y="346.0" type="line"/>
      <point x="485.0" y="625.0" type="line"/>
      <point x="387.0" y="625.0" type="line"/>
      <point x="355.0" y="514.0" type="line"/>
      <point x="325.0" y="625.0" type="line"/>
      <point x="223.0" y="625.0" type="line"/>
      <point x="223.0" y="346.0" type="line"/>
      <point x="302.0" y="346.0" type="line"/>
      <point x="302.0" y="476.0" type="line"/>
      <point x="321.0" y="397.0" type="line"/>
      <point x="387.0" y="397.0" type="line"/>
      <point x="406.0" y="476.0" type="line"/>
      <point x="406.0" y="346.0" type="line"/>
    </contour>
  </outline>
</glyph>
<glyph name="arrowup" format="1">
  <advance width="534.0"/>
  <unicode hex="2191"/>
  <outline>
    <contour>
      <point x="527.0" y="263.0" type="line"/>
      <point x="527.0" y="474.0" type="line"/>
      <point x="267.0" y="646.0" type="line"/>
      <point x="7.0" y="474.0" type="line"/>
      <point x="7.0" y="263.0" type="line"/>
      <point x="119.0" y="340.0" type="line" smooth="yes"/>
      <point x="135.20178903259898" y="351.1387299599118"/>
      <point x="160.85917005239625" y="368.88083619818144"/>
      <point x="174.0" y="380.0" type="curve"/>
      <point x="176.0" y="379.0" type="line"/>
      <point x="174.99778679183353" y="352.94245658767164"/>
      <point x="174.0" y="335.0"/>
      <point x="174.0" y="280.0" type="curve" smooth="yes"/>
      <point x="174.0" y="0.0" type="line"/>
      <point x="360.0" y="0.0" type="line"/>
      <point x="360.0" y="280.0" type="line" smooth="yes"/>
      <point x="360.0" y="335.0"/>
      <point x="360.0" y="353.0"/>
      <point x="358.0" y="379.0" type="curve"/>
      <point x="360.0" y="380.0" type="line"/>
      <point x="373.4407971764135" y="368.6270177738039"/>
      <point x="396.4871128886024" y="351.1534412945405"/>
      <point x="413.0" y="340.0" type="curve" smooth="yes"/>
    </contour>
  </outline>
</glyph>
<glyph name="product" format="2">
  <advance width="499"/>
  <unicode hex="220F"/>
  <outline>
    <contour>
      <point x="237.0" y="-152.0" type="line"/>
      <point x="237.0" y="478.0" type="line"/>
      <point x="58.0" y="478.0" type="line"/>
      <point x="58.0" y="-152.0" type="line"/>
    </contour>
    <contour>
      <point x="441.0" y="-152.0" type="line"/>
      <point x="441.0" y="478.0" type="line"/>
      <point x="262.0" y="478.0" type="line"/>
      <point x="262.0" y="-152.0" type="line"/>
    </contour>
    <contour>
      <point x="8.0" y="627.0" type="line"/>
      <point x="8.0" y="444.0" type="line"/>
      <point x="491.0" y="444.0" type="line"/>
      <point x="491.0" y="627.0" type="line"/>
    </contour>
  </outline>
</glyph>
<glyph name="summation" format="1">
  <advance width="432.0"/>
  <unicode hex="2211"/>
  <outline>
    <contour>
      <point x="7.0" y="31.0" type="line"/>
      <point x="7.0" y="-152.0" type="line"/>
      <point x="424.0" y="-152.0" type="line"/>
      <point x="424.0" y="31.0" type="line"/>
      <point x="239.0" y="31.0" type="line"/>
      <point x="381.0" y="239.0" type="line"/>
      <point x="267.0" y="444.0" type="line"/>
      <point x="408.0" y="444.0" type="line"/>
      <point x="408.0" y="627.0" type="line"/>
      <point x="28.0" y="627.0" type="line"/>
      <point x="28.0" y="444.0" type="line"/>
      <point x="159.0" y="238.0" type="line"/>
    </contour>
  </outline>
</glyph>
<glyph name="minus" format="2">
  <advance width="500"/>
  <unicode hex="2212"/>
  <outline>
    <contour>
      <point x="427.0" y="244.0" type="line"/>
      <point x="427.0" y="400.0" type="line"/>
      <point x="73.0" y="400.0" type="line"/>
      <point x="73.0" y="244.0" type="line"/>
    </contour>
  </outline>
</glyph>
<glyph name="radical" format="1">
  <advance width="550.0"/>
  <unicode hex="221A"/>
  <outline>
    <contour>
      <point x="155.0" y="-152.0" type="line"/>
      <point x="254.0" y="-152.0" type="line"/>
      <point x="254.0" y="33.0" type="line"/>
      <point x="210.0" y="327.0" type="line"/>
      <point x="16.0" y="327.0" type="line"/>
    </contour>
    <contour>
      <point x="371.0" y="-152.0" type="line"/>
      <point x="559.0" y="779.0" type="line"/>
      <point x="358.0" y="779.0" type="line"/>
      <point x="242.0" y="33.0" type="line"/>
      <point x="242.0" y="-152.0" type="line"/>
    </contour>
    <contour>
      <point x="-1.0" y="327.0" type="line"/>
      <point x="-1.0" y="144.0" type="line"/>
      <point x="190.0" y="144.0" type="line"/>
      <point x="190.0" y="327.0" type="line"/>
    </contour>
  </outline>
</glyph>
<glyph name="approxequal" format="2">
  <advance width="500"/>
  <unicode hex="2248"/>
  <outline>
    <contour>
      <point x="427.0" y="129.0" type="curve"/>
      <point x="427.0" y="280.0" type="line"/>
      <point x="399.0" y="249.0"/>
      <point x="372.0" y="238.0"/>
      <point x="347.0" y="238.0" type="curve" smooth="yes"/>
      <point x="279.0" y="238.0"/>
      <point x="219.0" y="322.0"/>
      <point x="153.0" y="322.0" type="curve" smooth="yes"/>
      <point x="128.0" y="322.0"/>
      <point x="101.0" y="311.0"/>
      <point x="73.0" y="279.0" type="curve"/>
      <point x="73.0" y="128.0" type="line"/>
      <point x="101.0" y="159.0"/>
      <point x="128.0" y="170.0"/>
      <point x="153.0" y="170.0" type="curve" smooth="yes"/>
      <point x="221.0" y="170.0"/>
      <point x="281.0" y="86.0"/>
      <point x="347.0" y="86.0" type="curve" smooth="yes"/>
      <point x="372.0" y="86.0"/>
      <point x="399.0" y="98.0"/>
    </contour>
    <contour>
      <point x="427.0" y="343.0" type="curve"/>
      <point x="427.0" y="494.0" type="line"/>
      <point x="399.0" y="463.0"/>
      <point x="372.0" y="452.0"/>
      <point x="347.0" y="452.0" type="curve" smooth="yes"/>
      <point x="279.0" y="452.0"/>
      <point x="219.0" y="536.0"/>
      <point x="153.0" y="536.0" type="curve" smooth="yes"/>
      <point x="128.0" y="536.0"/>
      <point x="101.0" y="525.0"/>
      <point x="73.0" y="493.0" type="curve"/>
      <point x="73.0" y="342.0" type="line"/>
      <point x="101.0" y="373.0"/>
      <point x="128.0" y="384.0"/>
      <point x="153.0" y="384.0" type="curve" smooth="yes"/>
      <point x="221.0" y="384.0"/>
      <point x="281.0" y="300.0"/>
      <point x="347.0" y="300.0" type="curve" smooth="yes"/>
      <point x="372.0" y="300.0"/>
      <point x="399.0" y="312.0"/>
    </contour>
  </outline>
</glyph>
<glyph name="lessequal" format="2">
  <advance width="500"/>
  <unicode hex="2264"/>
  <guideline x="27" y="181" angle="90.0" identifier="COlhh1ZMEu"/>
  <outline>
    <contour>
      <point x="427.0" y="452.0" type="line"/>
      <point x="427.0" y="623.0" type="line"/>
      <point x="73.0" y="346.0" type="line"/>
      <point x="146.0" y="251.0" type="line"/>
    </contour>
    <contour>
      <point x="427.0" y="205.0" type="line"/>
      <point x="427.0" y="346.0" type="line"/>
      <point x="73.0" y="346.0" type="line"/>
      <point x="73.0" y="205.0" type="line"/>
    </contour>
    <component base="minus" yOffset="-244"/>
  </outline>
</glyph>
<glyph name="lozenge" format="2">
  <advance width="579"/>
  <unicode hex="25CA"/>
  <outline>
    <contour>
      <point x="293.0" y="64.0" type="line"/>
      <point x="210.0" y="322.0" type="line"/>
      <point x="284.0" y="562.0" type="line"/>
      <point x="369.0" y="306.0" type="line"/>
    </contour>
    <contour>
      <point x="199.0" y="-152.0" type="line"/>
      <point x="378.0" y="-152.0" type="line"/>
      <point x="574.0" y="315.0" type="line"/>
      <point x="379.0" y="770.0" type="line"/>
      <point x="199.0" y="770.0" type="line"/>
      <point x="5.0" y="315.0" type="line"/>
    </contour>
  </outline>
</glyph>
<glyph name=".notdef" format="2">
  <advance width="382"/>
  <outline>
    <contour>
      <point x="50" y="0" type="line"/>
      <point x="50" y="627" type="line"/>
      <point x="332" y="627" type="line"/>
      <point x="332" y="0" type="line"/>
    </contour>
    <contour>
      <point x="160" y="110" type="line"/>
      <point x="222" y="110" type="line"/>
      <point x="222" y="517" type="line"/>
      <point x="160" y="517" type="line"/>
    </contour>
  </outline>
</glyph>
<glyph name="acute.uc" format="2">
  <advance width="351"/>
  <anchor x="138" y="530" name="_top"/>
  <outline>
    <contour>
      <point x="313.0" y="642.0" type="line"/>
      <point x="124.0" y="642.0" type="line"/>
      <point x="36.0" y="535.0" type="line"/>
      <point x="176.0" y="535.0" type="line"/>
    </contour>
  </outline>
</glyph>
<glyph name="breve.uc" format="2">
  <advance width="313"/>
  <anchor x="157" y="530" name="_top"/>
  <outline>
    <contour>
      <point x="277.0" y="640.0" type="curve"/>
      <point x="175.0" y="640.0" type="line"/>
      <point x="175.0" y="613.0"/>
      <point x="169.0" y="602.0"/>
      <point x="157.0" y="602.0" type="curve" smooth="yes"/>
      <point x="145.0" y="602.0"/>
      <point x="138.0" y="613.0"/>
      <point x="138.0" y="640.0" type="curve"/>
      <point x="36.0" y="640.0" type="line"/>
      <point x="36.0" y="568.0"/>
      <point x="87.0" y="530.0"/>
      <point x="157.0" y="530.0" type="curve" smooth="yes"/>
      <point x="226.0" y="530.0"/>
      <point x="277.0" y="569.0"/>
    </contour>
  </outline>
</glyph>
<glyph name="caron.alt" format="2">
  <advance width="15"/>
  <anchor x="29" y="665" name="_caronalt"/>
  <outline>
    <contour>
      <point x="152.0" y="544.0" type="curve" smooth="yes"/>
      <point x="168.0" y="665.0" type="line"/>
      <point x="32.0" y="665.0" type="line"/>
      <point x="32.0" y="483.0" type="line"/>
      <point x="79.0" y="483.0" type="line" smooth="yes"/>
      <point x="117.0" y="483.0"/>
      <point x="147.0" y="507.0"/>
    </contour>
  </outline>
</glyph>
<glyph name="circumflex.uc" format="1">
  <advance width="398.0"/>
  <outline>
    <contour>
      <point x="229.0" y="535.0" type="line"/>
      <point x="362.0" y="535.0" type="line"/>
      <point x="278.0" y="642.0" type="line"/>
      <point x="119.0" y="642.0" type="line"/>
      <point x="36.0" y="535.0" type="line"/>
      <point x="168.0" y="535.0" type="line"/>
      <point x="199.0" y="574.0" type="line"/>
    </contour>
    <contour>
      <point x="199" y="530" type="move" name="_top"/>
    </contour>
  </outline>
</glyph>
<glyph name="dotaccent.uc" format="2">
  <advance width="260"/>
  <guideline x="125" y="535" angle="90" name="mid" identifier="As8vshijY5"/>
  <anchor x="125" y="530" name="_top"/>
  <outline>
    <contour>
      <point x="66.0" y="535.0" type="line"/>
      <point x="184.0" y="535.0" type="line"/>
      <point x="184.0" y="640.0" type="line"/>
      <point x="66.0" y="640.0" type="line"/>
    </contour>
  </outline>
</glyph>
<glyph name="eight.tf" format="2">
  <advance width="500"/>
  <outline>
    <contour>
      <point x="250.0" y="-12.0" type="curve"/>
      <point x="386.08955223880605" y="-12.0"/>
      <point x="444.0" y="53.0"/>
      <point x="444.0" y="169.0" type="curve"/>
      <point x="444.0" y="242.0"/>
      <point x="422.0" y="300.0"/>
      <point x="369.0" y="324.0" type="curve"/>
      <point x="423.0" y="352.0"/>
      <point x="435.0" y="404.0"/>
      <point x="435.0" y="467.0" type="curve"/>
      <point x="435.0" y="583.0"/>
      <point x="386.82291666666674" y="637.0"/>
      <point x="250.0" y="637.0" type="curve"/>
      <point x="120.59585492227978" y="637.0"/>
      <point x="65.0" y="577.0"/>
      <point x="65.0" y="468.0" type="curve"/>
      <point x="64.0" y="404.0"/>
      <point x="77.0" y="353.0"/>
      <point x="132.0" y="324.0" type="curve"/>
      <point x="80.0" y="301.0"/>
      <point x="56.0" y="246.0"/>
      <point x="56.0" y="172.0" type="curve"/>
      <point x="56.0" y="47.0"/>
      <point x="106.9009900990099" y="-12.0"/>
    </contour>
    <contour>
      <point x="250.0" y="483.0" type="curve"/>
      <point x="267.0" y="483.0"/>
      <point x="276.0" y="470.0"/>
      <point x="276.0" y="438.0" type="curve"/>
      <point x="276.0" y="405.0"/>
      <point x="267.0" y="392.0"/>
      <point x="250.0" y="392.0" type="curve"/>
      <point x="233.0" y="392.0"/>
      <point x="224.0" y="405.0"/>
      <point x="224.0" y="438.0" type="curve"/>
      <point x="224.0" y="471.0"/>
      <point x="233.0" y="483.0"/>
    </contour>
    <contour>
      <point x="250.0" y="243.0" type="curve"/>
      <point x="268.0" y="243.0"/>
      <point x="276.0" y="229.0"/>
      <point x="276.0" y="197.0" type="curve"/>
      <point x="276.0" y="162.0"/>
      <point x="268.0" y="149.0"/>
      <point x="250.0" y="149.0" type="curve"/>
      <point x="233.0" y="149.0"/>
      <point x="224.0" y="162.0"/>
      <point x="224.0" y="197.0" type="curve"/>
      <point x="224.0" y="229.0"/>
      <point x="233.0" y="243.0"/>
    </contour>
  </outline>
</glyph>
<glyph name="f.alt" format="2">
  <advance width="288"/>
  <outline>
    <contour>
      <point x="289.0" y="625.0" type="line"/>
      <point x="278.25200097690606" y="627.4803074668679"/>
      <point x="251.44036697247708" y="635.0"/>
      <point x="200.0" y="635.0" type="curve" smooth="yes"/>
      <point x="99.0" y="635.0"/>
      <point x="41.0" y="587.0"/>
      <point x="41.0" y="489.0" type="curve"/>
      <point x="41.0" y="0.0" type="line"/>
      <point x="228.0" y="0.0" type="line"/>
      <point x="228.0" y="458.0" type="line" smooth="yes"/>
      <point x="228.0" y="486.0"/>
      <point x="235.0" y="490.0"/>
      <point x="261.0" y="490.0" type="curve"/>
      <point x="269.75" y="490.0"/>
      <point x="284.0619218936295" y="487.9876156212741"/>
      <point x="289.0" y="487.0" type="curve"/>
    </contour>
    <contour>
      <point x="7.0" y="296.0" type="line"/>
      <point x="284.0" y="296.0" type="line"/>
      <point x="284.0" y="454.0" type="line"/>
      <point x="7.0" y="454.0" type="line"/>
    </contour>
  </outline>
</glyph>
<glyph name="five.osf" format="2">
  <advance width="375"/>
  <outline>
    <contour>
      <point x="175.0" y="-162.0" type="curve"/>
      <point x="285.0" y="-162.0"/>
      <point x="365.0" y="-99.0"/>
      <point x="367.0" y="71.0" type="curve"/>
      <point x="365.0" y="213.0"/>
      <point x="317.86486486486484" y="247.0"/>
      <point x="256.0" y="247.0" type="curve" smooth="yes"/>
      <point x="248.0" y="247.0"/>
      <point x="230.0" y="246.0"/>
      <point x="220.0" y="244.0" type="curve"/>
      <point x="220.0" y="317.0" type="line"/>
      <point x="334.0" y="317.0" type="line"/>
      <point x="334.0" y="494.0" type="line"/>
      <point x="27.0" y="494.0" type="line"/>
      <point x="27.0" y="93.0" type="line"/>
      <point x="62.0" y="99.0"/>
      <point x="93.0" y="101.0"/>
      <point x="130.0" y="101.0" type="curve"/>
      <point x="167.0" y="101.0"/>
      <point x="175.0" y="89.64864864864865"/>
      <point x="175.0" y="66.0" type="curve" smooth="yes"/>
      <point x="175.0" y="33.52380952380952"/>
      <point x="168.0" y="22.0"/>
      <point x="136.0" y="22.0" type="curve"/>
      <point x="100.0" y="22.0"/>
      <point x="61.0" y="24.0"/>
      <point x="13.0" y="33.0" type="curve"/>
      <point x="13.0" y="-141.0" type="line"/>
      <point x="39.0" y="-154.0"/>
      <point x="108.0" y="-162.0"/>
    </contour>
  </outline>
</glyph>
<glyph name="five.tf" format="2">
  <advance width="500"/>
  <outline>
    <contour>
      <point x="237.0" y="-12.0" type="curve"/>
      <point x="344.0" y="-12.0"/>
      <point x="429.0" y="49.0"/>
      <point x="429.0" y="201.0" type="curve"/>
      <point x="429.0" y="354.0"/>
      <point x="381.0" y="388.0"/>
      <point x="318.0" y="388.0" type="curve" smooth="yes"/>
      <point x="310.0" y="388.0"/>
      <point x="292.0" y="387.0"/>
      <point x="282.0" y="385.0" type="curve"/>
      <point x="282.0" y="448.0" type="line"/>
      <point x="396.0" y="448.0" type="line"/>
      <point x="396.0" y="625.0" type="line"/>
      <point x="89.0" y="625.0" type="line"/>
      <point x="89.0" y="234.0" type="line"/>
      <point x="124.0" y="240.0"/>
      <point x="155.0" y="242.0"/>
      <point x="192.0" y="242.0" type="curve"/>
      <point x="229.0" y="242.0"/>
      <point x="237.0" y="231.0"/>
      <point x="237.0" y="208.0" type="curve" smooth="yes"/>
      <point x="237.0" y="178.0"/>
      <point x="230.0" y="167.0"/>
      <point x="198.0" y="167.0" type="curve"/>
      <point x="162.0" y="167.0"/>
      <point x="123.0" y="169.0"/>
      <point x="75.0" y="178.0" type="curve"/>
      <point x="75.0" y="9.0" type="line"/>
      <point x="101.0" y="-4.0"/>
      <point x="170.0" y="-12.0"/>
    </contour>
  </outline>
</glyph>
<glyph name="four.osf" format="2">
  <advance width="441"/>
  <outline>
    <contour>
      <point x="435.0" y="-18.0" type="line"/>
      <point x="435.0" y="153.0" type="line"/>
      <point x="395.0" y="153.0" type="line"/>
      <point x="395.0" y="381.0" type="line"/>
      <point x="250.0" y="381.0" type="line"/>
      <point x="220.0" y="153.0" type="line"/>
      <point x="199.0" y="153.0" type="line"/>
      <point x="245.0" y="494.0" type="line"/>
      <point x="67.0" y="494.0" type="line"/>
      <point x="13.0" y="153.0" type="line"/>
      <point x="13.0" y="-18.0" type="line"/>
      <point x="202.0" y="-18.0" type="line"/>
      <point x="202.0" y="-152.0" type="line"/>
      <point x="395.0" y="-152.0" type="line"/>
      <point x="395.0" y="-18.0" type="line"/>
    </contour>
  </outline>
</glyph>
<glyph name="four.tf" format="2">
  <advance width="500"/>
  <outline>
    <contour>
      <point x="452.0" y="128.0" type="line"/>
      <point x="452.0" y="299.0" type="line"/>
      <point x="418.0" y="299.0" type="line"/>
      <point x="418.0" y="517.0" type="line"/>
      <point x="273.0" y="517.0" type="line"/>
      <point x="243.0" y="299.0" type="line"/>
      <point x="222.0" y="299.0" type="line"/>
      <point x="268.0" y="625.0" type="line"/>
      <point x="105.0" y="625.0" type="line"/>
      <point x="51.0" y="299.0" type="line"/>
      <point x="51.0" y="128.0" type="line"/>
      <point x="225.0" y="128.0" type="line"/>
      <point x="225.0" y="0.0" type="line"/>
      <point x="418.0" y="0.0" type="line"/>
      <point x="418.0" y="128.0" type="line"/>
    </contour>
  </outline>
</glyph>
<glyph name="grave.uc" format="1">
  <advance width="351.0"/>
  <outline>
    <contour>
      <point x="37.0" y="642.0" type="line"/>
      <point x="174.0" y="535.0" type="line"/>
      <point x="315.0" y="535.0" type="line"/>
      <point x="226.0" y="642.0" type="line"/>
    </contour>
    <contour>
      <point x="212" y="530" type="move" name="_top"/>
    </contour>
  </outline>
</glyph>
<glyph name="hungarumlaut.uc" format="2">
  <advance width="492"/>
  <anchor x="218" y="530" name="_top"/>
  <outline>
    <contour>
      <point x="279.0" y="642.0" type="line"/>
      <point x="118.0" y="642.0" type="line"/>
      <point x="30.0" y="535.0" type="line"/>
      <point x="156.0" y="535.0" type="line"/>
    </contour>
    <contour>
      <point x="451.0" y="642.0" type="line"/>
      <point x="289.0" y="642.0" type="line"/>
      <point x="202.0" y="535.0" type="line"/>
      <point x="328.0" y="535.0" type="line"/>
    </contour>
  </outline>
</glyph>
<glyph name="macron.uc" format="2">
  <advance width="291"/>
  <anchor x="145" y="530" name="_top"/>
  <outline>
    <contour>
      <point x="256.0" y="540.0" type="line"/>
      <point x="256.0" y="629.0" type="line"/>
      <point x="37.0" y="629.0" type="line"/>
      <point x="37.0" y="540.0" type="line"/>
    </contour>
  </outline>
</glyph>
<glyph name="nine.osf" format="2">
  <advance width="420"/>
  <outline>
    <contour>
      <point x="409.0" y="185.0" type="curve"/>
      <point x="409.0" y="425.5239616613419"/>
      <point x="352.0" y="504.0"/>
      <point x="197.0" y="504.0" type="curve"/>
      <point x="70.0" y="504.0"/>
      <point x="6.0" y="417.12775330396477"/>
      <point x="6.0" y="272.0" type="curve"/>
      <point x="6.0" y="131.22613065326632"/>
      <point x="50.0" y="69.0"/>
      <point x="138.0" y="69.0" type="curve"/>
      <point x="197.0" y="69.0"/>
      <point x="242.12789635880878" y="100.34105695682344"/>
      <point x="245.0" y="108.0" type="curve"/>
      <point x="245.0" y="233.0" type="line"/>
      <point x="228.0" y="224.0"/>
      <point x="214.0" y="216.0"/>
      <point x="203.0" y="216.0" type="curve"/>
      <point x="188.0" y="216.0"/>
      <point x="180.0" y="227.0909090909091"/>
      <point x="180.0" y="277.0" type="curve"/>
      <point x="180.0" y="320.50877192982455"/>
      <point x="188.0" y="339.0"/>
      <point x="201.0" y="339.0" type="curve"/>
      <point x="219.0" y="339.0"/>
      <point x="223.0" y="317.03076923076924"/>
      <point x="223.0" y="203.0" type="curve"/>
      <point x="223.0" y="33.90155440414506"/>
      <point x="211.0" y="4.0"/>
      <point x="132.0" y="4.0" type="curve"/>
      <point x="89.0" y="4.0"/>
      <point x="64.0" y="8.0"/>
      <point x="46.0" y="11.0" type="curve"/>
      <point x="46.0" y="-152.0" type="line"/>
      <point x="63.0" y="-158.0"/>
      <point x="107.0" y="-162.0"/>
      <point x="145.0" y="-162.0" type="curve"/>
      <point x="317.0" y="-162.0"/>
      <point x="409.0" y="-54.13489736070383"/>
    </contour>
  </outline>
</glyph>
